M48
;DRILL file {KiCad (5.0.0)} date 10/23/19 21:58:34
;FORMAT={3:3/ absolute / metric / keep zeros}
FMAT,2
METRIC,TZ
T1C0.400
T2C0.701
T3C0.800
T4C0.900
T5C0.991
T6C1.000
T7C1.020
T8C1.100
T9C1.500
%
G90
G05
M71
T1
X086106Y-065786
X099314Y-101600
X106426Y-098298
X107188Y-097028
X107696Y-082296
X108712Y-083820
X110236Y-063500
X112268Y-064516
X114554Y-124714
X116332Y-110998
X121158Y-115824
X139954Y-060452
X139954Y-063246
X159004Y-097282
T2
X141773Y-123063
X144272Y-123063
X146771Y-123063
X124501Y-056261
X127000Y-056261
X129499Y-056261
T3
X137160Y-104140
X144780Y-104140
X134620Y-069850
X142240Y-069850
X127000Y-121920
X134620Y-121920
X125730Y-095250
X133350Y-095250
X125730Y-106680
X133350Y-106680
X125730Y-091440
X133350Y-091440
X127000Y-125730
X134620Y-125730
X125730Y-099060
X133350Y-099060
X137160Y-100330
X144780Y-100330
X137160Y-096520
X144780Y-096520
X137160Y-107950
X144780Y-107950
X142280Y-060706
X144780Y-060706
X137160Y-092710
X144780Y-092710
X137160Y-087630
X144780Y-087630
X107990Y-108712
X110490Y-108712
X105664Y-055626
X105664Y-063246
X125730Y-087630
X133350Y-087630
X125730Y-102870
X133350Y-102870
X111506Y-089916
X114006Y-089916
X125730Y-083820
X133350Y-083820
X134620Y-074930
X142240Y-074930
X125730Y-110490
X133350Y-110490
T4
X148590Y-069850
X151130Y-069850
X148336Y-076708
X150876Y-076708
T5
X102870Y-067310
X102870Y-069850
X102870Y-072390
X102870Y-074930
X102870Y-077470
X102870Y-080010
X102870Y-082550
X102870Y-085090
X102870Y-087630
X102870Y-090170
X102870Y-092710
X102870Y-095250
X102870Y-097790
X102870Y-100330
X102870Y-102870
X102870Y-105410
X102870Y-107950
X102870Y-110490
X102870Y-113030
X102870Y-115570
X118110Y-067310
X118110Y-069850
X118110Y-072390
X118110Y-074930
X118110Y-077470
X118110Y-080010
X118110Y-082550
X118110Y-085090
X118110Y-087630
X118110Y-090170
X118110Y-092710
X118110Y-095250
X118110Y-097790
X118110Y-100330
X118110Y-102870
X118110Y-105410
X118110Y-107950
X118110Y-110490
X118110Y-113030
X118110Y-115570
T6
X156210Y-087376
X156210Y-089916
X156210Y-092456
X156210Y-094996
X156210Y-097536
X156210Y-100076
X156210Y-102616
X156210Y-105156
X156210Y-107696
X156210Y-110236
X156210Y-112776
X156210Y-115316
X156210Y-117856
X156210Y-120396
X156210Y-122936
X156210Y-125476
X156464Y-073152
X156464Y-075692
X156464Y-078232
X127000Y-069850
X129540Y-069850
X132080Y-069850
X121920Y-122936
X121920Y-125476
X150368Y-083312
X152908Y-083312
X127000Y-074930
X129540Y-074930
X093980Y-068580
X093980Y-071120
X093980Y-073660
X093980Y-076200
X093980Y-078740
X093980Y-081280
X093980Y-083820
X093980Y-086360
X093980Y-088900
X093980Y-091440
X093980Y-093980
X093980Y-096520
X093980Y-099060
X093980Y-101600
X093980Y-104140
X093980Y-106680
X093980Y-109220
X093980Y-111760
X093980Y-114300
X093980Y-116840
X090170Y-068580
X090170Y-071120
X090170Y-073660
X090170Y-076200
X090170Y-078740
X090170Y-081280
X090170Y-083820
X090170Y-086360
X090170Y-088900
X090170Y-091440
X090170Y-093980
X090170Y-096520
X090170Y-099060
X090170Y-101600
X090170Y-104140
X090170Y-106680
X090170Y-109220
X090170Y-111760
X090170Y-114300
X090170Y-116840
X091440Y-055880
X093980Y-055880
X096520Y-055880
X099060Y-055880
X101600Y-055880
X117348Y-122936
X117348Y-125476
T8
X091290Y-122500
X091290Y-127000
X097790Y-122500
X097790Y-127000
X109832Y-056206
X109832Y-060706
X116332Y-056206
X116332Y-060706
X139954Y-055880
X142494Y-055880
X145034Y-055880
X105260Y-122500
X105260Y-127000
X111760Y-122500
X111760Y-127000
T9
X110490Y-097790
X110490Y-102690
T7
X151384Y-056390G85X151384Y-057910
G05
X157224Y-054860G85X155704Y-054860
G05
X157224Y-060960G85X155704Y-060960
G05
T0
M30
