G04 #@! TF.GenerationSoftware,KiCad,Pcbnew,(5.0.0)*
G04 #@! TF.CreationDate,2019-10-23T21:58:30-05:00*
G04 #@! TF.ProjectId,18F_DSPIC,3138465F44535049432E6B696361645F,rev?*
G04 #@! TF.SameCoordinates,Original*
G04 #@! TF.FileFunction,Copper,L1,Top,Signal*
G04 #@! TF.FilePolarity,Positive*
%FSLAX46Y46*%
G04 Gerber Fmt 4.6, Leading zero omitted, Abs format (unit mm)*
G04 Created by KiCad (PCBNEW (5.0.0)) date 10/23/19 21:58:30*
%MOMM*%
%LPD*%
G01*
G04 APERTURE LIST*
G04 #@! TA.AperFunction,ComponentPad*
%ADD10O,1.700000X1.700000*%
G04 #@! TD*
G04 #@! TA.AperFunction,ComponentPad*
%ADD11R,1.700000X1.700000*%
G04 #@! TD*
G04 #@! TA.AperFunction,ComponentPad*
%ADD12R,1.800000X1.800000*%
G04 #@! TD*
G04 #@! TA.AperFunction,ComponentPad*
%ADD13C,1.800000*%
G04 #@! TD*
G04 #@! TA.AperFunction,ComponentPad*
%ADD14O,1.600000X1.600000*%
G04 #@! TD*
G04 #@! TA.AperFunction,ComponentPad*
%ADD15C,1.600000*%
G04 #@! TD*
G04 #@! TA.AperFunction,ComponentPad*
%ADD16C,2.000000*%
G04 #@! TD*
G04 #@! TA.AperFunction,ComponentPad*
%ADD17R,1.498600X1.498600*%
G04 #@! TD*
G04 #@! TA.AperFunction,ComponentPad*
%ADD18C,1.498600*%
G04 #@! TD*
G04 #@! TA.AperFunction,ComponentPad*
%ADD19C,2.300000*%
G04 #@! TD*
G04 #@! TA.AperFunction,Conductor*
%ADD20C,0.100000*%
G04 #@! TD*
G04 #@! TA.AperFunction,ComponentPad*
%ADD21C,3.000000*%
G04 #@! TD*
G04 #@! TA.AperFunction,ComponentPad*
%ADD22R,4.800000X3.000000*%
G04 #@! TD*
G04 #@! TA.AperFunction,ComponentPad*
%ADD23R,1.905000X2.000000*%
G04 #@! TD*
G04 #@! TA.AperFunction,ComponentPad*
%ADD24O,1.905000X2.000000*%
G04 #@! TD*
G04 #@! TA.AperFunction,ComponentPad*
%ADD25O,1.501140X1.899920*%
G04 #@! TD*
G04 #@! TA.AperFunction,ViaPad*
%ADD26C,0.800000*%
G04 #@! TD*
G04 #@! TA.AperFunction,Conductor*
%ADD27C,0.508000*%
G04 #@! TD*
G04 #@! TA.AperFunction,Conductor*
%ADD28C,0.254000*%
G04 #@! TD*
G04 APERTURE END LIST*
D10*
G04 #@! TO.P,,20*
G04 #@! TO.N,GND*
X90170000Y-116840000D03*
G04 #@! TO.P,,19*
X90170000Y-114300000D03*
G04 #@! TO.P,,18*
X90170000Y-111760000D03*
G04 #@! TO.P,,17*
X90170000Y-109220000D03*
G04 #@! TO.P,,16*
X90170000Y-106680000D03*
G04 #@! TO.P,,15*
G04 #@! TO.N,/RC13*
X90170000Y-104140000D03*
G04 #@! TO.P,,14*
G04 #@! TO.N,/OSC2*
X90170000Y-101600000D03*
G04 #@! TO.P,,13*
G04 #@! TO.N,/RB12*
X90170000Y-99060000D03*
G04 #@! TO.P,,12*
G04 #@! TO.N,/RB11*
X90170000Y-96520000D03*
G04 #@! TO.P,,11*
G04 #@! TO.N,/RB10*
X90170000Y-93980000D03*
G04 #@! TO.P,,10*
G04 #@! TO.N,/RB9*
X90170000Y-91440000D03*
G04 #@! TO.P,,9*
G04 #@! TO.N,/RB8*
X90170000Y-88900000D03*
G04 #@! TO.P,,8*
G04 #@! TO.N,/RB7*
X90170000Y-86360000D03*
G04 #@! TO.P,,7*
G04 #@! TO.N,/RB6*
X90170000Y-83820000D03*
G04 #@! TO.P,,6*
G04 #@! TO.N,/RB5*
X90170000Y-81280000D03*
G04 #@! TO.P,,5*
G04 #@! TO.N,/RB4*
X90170000Y-78740000D03*
G04 #@! TO.P,,4*
G04 #@! TO.N,/RB3*
X90170000Y-76200000D03*
G04 #@! TO.P,,3*
G04 #@! TO.N,/RB2*
X90170000Y-73660000D03*
G04 #@! TO.P,,2*
G04 #@! TO.N,/RB1*
X90170000Y-71120000D03*
D11*
G04 #@! TO.P,,1*
G04 #@! TO.N,/RB0*
X90170000Y-68580000D03*
G04 #@! TD*
D12*
G04 #@! TO.P,D1,1*
G04 #@! TO.N,GND*
X151130000Y-69850000D03*
D13*
G04 #@! TO.P,D1,2*
G04 #@! TO.N,Net-(D1-Pad2)*
X148590000Y-69850000D03*
G04 #@! TD*
G04 #@! TO.P,D2,2*
G04 #@! TO.N,Net-(D2-Pad2)*
X148336000Y-76708000D03*
D12*
G04 #@! TO.P,D2,1*
G04 #@! TO.N,GND*
X150876000Y-76708000D03*
G04 #@! TD*
D10*
G04 #@! TO.P,INT0,2*
G04 #@! TO.N,Net-(J1-Pad2)*
X117348000Y-125476000D03*
D11*
G04 #@! TO.P,INT0,1*
G04 #@! TO.N,/RA11*
X117348000Y-122936000D03*
G04 #@! TD*
G04 #@! TO.P,INT1,1*
G04 #@! TO.N,/RD8*
X121920000Y-122936000D03*
D10*
G04 #@! TO.P,INT1,2*
G04 #@! TO.N,Net-(J2-Pad2)*
X121920000Y-125476000D03*
G04 #@! TD*
D11*
G04 #@! TO.P,RB1,1*
G04 #@! TO.N,/RB1*
X127000000Y-74930000D03*
D10*
G04 #@! TO.P,RB1,2*
G04 #@! TO.N,Net-(J4-Pad2)*
X129540000Y-74930000D03*
G04 #@! TD*
D11*
G04 #@! TO.P,SALIDA,1*
G04 #@! TO.N,GND*
X150368000Y-83312000D03*
D10*
G04 #@! TO.P,SALIDA,2*
G04 #@! TO.N,Net-(J6-Pad2)*
X152908000Y-83312000D03*
G04 #@! TD*
D11*
G04 #@! TO.P,PICKIT,1*
G04 #@! TO.N,/RB6*
X91440000Y-55880000D03*
D10*
G04 #@! TO.P,PICKIT,2*
G04 #@! TO.N,/RB7*
X93980000Y-55880000D03*
G04 #@! TO.P,PICKIT,3*
G04 #@! TO.N,GND*
X96520000Y-55880000D03*
G04 #@! TO.P,PICKIT,4*
G04 #@! TO.N,/VPK*
X99060000Y-55880000D03*
G04 #@! TO.P,PICKIT,5*
G04 #@! TO.N,/MCLR*
X101600000Y-55880000D03*
G04 #@! TD*
D14*
G04 #@! TO.P,10K,2*
G04 #@! TO.N,Net-(J1-Pad2)*
X127000000Y-125730000D03*
D15*
G04 #@! TO.P,10K,1*
G04 #@! TO.N,/VDD*
X134620000Y-125730000D03*
G04 #@! TD*
D14*
G04 #@! TO.P,10K,2*
G04 #@! TO.N,GND*
X134620000Y-121920000D03*
D15*
G04 #@! TO.P,10K,1*
G04 #@! TO.N,Net-(J2-Pad2)*
X127000000Y-121920000D03*
G04 #@! TD*
G04 #@! TO.P,10K,1*
G04 #@! TO.N,/VDD*
X105664000Y-63246000D03*
D14*
G04 #@! TO.P,10K,2*
G04 #@! TO.N,/MCLR*
X105664000Y-55626000D03*
G04 #@! TD*
D15*
G04 #@! TO.P,330,1*
G04 #@! TO.N,Net-(J3-Pad3)*
X134620000Y-69850000D03*
D14*
G04 #@! TO.P,330,2*
G04 #@! TO.N,Net-(D1-Pad2)*
X142240000Y-69850000D03*
G04 #@! TD*
G04 #@! TO.P,330,2*
G04 #@! TO.N,Net-(D2-Pad2)*
X142240000Y-74930000D03*
D15*
G04 #@! TO.P,330,1*
G04 #@! TO.N,Net-(J4-Pad2)*
X134620000Y-74930000D03*
G04 #@! TD*
D14*
G04 #@! TO.P,20K,2*
G04 #@! TO.N,GND*
X125730000Y-83820000D03*
D15*
G04 #@! TO.P,20K,1*
G04 #@! TO.N,Net-(R6-Pad1)*
X133350000Y-83820000D03*
G04 #@! TD*
D14*
G04 #@! TO.P,20K,2*
G04 #@! TO.N,/RF0*
X125730000Y-87630000D03*
D15*
G04 #@! TO.P,20K,1*
G04 #@! TO.N,Net-(R6-Pad1)*
X133350000Y-87630000D03*
G04 #@! TD*
G04 #@! TO.P,10K,1*
G04 #@! TO.N,Net-(R10-Pad2)*
X144780000Y-87630000D03*
D14*
G04 #@! TO.P,10K,2*
G04 #@! TO.N,Net-(R6-Pad1)*
X137160000Y-87630000D03*
G04 #@! TD*
D15*
G04 #@! TO.P,20K,1*
G04 #@! TO.N,Net-(R10-Pad2)*
X133350000Y-91440000D03*
D14*
G04 #@! TO.P,20K,2*
G04 #@! TO.N,/RF1*
X125730000Y-91440000D03*
G04 #@! TD*
G04 #@! TO.P,10K,2*
G04 #@! TO.N,Net-(R10-Pad2)*
X144780000Y-92710000D03*
D15*
G04 #@! TO.P,10K,1*
G04 #@! TO.N,Net-(R10-Pad1)*
X137160000Y-92710000D03*
G04 #@! TD*
G04 #@! TO.P,20K,1*
G04 #@! TO.N,Net-(R10-Pad1)*
X133350000Y-102870000D03*
D14*
G04 #@! TO.P,20K,2*
G04 #@! TO.N,/RF2*
X125730000Y-102870000D03*
G04 #@! TD*
D15*
G04 #@! TO.P,10K,1*
G04 #@! TO.N,Net-(R12-Pad1)*
X144780000Y-96520000D03*
D14*
G04 #@! TO.P,10K,2*
G04 #@! TO.N,Net-(R10-Pad1)*
X137160000Y-96520000D03*
G04 #@! TD*
G04 #@! TO.P,20K,2*
G04 #@! TO.N,/RF3*
X125730000Y-106680000D03*
D15*
G04 #@! TO.P,20K,1*
G04 #@! TO.N,Net-(R12-Pad1)*
X133350000Y-106680000D03*
G04 #@! TD*
D14*
G04 #@! TO.P,10K,2*
G04 #@! TO.N,Net-(R12-Pad1)*
X144780000Y-100330000D03*
D15*
G04 #@! TO.P,10K,1*
G04 #@! TO.N,Net-(R14-Pad1)*
X137160000Y-100330000D03*
G04 #@! TD*
G04 #@! TO.P,20K,1*
G04 #@! TO.N,Net-(R14-Pad1)*
X133350000Y-95250000D03*
D14*
G04 #@! TO.P,20K,2*
G04 #@! TO.N,/RF4*
X125730000Y-95250000D03*
G04 #@! TD*
D15*
G04 #@! TO.P,10K,1*
G04 #@! TO.N,Net-(R16-Pad1)*
X137160000Y-107950000D03*
D14*
G04 #@! TO.P,10K,2*
G04 #@! TO.N,Net-(R14-Pad1)*
X144780000Y-107950000D03*
G04 #@! TD*
G04 #@! TO.P,20K,2*
G04 #@! TO.N,/RF5*
X125730000Y-99060000D03*
D15*
G04 #@! TO.P,20K,1*
G04 #@! TO.N,Net-(R16-Pad1)*
X133350000Y-99060000D03*
G04 #@! TD*
G04 #@! TO.P,10K,1*
G04 #@! TO.N,Net-(J6-Pad2)*
X144780000Y-104140000D03*
D14*
G04 #@! TO.P,10K,2*
G04 #@! TO.N,Net-(R16-Pad1)*
X137160000Y-104140000D03*
G04 #@! TD*
D15*
G04 #@! TO.P,20K,1*
G04 #@! TO.N,Net-(J6-Pad2)*
X133350000Y-110490000D03*
D14*
G04 #@! TO.P,20K,2*
G04 #@! TO.N,/RF6*
X125730000Y-110490000D03*
G04 #@! TD*
D16*
G04 #@! TO.P,INT0,1*
G04 #@! TO.N,GND*
X91290000Y-127000000D03*
G04 #@! TO.P,INT0,2*
G04 #@! TO.N,Net-(J1-Pad2)*
X91290000Y-122500000D03*
G04 #@! TO.P,INT0,1*
G04 #@! TO.N,GND*
X97790000Y-127000000D03*
G04 #@! TO.P,INT0,2*
G04 #@! TO.N,Net-(J1-Pad2)*
X97790000Y-122500000D03*
G04 #@! TD*
G04 #@! TO.P,INT1,2*
G04 #@! TO.N,/VDD*
X111760000Y-122500000D03*
G04 #@! TO.P,INT1,1*
G04 #@! TO.N,Net-(J2-Pad2)*
X111760000Y-127000000D03*
G04 #@! TO.P,INT1,2*
G04 #@! TO.N,/VDD*
X105260000Y-122500000D03*
G04 #@! TO.P,INT1,1*
G04 #@! TO.N,Net-(J2-Pad2)*
X105260000Y-127000000D03*
G04 #@! TD*
G04 #@! TO.P,RESET,2*
G04 #@! TO.N,/MCLR*
X116332000Y-56206000D03*
G04 #@! TO.P,RESET,1*
G04 #@! TO.N,GND*
X116332000Y-60706000D03*
G04 #@! TO.P,RESET,2*
G04 #@! TO.N,/MCLR*
X109832000Y-56206000D03*
G04 #@! TO.P,RESET,1*
G04 #@! TO.N,GND*
X109832000Y-60706000D03*
G04 #@! TD*
D17*
G04 #@! TO.P,U1,1*
G04 #@! TO.N,/MCLR*
X102870000Y-67310000D03*
D18*
G04 #@! TO.P,U1,2*
G04 #@! TO.N,/RB0*
X102870000Y-69850000D03*
G04 #@! TO.P,U1,3*
G04 #@! TO.N,/RB1*
X102870000Y-72390000D03*
G04 #@! TO.P,U1,4*
G04 #@! TO.N,/RB2*
X102870000Y-74930000D03*
G04 #@! TO.P,U1,5*
G04 #@! TO.N,/RB3*
X102870000Y-77470000D03*
G04 #@! TO.P,U1,6*
G04 #@! TO.N,/RB4*
X102870000Y-80010000D03*
G04 #@! TO.P,U1,7*
G04 #@! TO.N,/RB5*
X102870000Y-82550000D03*
G04 #@! TO.P,U1,8*
G04 #@! TO.N,/RB6*
X102870000Y-85090000D03*
G04 #@! TO.P,U1,9*
G04 #@! TO.N,/RB7*
X102870000Y-87630000D03*
G04 #@! TO.P,U1,10*
G04 #@! TO.N,/RB8*
X102870000Y-90170000D03*
G04 #@! TO.P,U1,11*
G04 #@! TO.N,/VDD*
X102870000Y-92710000D03*
G04 #@! TO.P,U1,12*
G04 #@! TO.N,GND*
X102870000Y-95250000D03*
G04 #@! TO.P,U1,13*
G04 #@! TO.N,/OSC1*
X102870000Y-97790000D03*
G04 #@! TO.P,U1,14*
G04 #@! TO.N,/OSC2*
X102870000Y-100330000D03*
G04 #@! TO.P,U1,15*
G04 #@! TO.N,/RC13*
X102870000Y-102870000D03*
G04 #@! TO.P,U1,16*
G04 #@! TO.N,/RC14*
X102870000Y-105410000D03*
G04 #@! TO.P,U1,17*
G04 #@! TO.N,/RA11*
X102870000Y-107950000D03*
G04 #@! TO.P,U1,18*
G04 #@! TO.N,/RD9*
X102870000Y-110490000D03*
G04 #@! TO.P,U1,19*
G04 #@! TO.N,/RD3*
X102870000Y-113030000D03*
G04 #@! TO.P,U1,20*
G04 #@! TO.N,GND*
X102870000Y-115570000D03*
G04 #@! TO.P,U1,21*
G04 #@! TO.N,/VDD*
X118110000Y-115570000D03*
G04 #@! TO.P,U1,22*
G04 #@! TO.N,/RD2*
X118110000Y-113030000D03*
G04 #@! TO.P,U1,23*
G04 #@! TO.N,/RD8*
X118110000Y-110490000D03*
G04 #@! TO.P,U1,24*
G04 #@! TO.N,/RF6*
X118110000Y-107950000D03*
G04 #@! TO.P,U1,25*
G04 #@! TO.N,/RF3*
X118110000Y-105410000D03*
G04 #@! TO.P,U1,26*
G04 #@! TO.N,/RF2*
X118110000Y-102870000D03*
G04 #@! TO.P,U1,27*
G04 #@! TO.N,/RF5*
X118110000Y-100330000D03*
G04 #@! TO.P,U1,28*
G04 #@! TO.N,/RF4*
X118110000Y-97790000D03*
G04 #@! TO.P,U1,29*
G04 #@! TO.N,/RF1*
X118110000Y-95250000D03*
G04 #@! TO.P,U1,30*
G04 #@! TO.N,/RF0*
X118110000Y-92710000D03*
G04 #@! TO.P,U1,31*
G04 #@! TO.N,GND*
X118110000Y-90170000D03*
G04 #@! TO.P,U1,32*
G04 #@! TO.N,/VDD*
X118110000Y-87630000D03*
G04 #@! TO.P,U1,33*
G04 #@! TO.N,/RD1*
X118110000Y-85090000D03*
G04 #@! TO.P,U1,34*
G04 #@! TO.N,/RD0*
X118110000Y-82550000D03*
G04 #@! TO.P,U1,35*
G04 #@! TO.N,/RB12*
X118110000Y-80010000D03*
G04 #@! TO.P,U1,36*
G04 #@! TO.N,/RB11*
X118110000Y-77470000D03*
G04 #@! TO.P,U1,37*
G04 #@! TO.N,/RB10*
X118110000Y-74930000D03*
G04 #@! TO.P,U1,38*
G04 #@! TO.N,/RB9*
X118110000Y-72390000D03*
G04 #@! TO.P,U1,39*
G04 #@! TO.N,GND*
X118110000Y-69850000D03*
G04 #@! TO.P,U1,40*
G04 #@! TO.N,/VDD*
X118110000Y-67310000D03*
G04 #@! TD*
D11*
G04 #@! TO.P,,1*
G04 #@! TO.N,/RF0*
X93980000Y-68580000D03*
D10*
G04 #@! TO.P,,2*
G04 #@! TO.N,/RF1*
X93980000Y-71120000D03*
G04 #@! TO.P,,3*
G04 #@! TO.N,/RF2*
X93980000Y-73660000D03*
G04 #@! TO.P,,4*
G04 #@! TO.N,/RF3*
X93980000Y-76200000D03*
G04 #@! TO.P,,5*
G04 #@! TO.N,/RF4*
X93980000Y-78740000D03*
G04 #@! TO.P,,6*
G04 #@! TO.N,/RF5*
X93980000Y-81280000D03*
G04 #@! TO.P,,7*
G04 #@! TO.N,/RF6*
X93980000Y-83820000D03*
G04 #@! TO.P,,8*
G04 #@! TO.N,/RD0*
X93980000Y-86360000D03*
G04 #@! TO.P,,9*
G04 #@! TO.N,/RD1*
X93980000Y-88900000D03*
G04 #@! TO.P,,10*
G04 #@! TO.N,/RD2*
X93980000Y-91440000D03*
G04 #@! TO.P,,11*
G04 #@! TO.N,/RD3*
X93980000Y-93980000D03*
G04 #@! TO.P,,12*
G04 #@! TO.N,/RD8*
X93980000Y-96520000D03*
G04 #@! TO.P,,13*
G04 #@! TO.N,/RD9*
X93980000Y-99060000D03*
G04 #@! TO.P,,14*
G04 #@! TO.N,/RA11*
X93980000Y-101600000D03*
G04 #@! TO.P,,15*
G04 #@! TO.N,/RC14*
X93980000Y-104140000D03*
G04 #@! TO.P,,16*
G04 #@! TO.N,/VDD*
X93980000Y-106680000D03*
G04 #@! TO.P,,17*
X93980000Y-109220000D03*
G04 #@! TO.P,,18*
X93980000Y-111760000D03*
G04 #@! TO.P,,19*
X93980000Y-114300000D03*
G04 #@! TO.P,,20*
X93980000Y-116840000D03*
G04 #@! TD*
D15*
G04 #@! TO.P,15pF,1*
G04 #@! TO.N,/OSC1*
X111506000Y-89916000D03*
G04 #@! TO.P,15pF,2*
G04 #@! TO.N,GND*
X114006000Y-89916000D03*
G04 #@! TD*
G04 #@! TO.P,15pF,2*
G04 #@! TO.N,GND*
X107990000Y-108712000D03*
G04 #@! TO.P,15pF,1*
G04 #@! TO.N,/OSC2*
X110490000Y-108712000D03*
G04 #@! TD*
D19*
G04 #@! TO.P,12MHz,1*
G04 #@! TO.N,/OSC1*
X110490000Y-97790000D03*
G04 #@! TO.P,12MHz,2*
G04 #@! TO.N,/OSC2*
X110490000Y-102690000D03*
G04 #@! TD*
D11*
G04 #@! TO.P,1,1*
G04 #@! TO.N,GND*
X156210000Y-125476000D03*
D10*
G04 #@! TO.P,1,2*
G04 #@! TO.N,/VDD*
X156210000Y-122936000D03*
G04 #@! TO.P,1,3*
G04 #@! TO.N,Net-(J9-Pad3)*
X156210000Y-120396000D03*
G04 #@! TO.P,1,4*
G04 #@! TO.N,/RB9*
X156210000Y-117856000D03*
G04 #@! TO.P,1,5*
G04 #@! TO.N,/RB10*
X156210000Y-115316000D03*
G04 #@! TO.P,1,6*
G04 #@! TO.N,/RB11*
X156210000Y-112776000D03*
G04 #@! TO.P,1,7*
G04 #@! TO.N,N/C*
X156210000Y-110236000D03*
G04 #@! TO.P,1,8*
X156210000Y-107696000D03*
G04 #@! TO.P,1,9*
X156210000Y-105156000D03*
G04 #@! TO.P,1,10*
X156210000Y-102616000D03*
G04 #@! TO.P,1,11*
G04 #@! TO.N,/RD0*
X156210000Y-100076000D03*
G04 #@! TO.P,1,12*
G04 #@! TO.N,/RD1*
X156210000Y-97536000D03*
G04 #@! TO.P,1,13*
G04 #@! TO.N,/RD2*
X156210000Y-94996000D03*
G04 #@! TO.P,1,14*
G04 #@! TO.N,/RD3*
X156210000Y-92456000D03*
G04 #@! TO.P,1,15*
G04 #@! TO.N,/VDD*
X156210000Y-89916000D03*
G04 #@! TO.P,1,16*
G04 #@! TO.N,GND*
X156210000Y-87376000D03*
G04 #@! TD*
D15*
G04 #@! TO.P,100nF,1*
G04 #@! TO.N,/VF*
X144780000Y-60706000D03*
G04 #@! TO.P,100nF,2*
G04 #@! TO.N,GND*
X142280000Y-60706000D03*
G04 #@! TD*
D20*
G04 #@! TO.N,GND*
G04 #@! TO.C,J10*
G36*
X158187513Y-53363611D02*
X158260318Y-53374411D01*
X158331714Y-53392295D01*
X158401013Y-53417090D01*
X158467548Y-53448559D01*
X158530678Y-53486398D01*
X158589795Y-53530242D01*
X158644330Y-53579670D01*
X158693758Y-53634205D01*
X158737602Y-53693322D01*
X158775441Y-53756452D01*
X158806910Y-53822987D01*
X158831705Y-53892286D01*
X158849589Y-53963682D01*
X158860389Y-54036487D01*
X158864000Y-54110000D01*
X158864000Y-55610000D01*
X158860389Y-55683513D01*
X158849589Y-55756318D01*
X158831705Y-55827714D01*
X158806910Y-55897013D01*
X158775441Y-55963548D01*
X158737602Y-56026678D01*
X158693758Y-56085795D01*
X158644330Y-56140330D01*
X158589795Y-56189758D01*
X158530678Y-56233602D01*
X158467548Y-56271441D01*
X158401013Y-56302910D01*
X158331714Y-56327705D01*
X158260318Y-56345589D01*
X158187513Y-56356389D01*
X158114000Y-56360000D01*
X154814000Y-56360000D01*
X154740487Y-56356389D01*
X154667682Y-56345589D01*
X154596286Y-56327705D01*
X154526987Y-56302910D01*
X154460452Y-56271441D01*
X154397322Y-56233602D01*
X154338205Y-56189758D01*
X154283670Y-56140330D01*
X154234242Y-56085795D01*
X154190398Y-56026678D01*
X154152559Y-55963548D01*
X154121090Y-55897013D01*
X154096295Y-55827714D01*
X154078411Y-55756318D01*
X154067611Y-55683513D01*
X154064000Y-55610000D01*
X154064000Y-54110000D01*
X154067611Y-54036487D01*
X154078411Y-53963682D01*
X154096295Y-53892286D01*
X154121090Y-53822987D01*
X154152559Y-53756452D01*
X154190398Y-53693322D01*
X154234242Y-53634205D01*
X154283670Y-53579670D01*
X154338205Y-53530242D01*
X154397322Y-53486398D01*
X154460452Y-53448559D01*
X154526987Y-53417090D01*
X154596286Y-53392295D01*
X154667682Y-53374411D01*
X154740487Y-53363611D01*
X154814000Y-53360000D01*
X158114000Y-53360000D01*
X158187513Y-53363611D01*
X158187513Y-53363611D01*
G37*
D21*
G04 #@! TD*
G04 #@! TO.P,J10,2*
G04 #@! TO.N,GND*
X156464000Y-54860000D03*
D22*
G04 #@! TO.P,J10,1*
G04 #@! TO.N,Net-(J10-Pad1)*
X156464000Y-60960000D03*
D20*
G04 #@! TD*
G04 #@! TO.N,GND*
G04 #@! TO.C,J10*
G36*
X152207513Y-54753611D02*
X152280318Y-54764411D01*
X152351714Y-54782295D01*
X152421013Y-54807090D01*
X152487548Y-54838559D01*
X152550678Y-54876398D01*
X152609795Y-54920242D01*
X152664330Y-54969670D01*
X152713758Y-55024205D01*
X152757602Y-55083322D01*
X152795441Y-55146452D01*
X152826910Y-55212987D01*
X152851705Y-55282286D01*
X152869589Y-55353682D01*
X152880389Y-55426487D01*
X152884000Y-55500000D01*
X152884000Y-58800000D01*
X152880389Y-58873513D01*
X152869589Y-58946318D01*
X152851705Y-59017714D01*
X152826910Y-59087013D01*
X152795441Y-59153548D01*
X152757602Y-59216678D01*
X152713758Y-59275795D01*
X152664330Y-59330330D01*
X152609795Y-59379758D01*
X152550678Y-59423602D01*
X152487548Y-59461441D01*
X152421013Y-59492910D01*
X152351714Y-59517705D01*
X152280318Y-59535589D01*
X152207513Y-59546389D01*
X152134000Y-59550000D01*
X150634000Y-59550000D01*
X150560487Y-59546389D01*
X150487682Y-59535589D01*
X150416286Y-59517705D01*
X150346987Y-59492910D01*
X150280452Y-59461441D01*
X150217322Y-59423602D01*
X150158205Y-59379758D01*
X150103670Y-59330330D01*
X150054242Y-59275795D01*
X150010398Y-59216678D01*
X149972559Y-59153548D01*
X149941090Y-59087013D01*
X149916295Y-59017714D01*
X149898411Y-58946318D01*
X149887611Y-58873513D01*
X149884000Y-58800000D01*
X149884000Y-55500000D01*
X149887611Y-55426487D01*
X149898411Y-55353682D01*
X149916295Y-55282286D01*
X149941090Y-55212987D01*
X149972559Y-55146452D01*
X150010398Y-55083322D01*
X150054242Y-55024205D01*
X150103670Y-54969670D01*
X150158205Y-54920242D01*
X150217322Y-54876398D01*
X150280452Y-54838559D01*
X150346987Y-54807090D01*
X150416286Y-54782295D01*
X150487682Y-54764411D01*
X150560487Y-54753611D01*
X150634000Y-54750000D01*
X152134000Y-54750000D01*
X152207513Y-54753611D01*
X152207513Y-54753611D01*
G37*
D21*
G04 #@! TO.P,J10,3*
G04 #@! TO.N,GND*
X151384000Y-57150000D03*
G04 #@! TD*
D11*
G04 #@! TO.P,VDD,1*
G04 #@! TO.N,/VPK*
X156464000Y-78232000D03*
D10*
G04 #@! TO.P,VDD,2*
G04 #@! TO.N,/VDD*
X156464000Y-75692000D03*
G04 #@! TO.P,VDD,3*
G04 #@! TO.N,/VF*
X156464000Y-73152000D03*
G04 #@! TD*
D23*
G04 #@! TO.P,U2,1*
G04 #@! TO.N,Net-(J10-Pad1)*
X139954000Y-55880000D03*
D24*
G04 #@! TO.P,U2,2*
G04 #@! TO.N,GND*
X142494000Y-55880000D03*
G04 #@! TO.P,U2,3*
G04 #@! TO.N,/VF*
X145034000Y-55880000D03*
G04 #@! TD*
D11*
G04 #@! TO.P,RB0,1*
G04 #@! TO.N,Net-(J3-Pad1)*
X127000000Y-69850000D03*
D10*
G04 #@! TO.P,RB0,2*
G04 #@! TO.N,/RB0*
X129540000Y-69850000D03*
G04 #@! TO.P,RB0,3*
G04 #@! TO.N,Net-(J3-Pad3)*
X132080000Y-69850000D03*
G04 #@! TD*
D25*
G04 #@! TO.P,LCD,1*
G04 #@! TO.N,/VDD*
X141772640Y-123063000D03*
G04 #@! TO.P,LCD,2*
G04 #@! TO.N,Net-(J9-Pad3)*
X144272000Y-123063000D03*
G04 #@! TO.P,LCD,3*
G04 #@! TO.N,GND*
X146771360Y-123063000D03*
G04 #@! TD*
G04 #@! TO.P,ADC,3*
G04 #@! TO.N,GND*
X129499360Y-56261000D03*
G04 #@! TO.P,ADC,2*
G04 #@! TO.N,Net-(J3-Pad1)*
X127000000Y-56261000D03*
G04 #@! TO.P,ADC,1*
G04 #@! TO.N,/VDD*
X124500640Y-56261000D03*
G04 #@! TD*
D26*
G04 #@! TO.N,GND*
X106426000Y-98298000D03*
G04 #@! TO.N,/RB0*
X110236000Y-63500000D03*
G04 #@! TO.N,/RB1*
X112268000Y-64516000D03*
G04 #@! TO.N,/RB9*
X86106000Y-65786000D03*
G04 #@! TO.N,/RF4*
X107696000Y-82296000D03*
G04 #@! TO.N,/RF5*
X108712000Y-83820000D03*
G04 #@! TO.N,/RD2*
X99314000Y-101600000D03*
X121158000Y-115824000D03*
G04 #@! TO.N,/VDD*
X116332000Y-110998000D03*
X114554000Y-124714000D03*
X159004000Y-97282000D03*
X107188000Y-97028000D03*
G04 #@! TO.N,/VPK*
X139954000Y-63246000D03*
X139954000Y-60452000D03*
G04 #@! TD*
D27*
G04 #@! TO.N,Net-(D1-Pad2)*
X148590000Y-69850000D02*
X142240000Y-69850000D01*
D28*
G04 #@! TO.N,Net-(D2-Pad2)*
X144018000Y-76708000D02*
X142240000Y-74930000D01*
X148336000Y-76708000D02*
X144018000Y-76708000D01*
G04 #@! TO.N,Net-(J1-Pad2)*
X97790000Y-122500000D02*
X91290000Y-122500000D01*
X100766000Y-125476000D02*
X117348000Y-125476000D01*
X97790000Y-122500000D02*
X100766000Y-125476000D01*
G04 #@! TO.N,/RA11*
X103466000Y-107950000D02*
X102870000Y-107950000D01*
X117348000Y-121832000D02*
X103466000Y-107950000D01*
X117348000Y-122936000D02*
X117348000Y-121832000D01*
G04 #@! TO.N,/RD8*
X121920000Y-114300000D02*
X118110000Y-110490000D01*
X121920000Y-122936000D02*
X121920000Y-114300000D01*
G04 #@! TO.N,Net-(J2-Pad2)*
X125476000Y-121920000D02*
X127000000Y-121920000D01*
X121920000Y-125476000D02*
X125476000Y-121920000D01*
X121070001Y-126325999D02*
X121920000Y-125476000D01*
X119396001Y-127999999D02*
X121070001Y-126325999D01*
X112759999Y-127999999D02*
X119396001Y-127999999D01*
X111760000Y-127000000D02*
X112759999Y-127999999D01*
X105260000Y-127000000D02*
X111760000Y-127000000D01*
G04 #@! TO.N,/RB0*
X90170000Y-67476000D02*
X91098000Y-66548000D01*
X90170000Y-68580000D02*
X90170000Y-67476000D01*
X99568000Y-66548000D02*
X102870000Y-69850000D01*
X91098000Y-66548000D02*
X99568000Y-66548000D01*
X102870000Y-69850000D02*
X109220000Y-63500000D01*
X110236000Y-63500000D02*
X109220000Y-63500000D01*
G04 #@! TO.N,/RB1*
X97790000Y-72390000D02*
X102870000Y-72390000D01*
X95250000Y-69850000D02*
X97790000Y-72390000D01*
X91440000Y-69850000D02*
X95250000Y-69850000D01*
X90170000Y-71120000D02*
X91440000Y-69850000D01*
X112268000Y-66802000D02*
X112268000Y-64516000D01*
X102870000Y-72390000D02*
X106680000Y-72390000D01*
X106680000Y-72390000D02*
X112268000Y-66802000D01*
G04 #@! TO.N,Net-(J4-Pad2)*
X129540000Y-74930000D02*
X134620000Y-74930000D01*
G04 #@! TO.N,/RC13*
X101810330Y-102870000D02*
X102870000Y-102870000D01*
X92642081Y-102870000D02*
X101810330Y-102870000D01*
X91372081Y-104140000D02*
X92642081Y-102870000D01*
X90170000Y-104140000D02*
X91372081Y-104140000D01*
G04 #@! TO.N,/OSC2*
X108130000Y-100330000D02*
X110490000Y-102690000D01*
X102870000Y-100330000D02*
X108130000Y-100330000D01*
X110490000Y-109220000D02*
X110490000Y-102690000D01*
X101810330Y-100330000D02*
X102870000Y-100330000D01*
X92642081Y-100330000D02*
X101810330Y-100330000D01*
X91372081Y-101600000D02*
X92642081Y-100330000D01*
X90170000Y-101600000D02*
X91372081Y-101600000D01*
G04 #@! TO.N,/RB12*
X95758000Y-97790000D02*
X92710000Y-97790000D01*
X118110000Y-80010000D02*
X108585000Y-80010000D01*
X91440000Y-99060000D02*
X90170000Y-99060000D01*
X108585000Y-80010000D02*
X106680000Y-81915000D01*
X106680000Y-81915000D02*
X106680000Y-95572926D01*
X106680000Y-95572926D02*
X103192926Y-99060000D01*
X92710000Y-97790000D02*
X91440000Y-99060000D01*
X103192926Y-99060000D02*
X97028000Y-99060000D01*
X97028000Y-99060000D02*
X95758000Y-97790000D01*
G04 #@! TO.N,/RB11*
X108712000Y-77470000D02*
X118110000Y-77470000D01*
X106045000Y-80137000D02*
X108712000Y-77470000D01*
X90170000Y-96520000D02*
X91440000Y-96520000D01*
X106045000Y-93667926D02*
X106045000Y-80137000D01*
X91440000Y-96520000D02*
X92710000Y-95250000D01*
X92710000Y-95250000D02*
X95504000Y-95250000D01*
X95504000Y-95250000D02*
X96774000Y-96520000D01*
X96774000Y-96520000D02*
X103192926Y-96520000D01*
X103192926Y-96520000D02*
X106045000Y-93667926D01*
G04 #@! TO.N,/RB10*
X102235000Y-93980000D02*
X102616000Y-93980000D01*
X91440000Y-93980000D02*
X90170000Y-93980000D01*
X92710000Y-92710000D02*
X91440000Y-93980000D01*
X95504000Y-92710000D02*
X92710000Y-92710000D01*
X96774000Y-93980000D02*
X95504000Y-92710000D01*
X102616000Y-93980000D02*
X96774000Y-93980000D01*
X116205000Y-76835000D02*
X118110000Y-74930000D01*
X107696000Y-76835000D02*
X116205000Y-76835000D01*
X105410000Y-79121000D02*
X107696000Y-76835000D01*
X105410000Y-91762926D02*
X105410000Y-79121000D01*
X103192926Y-93980000D02*
X105410000Y-91762926D01*
X102616000Y-93980000D02*
X103192926Y-93980000D01*
G04 #@! TO.N,/RB9*
X102547074Y-91440000D02*
X103124000Y-91440000D01*
X90170000Y-91440000D02*
X88392000Y-91440000D01*
X88392000Y-91440000D02*
X86106000Y-89154000D01*
X86106000Y-89154000D02*
X86106000Y-65786000D01*
X91440000Y-91440000D02*
X90170000Y-91440000D01*
X92710000Y-90170000D02*
X91440000Y-91440000D01*
X96012000Y-90170000D02*
X92710000Y-90170000D01*
X97282000Y-91440000D02*
X96012000Y-90170000D01*
X103124000Y-91440000D02*
X97282000Y-91440000D01*
X113030000Y-72390000D02*
X118110000Y-72390000D01*
X103124000Y-91440000D02*
X103505000Y-91440000D01*
X103505000Y-91440000D02*
X104775000Y-90170000D01*
X104775000Y-90170000D02*
X104775000Y-78613000D01*
X104775000Y-78613000D02*
X107188000Y-76200000D01*
X107188000Y-76200000D02*
X109220000Y-76200000D01*
X109220000Y-76200000D02*
X113030000Y-72390000D01*
G04 #@! TO.N,/RB8*
X90170000Y-88900000D02*
X91948000Y-88900000D01*
X92964000Y-87884000D02*
X93125001Y-87722999D01*
X91948000Y-88900000D02*
X92964000Y-87884000D01*
X93218000Y-87630000D02*
X92964000Y-87884000D01*
X95250000Y-87630000D02*
X93218000Y-87630000D01*
X102870000Y-90170000D02*
X97790000Y-90170000D01*
X97790000Y-90170000D02*
X95250000Y-87630000D01*
G04 #@! TO.N,/RB7*
X93980000Y-54356000D02*
X93980000Y-55880000D01*
X92964000Y-53340000D02*
X93980000Y-54356000D01*
X89916000Y-53340000D02*
X92964000Y-53340000D01*
X87122000Y-56134000D02*
X89916000Y-53340000D01*
X90170000Y-86360000D02*
X87122000Y-83312000D01*
X87122000Y-83312000D02*
X87122000Y-56134000D01*
X91372081Y-86360000D02*
X92642081Y-85090000D01*
X90170000Y-86360000D02*
X91372081Y-86360000D01*
X92642081Y-85090000D02*
X97282000Y-85090000D01*
X97282000Y-85090000D02*
X99822000Y-87630000D01*
X99822000Y-87630000D02*
X102870000Y-87630000D01*
G04 #@! TO.N,/RB6*
X89408000Y-83820000D02*
X90170000Y-83820000D01*
X88392000Y-82804000D02*
X89408000Y-83820000D01*
X88392000Y-57824000D02*
X88392000Y-82804000D01*
X91440000Y-55880000D02*
X90336000Y-55880000D01*
X90336000Y-55880000D02*
X88392000Y-57824000D01*
X91372081Y-83820000D02*
X92642081Y-82550000D01*
X90170000Y-83820000D02*
X91372081Y-83820000D01*
X92642081Y-82550000D02*
X96520000Y-82550000D01*
X96520000Y-82550000D02*
X99060000Y-85090000D01*
X99060000Y-85090000D02*
X102870000Y-85090000D01*
G04 #@! TO.N,/RB5*
X98806000Y-82550000D02*
X102870000Y-82550000D01*
X96266000Y-80010000D02*
X98806000Y-82550000D01*
X92642081Y-80010000D02*
X96266000Y-80010000D01*
X90170000Y-81280000D02*
X91372081Y-81280000D01*
X91372081Y-81280000D02*
X92642081Y-80010000D01*
G04 #@! TO.N,/RB4*
X91372081Y-78740000D02*
X92642081Y-77470000D01*
X90170000Y-78740000D02*
X91372081Y-78740000D01*
X92642081Y-77470000D02*
X96266000Y-77470000D01*
X96266000Y-77470000D02*
X98806000Y-80010000D01*
X98806000Y-80010000D02*
X102870000Y-80010000D01*
G04 #@! TO.N,/RB3*
X91372081Y-76200000D02*
X92642081Y-74930000D01*
X90170000Y-76200000D02*
X91372081Y-76200000D01*
X92642081Y-74930000D02*
X96266000Y-74930000D01*
X96266000Y-74930000D02*
X98806000Y-77470000D01*
X98806000Y-77470000D02*
X102870000Y-77470000D01*
G04 #@! TO.N,/RB2*
X98298000Y-74930000D02*
X102870000Y-74930000D01*
X95758000Y-72390000D02*
X98298000Y-74930000D01*
X92642081Y-72390000D02*
X95758000Y-72390000D01*
X90170000Y-73660000D02*
X91372081Y-73660000D01*
X91372081Y-73660000D02*
X92642081Y-72390000D01*
G04 #@! TO.N,Net-(J6-Pad2)*
X134149999Y-111289999D02*
X144742001Y-111289999D01*
X133350000Y-110490000D02*
X134149999Y-111289999D01*
X144742001Y-111289999D02*
X146558000Y-109474000D01*
X146558000Y-105918000D02*
X144780000Y-104140000D01*
X146558000Y-109474000D02*
X146558000Y-105918000D01*
G04 #@! TO.N,/RF0*
X120650000Y-92710000D02*
X125730000Y-87630000D01*
X118110000Y-92710000D02*
X120650000Y-92710000D01*
G04 #@! TO.N,/RF1*
X124930001Y-92239999D02*
X125730000Y-91440000D01*
X122669299Y-94500701D02*
X124930001Y-92239999D01*
X118859299Y-94500701D02*
X122669299Y-94500701D01*
X118110000Y-95250000D02*
X118859299Y-94500701D01*
G04 #@! TO.N,/RF2*
X118110000Y-102870000D02*
X125730000Y-102870000D01*
G04 #@! TO.N,/RF3*
X119380000Y-106680000D02*
X125730000Y-106680000D01*
X118110000Y-105410000D02*
X119380000Y-106680000D01*
G04 #@! TO.N,/RF4*
X123190000Y-97790000D02*
X125730000Y-95250000D01*
X118110000Y-97790000D02*
X123190000Y-97790000D01*
X118110000Y-97790000D02*
X112776000Y-92456000D01*
X112776000Y-92456000D02*
X112776000Y-85852000D01*
X112776000Y-85852000D02*
X109220000Y-82296000D01*
X109220000Y-82296000D02*
X107696000Y-82296000D01*
G04 #@! TO.N,/RF5*
X119380000Y-99060000D02*
X125730000Y-99060000D01*
X118110000Y-100330000D02*
X119380000Y-99060000D01*
X108712000Y-90932000D02*
X108712000Y-83820000D01*
X118110000Y-100330000D02*
X108712000Y-90932000D01*
G04 #@! TO.N,/RF6*
X120650000Y-110490000D02*
X118110000Y-107950000D01*
X125730000Y-110490000D02*
X120650000Y-110490000D01*
G04 #@! TO.N,/RD0*
X118110000Y-82550000D02*
X119380000Y-81280000D01*
X96266000Y-86360000D02*
X93980000Y-86360000D01*
X98859990Y-88953990D02*
X96266000Y-86360000D01*
X103293036Y-88953990D02*
X98859990Y-88953990D01*
X119380000Y-71882000D02*
X118618000Y-71120000D01*
X118618000Y-71120000D02*
X111117933Y-71120000D01*
X119380000Y-81280000D02*
X119380000Y-71882000D01*
X111117933Y-71120000D02*
X104320990Y-77916943D01*
X104320990Y-77916943D02*
X104320990Y-87926036D01*
X104320990Y-87926036D02*
X103293036Y-88953990D01*
X141866066Y-80264000D02*
X143002000Y-81399934D01*
X121666000Y-80264000D02*
X141866066Y-80264000D01*
X119380000Y-82550000D02*
X121666000Y-80264000D01*
X118110000Y-82550000D02*
X119380000Y-82550000D01*
X142882066Y-81280000D02*
X143002000Y-81399934D01*
X155194000Y-93591934D02*
X143002000Y-81399934D01*
X155328066Y-93726000D02*
X155194000Y-93591934D01*
X156972000Y-93726000D02*
X155328066Y-93726000D01*
X157734000Y-94488000D02*
X156972000Y-93726000D01*
X157734000Y-98552000D02*
X157734000Y-94488000D01*
X156210000Y-100076000D02*
X157734000Y-98552000D01*
G04 #@! TO.N,/RD1*
X121412000Y-81788000D02*
X118110000Y-85090000D01*
X141732000Y-81788000D02*
X121412000Y-81788000D01*
X146304000Y-86360000D02*
X141732000Y-81788000D01*
X146304000Y-88900000D02*
X146304000Y-86360000D01*
X154940000Y-97536000D02*
X146304000Y-88900000D01*
X156210000Y-97536000D02*
X154940000Y-97536000D01*
G04 #@! TO.N,/RD2*
X118110000Y-113030000D02*
X109728000Y-113030000D01*
X109728000Y-113030000D02*
X107696000Y-110998000D01*
X107696000Y-110998000D02*
X105410000Y-108712000D01*
X105410000Y-108712000D02*
X105410000Y-102870000D01*
X105410000Y-102870000D02*
X104140000Y-101600000D01*
X104140000Y-101600000D02*
X99314000Y-101600000D01*
X118364000Y-113030000D02*
X118110000Y-113030000D01*
X121158000Y-115824000D02*
X118364000Y-113030000D01*
G04 #@! TO.N,/RD3*
X92777919Y-93980000D02*
X93980000Y-93980000D01*
X89154000Y-95250000D02*
X91507919Y-95250000D01*
X88646000Y-95758000D02*
X89154000Y-95250000D01*
X91507919Y-95250000D02*
X92777919Y-93980000D01*
X101346000Y-113030000D02*
X102870000Y-113030000D01*
X88646000Y-95758000D02*
X88646000Y-104357962D01*
X88646000Y-104357962D02*
X89698038Y-105410000D01*
X89698038Y-105410000D02*
X94742000Y-105410000D01*
X95504000Y-106172000D02*
X95504000Y-107188000D01*
X94742000Y-105410000D02*
X95504000Y-106172000D01*
X95504000Y-107188000D02*
X101346000Y-113030000D01*
X157226000Y-92456000D02*
X156210000Y-92456000D01*
X160020000Y-95250000D02*
X157226000Y-92456000D01*
X88646000Y-95758000D02*
X87122000Y-97282000D01*
X87122000Y-128270000D02*
X88392000Y-129540000D01*
X88392000Y-129540000D02*
X157988000Y-129540000D01*
X87122000Y-97282000D02*
X87122000Y-128270000D01*
X157988000Y-129540000D02*
X160020000Y-127508000D01*
X160020000Y-127508000D02*
X160020000Y-95250000D01*
G04 #@! TO.N,/RC14*
X98044000Y-105410000D02*
X102870000Y-105410000D01*
X96774000Y-104140000D02*
X98044000Y-105410000D01*
X93980000Y-104140000D02*
X96774000Y-104140000D01*
D27*
G04 #@! TO.N,/VDD*
X93980000Y-116840000D02*
X93980000Y-114300000D01*
X93980000Y-114300000D02*
X93980000Y-111760000D01*
X93980000Y-109220000D02*
X93980000Y-111760000D01*
X93980000Y-106680000D02*
X93980000Y-109220000D01*
X106674213Y-122500000D02*
X111760000Y-122500000D01*
X105260000Y-122500000D02*
X106674213Y-122500000D01*
X99600000Y-116840000D02*
X93980000Y-116840000D01*
X105260000Y-122500000D02*
X99600000Y-116840000D01*
X116332000Y-106172000D02*
X116332000Y-110998000D01*
X113974000Y-124714000D02*
X111760000Y-122500000D01*
X114554000Y-124714000D02*
X113974000Y-124714000D01*
X109982000Y-99822000D02*
X113792000Y-99822000D01*
X116332000Y-102362000D02*
X116332000Y-106172000D01*
X113792000Y-99822000D02*
X116332000Y-102362000D01*
X109982000Y-99822000D02*
X107188000Y-97028000D01*
X157226000Y-75692000D02*
X156464000Y-75692000D01*
X159004000Y-77470000D02*
X157226000Y-75692000D01*
X159004000Y-88324081D02*
X159004000Y-77470000D01*
X156210000Y-89916000D02*
X157412081Y-89916000D01*
X157412081Y-89916000D02*
X159004000Y-88324081D01*
X134660640Y-125689360D02*
X134620000Y-125730000D01*
X155007919Y-122936000D02*
X156210000Y-122936000D01*
X159004000Y-119380000D02*
X159004000Y-97282000D01*
X159004000Y-120142000D02*
X159004000Y-119380000D01*
X156210000Y-122936000D02*
X159004000Y-120142000D01*
X105664000Y-62114630D02*
X107696000Y-60082630D01*
X105664000Y-63246000D02*
X105664000Y-62114630D01*
X107696000Y-60082630D02*
X107696000Y-59690000D01*
X107696000Y-59690000D02*
X109220000Y-58166000D01*
X109220000Y-58166000D02*
X117094000Y-58166000D01*
X118110000Y-67310000D02*
X118110000Y-59182000D01*
X117094000Y-58166000D02*
X118110000Y-59182000D01*
X159004000Y-73152000D02*
X159004000Y-70866000D01*
X156464000Y-75692000D02*
X159004000Y-73152000D01*
X159004000Y-70866000D02*
X147066000Y-58928000D01*
X147066000Y-58928000D02*
X134620000Y-58928000D01*
X134620000Y-58928000D02*
X129032000Y-53340000D01*
X134640320Y-125709680D02*
X134620000Y-125730000D01*
X153035000Y-122936000D02*
X156210000Y-122936000D01*
X129032000Y-53340000D02*
X126365000Y-53340000D01*
X124500640Y-55204360D02*
X124500640Y-57998360D01*
X126365000Y-53340000D02*
X124500640Y-55204360D01*
X124500640Y-63713360D02*
X124500640Y-57998360D01*
X118110000Y-67310000D02*
X120904000Y-67310000D01*
X120904000Y-67310000D02*
X124500640Y-63713360D01*
X139305030Y-125730000D02*
X141772640Y-123262390D01*
X134620000Y-125730000D02*
X139305030Y-125730000D01*
X141772640Y-123262390D02*
X141772640Y-123063000D01*
X143351250Y-124841000D02*
X141772640Y-123262390D01*
X151130000Y-124841000D02*
X143351250Y-124841000D01*
X153035000Y-122936000D02*
X151130000Y-124841000D01*
G04 #@! TO.N,/MCLR*
X102870000Y-57150000D02*
X101600000Y-55880000D01*
X102870000Y-67310000D02*
X102870000Y-57150000D01*
X101854000Y-55626000D02*
X101600000Y-55880000D01*
X105664000Y-55626000D02*
X101854000Y-55626000D01*
X109252000Y-55626000D02*
X109832000Y-56206000D01*
X105664000Y-55626000D02*
X109252000Y-55626000D01*
X114917787Y-56206000D02*
X109832000Y-56206000D01*
X116332000Y-56206000D02*
X114917787Y-56206000D01*
D28*
G04 #@! TO.N,Net-(R6-Pad1)*
X133350000Y-83820000D02*
X133350000Y-87630000D01*
X137160000Y-87630000D02*
X133350000Y-87630000D01*
G04 #@! TO.N,Net-(R10-Pad2)*
X143980001Y-91910001D02*
X144780000Y-92710000D01*
X142710001Y-90640001D02*
X143980001Y-91910001D01*
X134149999Y-90640001D02*
X142710001Y-90640001D01*
X133350000Y-91440000D02*
X134149999Y-90640001D01*
X144780000Y-87630000D02*
X144780000Y-92710000D01*
G04 #@! TO.N,Net-(R10-Pad1)*
X137160000Y-92710000D02*
X137160000Y-96520000D01*
X133858000Y-92710000D02*
X137160000Y-92710000D01*
X131572000Y-94996000D02*
X133858000Y-92710000D01*
X133350000Y-102870000D02*
X131572000Y-101092000D01*
X131572000Y-101092000D02*
X131572000Y-94996000D01*
G04 #@! TO.N,Net-(R12-Pad1)*
X144780000Y-97651370D02*
X144780000Y-100330000D01*
X144780000Y-96520000D02*
X144780000Y-97651370D01*
X133350000Y-107811370D02*
X135774630Y-110236000D01*
X133350000Y-106680000D02*
X133350000Y-107811370D01*
X135774630Y-110236000D02*
X138176000Y-110236000D01*
X143648630Y-100330000D02*
X142886630Y-101092000D01*
X144780000Y-100330000D02*
X143648630Y-100330000D01*
X142886630Y-101092000D02*
X142748000Y-101092000D01*
X142240000Y-101600000D02*
X142240000Y-106172000D01*
X142748000Y-101092000D02*
X142240000Y-101600000D01*
X138176000Y-110236000D02*
X142240000Y-106172000D01*
G04 #@! TO.N,Net-(R14-Pad1)*
X133350000Y-96520000D02*
X137160000Y-100330000D01*
X133350000Y-95250000D02*
X133350000Y-96520000D01*
X145796000Y-94488000D02*
X143002000Y-94488000D01*
X146304000Y-94996000D02*
X145796000Y-94488000D01*
X143256000Y-106426000D02*
X143256000Y-103124000D01*
X144780000Y-107950000D02*
X143256000Y-106426000D01*
X143256000Y-103124000D02*
X144272000Y-102108000D01*
X144272000Y-102108000D02*
X145796000Y-102108000D01*
X145796000Y-102108000D02*
X146304000Y-101600000D01*
X143002000Y-94488000D02*
X137160000Y-100330000D01*
X146304000Y-101600000D02*
X146304000Y-94996000D01*
G04 #@! TO.N,Net-(R16-Pad1)*
X137160000Y-102870000D02*
X137160000Y-104140000D01*
X133350000Y-99060000D02*
X137160000Y-102870000D01*
X137160000Y-105271370D02*
X137160000Y-107950000D01*
X137160000Y-104140000D02*
X137160000Y-105271370D01*
G04 #@! TO.N,/OSC1*
X111506000Y-88784630D02*
X111506000Y-89916000D01*
X111506000Y-85538038D02*
X111506000Y-88784630D01*
X110490000Y-97790000D02*
X110490000Y-96163655D01*
X110490000Y-96163655D02*
X107696000Y-93369655D01*
X107696000Y-93369655D02*
X107696000Y-83566000D01*
X107696000Y-83566000D02*
X108204000Y-83058000D01*
X108204000Y-83058000D02*
X109025962Y-83058000D01*
X109025962Y-83058000D02*
X111506000Y-85538038D01*
D27*
G04 #@! TO.N,Net-(J9-Pad3)*
X155915360Y-120690640D02*
X156210000Y-120396000D01*
X152146000Y-120396000D02*
X156210000Y-120396000D01*
X144272000Y-121605040D02*
X145481040Y-120396000D01*
X144272000Y-123063000D02*
X144272000Y-121605040D01*
X145481040Y-120396000D02*
X152146000Y-120396000D01*
G04 #@! TO.N,/VF*
X144780000Y-61837370D02*
X147458630Y-64516000D01*
X144780000Y-60706000D02*
X144780000Y-61837370D01*
X147458630Y-64516000D02*
X150622000Y-64516000D01*
X150622000Y-64516000D02*
X156464000Y-70358000D01*
X156464000Y-70358000D02*
X156464000Y-73152000D01*
G04 #@! TO.N,/VPK*
X139954000Y-63246000D02*
X139954000Y-60452000D01*
G04 #@! TO.N,Net-(J10-Pad1)*
X150099276Y-60960000D02*
X147305276Y-58166000D01*
X156464000Y-60960000D02*
X150099276Y-60960000D01*
X139954000Y-55927500D02*
X139954000Y-55880000D01*
X142192500Y-58166000D02*
X139954000Y-55927500D01*
X147305276Y-58166000D02*
X142192500Y-58166000D01*
G04 #@! TO.N,Net-(J3-Pad1)*
X127000000Y-69850000D02*
X127000000Y-56936640D01*
X127000000Y-56936640D02*
X127000000Y-55499000D01*
G04 #@! TD*
D28*
G04 #@! TO.N,GND*
G36*
X153704301Y-52821673D02*
X153525673Y-53000302D01*
X153429000Y-53233691D01*
X153429000Y-54406412D01*
X153422327Y-54390302D01*
X153243699Y-54211673D01*
X153010310Y-54115000D01*
X151669750Y-54115000D01*
X151511000Y-54273750D01*
X151511000Y-57023000D01*
X153360250Y-57023000D01*
X153519000Y-56864250D01*
X153519000Y-56703588D01*
X153525673Y-56719698D01*
X153704301Y-56898327D01*
X153937690Y-56995000D01*
X156178250Y-56995000D01*
X156337000Y-56836250D01*
X156337000Y-54987000D01*
X156591000Y-54987000D01*
X156591000Y-56836250D01*
X156749750Y-56995000D01*
X158990310Y-56995000D01*
X159223699Y-56898327D01*
X159402327Y-56719698D01*
X159499000Y-56486309D01*
X159499000Y-55145750D01*
X159340250Y-54987000D01*
X156591000Y-54987000D01*
X156337000Y-54987000D01*
X156317000Y-54987000D01*
X156317000Y-54733000D01*
X156337000Y-54733000D01*
X156337000Y-54713000D01*
X156591000Y-54713000D01*
X156591000Y-54733000D01*
X159340250Y-54733000D01*
X159499000Y-54574250D01*
X159499000Y-53233691D01*
X159402327Y-53000302D01*
X159223699Y-52821673D01*
X159183447Y-52805000D01*
X160834000Y-52805000D01*
X160834001Y-130100000D01*
X158521464Y-130100000D01*
X158537371Y-130089371D01*
X158579883Y-130025747D01*
X160505750Y-128099881D01*
X160569371Y-128057371D01*
X160737788Y-127805317D01*
X160782000Y-127583048D01*
X160782000Y-127583043D01*
X160796927Y-127508000D01*
X160782000Y-127432957D01*
X160782000Y-95325047D01*
X160796928Y-95250000D01*
X160771300Y-95121161D01*
X160737788Y-94952683D01*
X160569371Y-94700629D01*
X160505749Y-94658118D01*
X157817883Y-91970253D01*
X157775371Y-91906629D01*
X157523317Y-91738212D01*
X157515320Y-91736621D01*
X157280625Y-91385375D01*
X156982239Y-91186000D01*
X157280625Y-90986625D01*
X157392896Y-90818600D01*
X157412081Y-90822416D01*
X157499636Y-90805000D01*
X157499637Y-90805000D01*
X157758951Y-90753419D01*
X158053014Y-90556933D01*
X158102612Y-90482704D01*
X159570707Y-89014610D01*
X159644933Y-88965014D01*
X159841419Y-88670951D01*
X159893000Y-88411637D01*
X159893000Y-88411633D01*
X159910415Y-88324082D01*
X159893000Y-88236531D01*
X159893000Y-77557555D01*
X159910416Y-77470000D01*
X159893000Y-77382444D01*
X159841419Y-77123130D01*
X159644933Y-76829067D01*
X159570707Y-76779471D01*
X158102235Y-75311000D01*
X159570707Y-73842529D01*
X159644933Y-73792933D01*
X159841419Y-73498870D01*
X159893000Y-73239556D01*
X159893000Y-73239552D01*
X159910415Y-73152001D01*
X159893000Y-73064450D01*
X159893000Y-70953556D01*
X159910416Y-70866000D01*
X159841419Y-70519129D01*
X159694529Y-70299293D01*
X159644933Y-70225067D01*
X159570707Y-70175471D01*
X151244235Y-61849000D01*
X153416560Y-61849000D01*
X153416560Y-62460000D01*
X153465843Y-62707765D01*
X153606191Y-62917809D01*
X153816235Y-63058157D01*
X154064000Y-63107440D01*
X158864000Y-63107440D01*
X159111765Y-63058157D01*
X159321809Y-62917809D01*
X159462157Y-62707765D01*
X159511440Y-62460000D01*
X159511440Y-59460000D01*
X159462157Y-59212235D01*
X159321809Y-59002191D01*
X159111765Y-58861843D01*
X158864000Y-58812560D01*
X154064000Y-58812560D01*
X153816235Y-58861843D01*
X153606191Y-59002191D01*
X153519000Y-59132681D01*
X153519000Y-57435750D01*
X153360250Y-57277000D01*
X151511000Y-57277000D01*
X151511000Y-57297000D01*
X151257000Y-57297000D01*
X151257000Y-57277000D01*
X149407750Y-57277000D01*
X149249000Y-57435750D01*
X149249000Y-58852489D01*
X147995807Y-57599296D01*
X147946209Y-57525067D01*
X147652146Y-57328581D01*
X147392832Y-57277000D01*
X147392831Y-57277000D01*
X147305276Y-57259584D01*
X147217721Y-57277000D01*
X145871753Y-57277000D01*
X146178523Y-57072023D01*
X146529391Y-56546910D01*
X146621500Y-56083849D01*
X146621500Y-55676150D01*
X146529391Y-55213089D01*
X146178523Y-54687977D01*
X146082312Y-54623691D01*
X149249000Y-54623691D01*
X149249000Y-56864250D01*
X149407750Y-57023000D01*
X151257000Y-57023000D01*
X151257000Y-54273750D01*
X151098250Y-54115000D01*
X149757690Y-54115000D01*
X149524301Y-54211673D01*
X149345673Y-54390302D01*
X149249000Y-54623691D01*
X146082312Y-54623691D01*
X145653410Y-54337109D01*
X145034000Y-54213900D01*
X144414589Y-54337109D01*
X143889477Y-54687977D01*
X143754841Y-54889474D01*
X143360924Y-54504027D01*
X142866980Y-54289437D01*
X142621000Y-54409406D01*
X142621000Y-55753000D01*
X142641000Y-55753000D01*
X142641000Y-56007000D01*
X142621000Y-56007000D01*
X142621000Y-56027000D01*
X142367000Y-56027000D01*
X142367000Y-56007000D01*
X142347000Y-56007000D01*
X142347000Y-55753000D01*
X142367000Y-55753000D01*
X142367000Y-54409406D01*
X142121020Y-54289437D01*
X141627076Y-54504027D01*
X141501255Y-54627143D01*
X141364309Y-54422191D01*
X141154265Y-54281843D01*
X140906500Y-54232560D01*
X139001500Y-54232560D01*
X138753735Y-54281843D01*
X138543691Y-54422191D01*
X138403343Y-54632235D01*
X138354060Y-54880000D01*
X138354060Y-56880000D01*
X138403343Y-57127765D01*
X138543691Y-57337809D01*
X138753735Y-57478157D01*
X139001500Y-57527440D01*
X140296705Y-57527440D01*
X140808264Y-58039000D01*
X134988236Y-58039000D01*
X129754235Y-52805000D01*
X153744553Y-52805000D01*
X153704301Y-52821673D01*
X153704301Y-52821673D01*
G37*
X153704301Y-52821673D02*
X153525673Y-53000302D01*
X153429000Y-53233691D01*
X153429000Y-54406412D01*
X153422327Y-54390302D01*
X153243699Y-54211673D01*
X153010310Y-54115000D01*
X151669750Y-54115000D01*
X151511000Y-54273750D01*
X151511000Y-57023000D01*
X153360250Y-57023000D01*
X153519000Y-56864250D01*
X153519000Y-56703588D01*
X153525673Y-56719698D01*
X153704301Y-56898327D01*
X153937690Y-56995000D01*
X156178250Y-56995000D01*
X156337000Y-56836250D01*
X156337000Y-54987000D01*
X156591000Y-54987000D01*
X156591000Y-56836250D01*
X156749750Y-56995000D01*
X158990310Y-56995000D01*
X159223699Y-56898327D01*
X159402327Y-56719698D01*
X159499000Y-56486309D01*
X159499000Y-55145750D01*
X159340250Y-54987000D01*
X156591000Y-54987000D01*
X156337000Y-54987000D01*
X156317000Y-54987000D01*
X156317000Y-54733000D01*
X156337000Y-54733000D01*
X156337000Y-54713000D01*
X156591000Y-54713000D01*
X156591000Y-54733000D01*
X159340250Y-54733000D01*
X159499000Y-54574250D01*
X159499000Y-53233691D01*
X159402327Y-53000302D01*
X159223699Y-52821673D01*
X159183447Y-52805000D01*
X160834000Y-52805000D01*
X160834001Y-130100000D01*
X158521464Y-130100000D01*
X158537371Y-130089371D01*
X158579883Y-130025747D01*
X160505750Y-128099881D01*
X160569371Y-128057371D01*
X160737788Y-127805317D01*
X160782000Y-127583048D01*
X160782000Y-127583043D01*
X160796927Y-127508000D01*
X160782000Y-127432957D01*
X160782000Y-95325047D01*
X160796928Y-95250000D01*
X160771300Y-95121161D01*
X160737788Y-94952683D01*
X160569371Y-94700629D01*
X160505749Y-94658118D01*
X157817883Y-91970253D01*
X157775371Y-91906629D01*
X157523317Y-91738212D01*
X157515320Y-91736621D01*
X157280625Y-91385375D01*
X156982239Y-91186000D01*
X157280625Y-90986625D01*
X157392896Y-90818600D01*
X157412081Y-90822416D01*
X157499636Y-90805000D01*
X157499637Y-90805000D01*
X157758951Y-90753419D01*
X158053014Y-90556933D01*
X158102612Y-90482704D01*
X159570707Y-89014610D01*
X159644933Y-88965014D01*
X159841419Y-88670951D01*
X159893000Y-88411637D01*
X159893000Y-88411633D01*
X159910415Y-88324082D01*
X159893000Y-88236531D01*
X159893000Y-77557555D01*
X159910416Y-77470000D01*
X159893000Y-77382444D01*
X159841419Y-77123130D01*
X159644933Y-76829067D01*
X159570707Y-76779471D01*
X158102235Y-75311000D01*
X159570707Y-73842529D01*
X159644933Y-73792933D01*
X159841419Y-73498870D01*
X159893000Y-73239556D01*
X159893000Y-73239552D01*
X159910415Y-73152001D01*
X159893000Y-73064450D01*
X159893000Y-70953556D01*
X159910416Y-70866000D01*
X159841419Y-70519129D01*
X159694529Y-70299293D01*
X159644933Y-70225067D01*
X159570707Y-70175471D01*
X151244235Y-61849000D01*
X153416560Y-61849000D01*
X153416560Y-62460000D01*
X153465843Y-62707765D01*
X153606191Y-62917809D01*
X153816235Y-63058157D01*
X154064000Y-63107440D01*
X158864000Y-63107440D01*
X159111765Y-63058157D01*
X159321809Y-62917809D01*
X159462157Y-62707765D01*
X159511440Y-62460000D01*
X159511440Y-59460000D01*
X159462157Y-59212235D01*
X159321809Y-59002191D01*
X159111765Y-58861843D01*
X158864000Y-58812560D01*
X154064000Y-58812560D01*
X153816235Y-58861843D01*
X153606191Y-59002191D01*
X153519000Y-59132681D01*
X153519000Y-57435750D01*
X153360250Y-57277000D01*
X151511000Y-57277000D01*
X151511000Y-57297000D01*
X151257000Y-57297000D01*
X151257000Y-57277000D01*
X149407750Y-57277000D01*
X149249000Y-57435750D01*
X149249000Y-58852489D01*
X147995807Y-57599296D01*
X147946209Y-57525067D01*
X147652146Y-57328581D01*
X147392832Y-57277000D01*
X147392831Y-57277000D01*
X147305276Y-57259584D01*
X147217721Y-57277000D01*
X145871753Y-57277000D01*
X146178523Y-57072023D01*
X146529391Y-56546910D01*
X146621500Y-56083849D01*
X146621500Y-55676150D01*
X146529391Y-55213089D01*
X146178523Y-54687977D01*
X146082312Y-54623691D01*
X149249000Y-54623691D01*
X149249000Y-56864250D01*
X149407750Y-57023000D01*
X151257000Y-57023000D01*
X151257000Y-54273750D01*
X151098250Y-54115000D01*
X149757690Y-54115000D01*
X149524301Y-54211673D01*
X149345673Y-54390302D01*
X149249000Y-54623691D01*
X146082312Y-54623691D01*
X145653410Y-54337109D01*
X145034000Y-54213900D01*
X144414589Y-54337109D01*
X143889477Y-54687977D01*
X143754841Y-54889474D01*
X143360924Y-54504027D01*
X142866980Y-54289437D01*
X142621000Y-54409406D01*
X142621000Y-55753000D01*
X142641000Y-55753000D01*
X142641000Y-56007000D01*
X142621000Y-56007000D01*
X142621000Y-56027000D01*
X142367000Y-56027000D01*
X142367000Y-56007000D01*
X142347000Y-56007000D01*
X142347000Y-55753000D01*
X142367000Y-55753000D01*
X142367000Y-54409406D01*
X142121020Y-54289437D01*
X141627076Y-54504027D01*
X141501255Y-54627143D01*
X141364309Y-54422191D01*
X141154265Y-54281843D01*
X140906500Y-54232560D01*
X139001500Y-54232560D01*
X138753735Y-54281843D01*
X138543691Y-54422191D01*
X138403343Y-54632235D01*
X138354060Y-54880000D01*
X138354060Y-56880000D01*
X138403343Y-57127765D01*
X138543691Y-57337809D01*
X138753735Y-57478157D01*
X139001500Y-57527440D01*
X140296705Y-57527440D01*
X140808264Y-58039000D01*
X134988236Y-58039000D01*
X129754235Y-52805000D01*
X153744553Y-52805000D01*
X153704301Y-52821673D01*
G36*
X116936447Y-80794143D02*
X117325857Y-81183553D01*
X117558701Y-81280000D01*
X117325857Y-81376447D01*
X116936447Y-81765857D01*
X116725700Y-82274646D01*
X116725700Y-82825354D01*
X116936447Y-83334143D01*
X117325857Y-83723553D01*
X117558701Y-83820000D01*
X117325857Y-83916447D01*
X116936447Y-84305857D01*
X116725700Y-84814646D01*
X116725700Y-85365354D01*
X116936447Y-85874143D01*
X117325857Y-86263553D01*
X117558701Y-86360000D01*
X117325857Y-86456447D01*
X116936447Y-86845857D01*
X116725700Y-87354646D01*
X116725700Y-87905354D01*
X116936447Y-88414143D01*
X117325857Y-88803553D01*
X117542757Y-88893396D01*
X117386499Y-88958120D01*
X117318595Y-89198990D01*
X118110000Y-89990395D01*
X118901405Y-89198990D01*
X118833501Y-88958120D01*
X118665397Y-88898302D01*
X118894143Y-88803553D01*
X119283553Y-88414143D01*
X119494300Y-87905354D01*
X119494300Y-87354646D01*
X119283553Y-86845857D01*
X118894143Y-86456447D01*
X118661299Y-86360000D01*
X118894143Y-86263553D01*
X119283553Y-85874143D01*
X119494300Y-85365354D01*
X119494300Y-84814646D01*
X119485128Y-84792502D01*
X120108591Y-84169039D01*
X124338096Y-84169039D01*
X124498959Y-84557423D01*
X124874866Y-84972389D01*
X125380959Y-85211914D01*
X125603000Y-85090629D01*
X125603000Y-83947000D01*
X125857000Y-83947000D01*
X125857000Y-85090629D01*
X126079041Y-85211914D01*
X126585134Y-84972389D01*
X126961041Y-84557423D01*
X127121904Y-84169039D01*
X126999915Y-83947000D01*
X125857000Y-83947000D01*
X125603000Y-83947000D01*
X124460085Y-83947000D01*
X124338096Y-84169039D01*
X120108591Y-84169039D01*
X121727631Y-82550000D01*
X125123367Y-82550000D01*
X124874866Y-82667611D01*
X124498959Y-83082577D01*
X124338096Y-83470961D01*
X124460085Y-83693000D01*
X125603000Y-83693000D01*
X125603000Y-83673000D01*
X125857000Y-83673000D01*
X125857000Y-83693000D01*
X126999915Y-83693000D01*
X127121904Y-83470961D01*
X126961041Y-83082577D01*
X126585134Y-82667611D01*
X126336633Y-82550000D01*
X132666216Y-82550000D01*
X132537138Y-82603466D01*
X132133466Y-83007138D01*
X131915000Y-83534561D01*
X131915000Y-84105439D01*
X132133466Y-84632862D01*
X132537138Y-85036534D01*
X132588000Y-85057602D01*
X132588001Y-86392398D01*
X132537138Y-86413466D01*
X132133466Y-86817138D01*
X131915000Y-87344561D01*
X131915000Y-87915439D01*
X132133466Y-88442862D01*
X132537138Y-88846534D01*
X133064561Y-89065000D01*
X133635439Y-89065000D01*
X134162862Y-88846534D01*
X134566534Y-88442862D01*
X134587602Y-88392000D01*
X135943293Y-88392000D01*
X136125423Y-88664577D01*
X136600091Y-88981740D01*
X137018667Y-89065000D01*
X137301333Y-89065000D01*
X137719909Y-88981740D01*
X138194577Y-88664577D01*
X138511740Y-88189909D01*
X138623113Y-87630000D01*
X138511740Y-87070091D01*
X138194577Y-86595423D01*
X137719909Y-86278260D01*
X137301333Y-86195000D01*
X137018667Y-86195000D01*
X136600091Y-86278260D01*
X136125423Y-86595423D01*
X135943293Y-86868000D01*
X134587602Y-86868000D01*
X134566534Y-86817138D01*
X134162862Y-86413466D01*
X134112000Y-86392398D01*
X134112000Y-85057602D01*
X134162862Y-85036534D01*
X134566534Y-84632862D01*
X134785000Y-84105439D01*
X134785000Y-83534561D01*
X134566534Y-83007138D01*
X134162862Y-82603466D01*
X134033784Y-82550000D01*
X141416370Y-82550000D01*
X145061369Y-86195000D01*
X144494561Y-86195000D01*
X143967138Y-86413466D01*
X143563466Y-86817138D01*
X143345000Y-87344561D01*
X143345000Y-87915439D01*
X143563466Y-88442862D01*
X143967138Y-88846534D01*
X144018000Y-88867602D01*
X144018001Y-90870370D01*
X143301884Y-90154254D01*
X143259372Y-90090630D01*
X143007318Y-89922213D01*
X142785049Y-89878001D01*
X142785044Y-89878001D01*
X142710001Y-89863074D01*
X142634958Y-89878001D01*
X134225041Y-89878001D01*
X134149998Y-89863074D01*
X134074955Y-89878001D01*
X134074951Y-89878001D01*
X133852682Y-89922213D01*
X133852681Y-89922214D01*
X133852680Y-89922214D01*
X133693061Y-90028868D01*
X133635439Y-90005000D01*
X133064561Y-90005000D01*
X132537138Y-90223466D01*
X132133466Y-90627138D01*
X131915000Y-91154561D01*
X131915000Y-91725439D01*
X132133466Y-92252862D01*
X132537138Y-92656534D01*
X132746935Y-92743435D01*
X131086251Y-94404119D01*
X131022630Y-94446629D01*
X130980119Y-94510251D01*
X130980118Y-94510252D01*
X130854213Y-94698683D01*
X130795073Y-94996000D01*
X130810001Y-95071048D01*
X130810000Y-101016957D01*
X130795073Y-101092000D01*
X130810000Y-101167043D01*
X130810000Y-101167047D01*
X130854212Y-101389316D01*
X131022629Y-101641371D01*
X131086253Y-101683883D01*
X131936068Y-102533698D01*
X131915000Y-102584561D01*
X131915000Y-103155439D01*
X132133466Y-103682862D01*
X132537138Y-104086534D01*
X133064561Y-104305000D01*
X133635439Y-104305000D01*
X134162862Y-104086534D01*
X134566534Y-103682862D01*
X134785000Y-103155439D01*
X134785000Y-102584561D01*
X134566534Y-102057138D01*
X134162862Y-101653466D01*
X133635439Y-101435000D01*
X133064561Y-101435000D01*
X133013698Y-101456068D01*
X132334000Y-100776370D01*
X132334000Y-100073396D01*
X132537138Y-100276534D01*
X133064561Y-100495000D01*
X133635439Y-100495000D01*
X133686302Y-100473932D01*
X136240740Y-103028371D01*
X136125423Y-103105423D01*
X135808260Y-103580091D01*
X135696887Y-104140000D01*
X135808260Y-104699909D01*
X136125423Y-105174577D01*
X136398000Y-105356707D01*
X136398001Y-106712398D01*
X136347138Y-106733466D01*
X135943466Y-107137138D01*
X135725000Y-107664561D01*
X135725000Y-108235439D01*
X135943466Y-108762862D01*
X136347138Y-109166534D01*
X136874561Y-109385000D01*
X137445439Y-109385000D01*
X137972862Y-109166534D01*
X138376534Y-108762862D01*
X138595000Y-108235439D01*
X138595000Y-107664561D01*
X138376534Y-107137138D01*
X137972862Y-106733466D01*
X137922000Y-106712398D01*
X137922000Y-105356707D01*
X138194577Y-105174577D01*
X138511740Y-104699909D01*
X138623113Y-104140000D01*
X138511740Y-103580091D01*
X138194577Y-103105423D01*
X137925820Y-102925845D01*
X137936928Y-102870000D01*
X137903089Y-102699882D01*
X137877788Y-102572683D01*
X137709371Y-102320629D01*
X137645749Y-102278118D01*
X137132631Y-101765000D01*
X137445439Y-101765000D01*
X137972862Y-101546534D01*
X138376534Y-101142862D01*
X138595000Y-100615439D01*
X138595000Y-100044561D01*
X138573932Y-99993698D01*
X143317631Y-95250000D01*
X144096216Y-95250000D01*
X143967138Y-95303466D01*
X143563466Y-95707138D01*
X143345000Y-96234561D01*
X143345000Y-96805439D01*
X143563466Y-97332862D01*
X143967138Y-97736534D01*
X144018000Y-97757602D01*
X144018001Y-99113293D01*
X143745423Y-99295423D01*
X143561716Y-99570360D01*
X143351313Y-99612212D01*
X143099259Y-99780629D01*
X143056748Y-99844251D01*
X142545685Y-100355315D01*
X142450683Y-100374212D01*
X142450682Y-100374213D01*
X142450681Y-100374213D01*
X142428991Y-100388706D01*
X142198629Y-100542629D01*
X142156116Y-100606254D01*
X141754254Y-101008116D01*
X141690629Y-101050629D01*
X141522212Y-101302684D01*
X141478000Y-101524953D01*
X141478000Y-101524957D01*
X141463073Y-101600000D01*
X141478000Y-101675043D01*
X141478001Y-105856368D01*
X137860370Y-109474000D01*
X136090261Y-109474000D01*
X134337828Y-107721568D01*
X134566534Y-107492862D01*
X134785000Y-106965439D01*
X134785000Y-106394561D01*
X134566534Y-105867138D01*
X134162862Y-105463466D01*
X133635439Y-105245000D01*
X133064561Y-105245000D01*
X132537138Y-105463466D01*
X132133466Y-105867138D01*
X131915000Y-106394561D01*
X131915000Y-106965439D01*
X132133466Y-107492862D01*
X132537138Y-107896534D01*
X132594761Y-107920402D01*
X132632213Y-108108687D01*
X132724843Y-108247317D01*
X132800630Y-108360741D01*
X132864251Y-108403251D01*
X133516000Y-109055000D01*
X133064561Y-109055000D01*
X132537138Y-109273466D01*
X132133466Y-109677138D01*
X131915000Y-110204561D01*
X131915000Y-110775439D01*
X132133466Y-111302862D01*
X132537138Y-111706534D01*
X133064561Y-111925000D01*
X133635439Y-111925000D01*
X133693061Y-111901132D01*
X133852680Y-112007786D01*
X133852681Y-112007786D01*
X133852682Y-112007787D01*
X134074951Y-112051999D01*
X134074955Y-112051999D01*
X134149998Y-112066926D01*
X134225041Y-112051999D01*
X144666958Y-112051999D01*
X144742001Y-112066926D01*
X144817044Y-112051999D01*
X144817049Y-112051999D01*
X145039318Y-112007787D01*
X145291372Y-111839370D01*
X145333884Y-111775746D01*
X147043750Y-110065881D01*
X147107371Y-110023371D01*
X147149882Y-109959749D01*
X147275787Y-109771319D01*
X147275787Y-109771318D01*
X147275788Y-109771317D01*
X147320000Y-109549048D01*
X147320000Y-109549044D01*
X147334927Y-109474001D01*
X147320000Y-109398958D01*
X147320000Y-105993047D01*
X147334928Y-105918000D01*
X147315582Y-105820741D01*
X147275788Y-105620683D01*
X147107371Y-105368629D01*
X147043749Y-105326118D01*
X146193932Y-104476302D01*
X146215000Y-104425439D01*
X146215000Y-103854561D01*
X145996534Y-103327138D01*
X145592862Y-102923466D01*
X145463784Y-102870000D01*
X145720957Y-102870000D01*
X145796000Y-102884927D01*
X145871043Y-102870000D01*
X145871048Y-102870000D01*
X146093317Y-102825788D01*
X146345371Y-102657371D01*
X146387884Y-102593746D01*
X146789747Y-102191883D01*
X146853371Y-102149371D01*
X147021788Y-101897317D01*
X147066000Y-101675048D01*
X147066000Y-101675044D01*
X147080927Y-101600001D01*
X147066000Y-101524958D01*
X147066000Y-95071042D01*
X147080927Y-94995999D01*
X147066000Y-94920956D01*
X147066000Y-94920952D01*
X147021788Y-94698683D01*
X147021190Y-94697787D01*
X146910556Y-94532213D01*
X146853371Y-94446629D01*
X146789746Y-94404116D01*
X146387884Y-94002254D01*
X146345371Y-93938629D01*
X146093317Y-93770212D01*
X145871048Y-93726000D01*
X145871043Y-93726000D01*
X145832158Y-93718265D01*
X146131740Y-93269909D01*
X146243113Y-92710000D01*
X146131740Y-92150091D01*
X145814577Y-91675423D01*
X145542000Y-91493293D01*
X145542000Y-88975047D01*
X145586212Y-89197316D01*
X145754629Y-89449371D01*
X145818253Y-89491883D01*
X154348118Y-98021749D01*
X154390629Y-98085371D01*
X154454251Y-98127882D01*
X154642681Y-98253787D01*
X154642682Y-98253787D01*
X154642683Y-98253788D01*
X154864952Y-98298000D01*
X154864956Y-98298000D01*
X154939999Y-98312927D01*
X154942765Y-98312377D01*
X155139375Y-98606625D01*
X155437761Y-98806000D01*
X155139375Y-99005375D01*
X154811161Y-99496582D01*
X154695908Y-100076000D01*
X154811161Y-100655418D01*
X155139375Y-101146625D01*
X155437761Y-101346000D01*
X155139375Y-101545375D01*
X154811161Y-102036582D01*
X154695908Y-102616000D01*
X154811161Y-103195418D01*
X155139375Y-103686625D01*
X155437761Y-103886000D01*
X155139375Y-104085375D01*
X154811161Y-104576582D01*
X154695908Y-105156000D01*
X154811161Y-105735418D01*
X155139375Y-106226625D01*
X155437761Y-106426000D01*
X155139375Y-106625375D01*
X154811161Y-107116582D01*
X154695908Y-107696000D01*
X154811161Y-108275418D01*
X155139375Y-108766625D01*
X155437761Y-108966000D01*
X155139375Y-109165375D01*
X154811161Y-109656582D01*
X154695908Y-110236000D01*
X154811161Y-110815418D01*
X155139375Y-111306625D01*
X155437761Y-111506000D01*
X155139375Y-111705375D01*
X154811161Y-112196582D01*
X154695908Y-112776000D01*
X154811161Y-113355418D01*
X155139375Y-113846625D01*
X155437761Y-114046000D01*
X155139375Y-114245375D01*
X154811161Y-114736582D01*
X154695908Y-115316000D01*
X154811161Y-115895418D01*
X155139375Y-116386625D01*
X155437761Y-116586000D01*
X155139375Y-116785375D01*
X154811161Y-117276582D01*
X154695908Y-117856000D01*
X154811161Y-118435418D01*
X155139375Y-118926625D01*
X155437761Y-119126000D01*
X155139375Y-119325375D01*
X155018017Y-119507000D01*
X145568595Y-119507000D01*
X145481040Y-119489584D01*
X145393485Y-119507000D01*
X145393484Y-119507000D01*
X145134170Y-119558581D01*
X144840107Y-119755067D01*
X144790511Y-119829293D01*
X143705294Y-120914511D01*
X143631068Y-120964107D01*
X143581472Y-121038333D01*
X143581471Y-121038334D01*
X143434582Y-121258170D01*
X143365584Y-121605040D01*
X143383001Y-121692599D01*
X143383001Y-121791211D01*
X143273061Y-121864670D01*
X143022320Y-122239930D01*
X142771580Y-121864670D01*
X142313262Y-121558432D01*
X141772640Y-121450896D01*
X141232019Y-121558432D01*
X140773701Y-121864670D01*
X140467462Y-122322988D01*
X140387070Y-122727147D01*
X140387070Y-123390724D01*
X138936795Y-124841000D01*
X135760396Y-124841000D01*
X135432862Y-124513466D01*
X134905439Y-124295000D01*
X134334561Y-124295000D01*
X133807138Y-124513466D01*
X133403466Y-124917138D01*
X133185000Y-125444561D01*
X133185000Y-126015439D01*
X133403466Y-126542862D01*
X133807138Y-126946534D01*
X134334561Y-127165000D01*
X134905439Y-127165000D01*
X135432862Y-126946534D01*
X135760396Y-126619000D01*
X139217475Y-126619000D01*
X139305030Y-126636416D01*
X139392585Y-126619000D01*
X139392586Y-126619000D01*
X139651900Y-126567419D01*
X139945963Y-126370933D01*
X139995561Y-126296704D01*
X140530515Y-125761750D01*
X154725000Y-125761750D01*
X154725000Y-126452310D01*
X154821673Y-126685699D01*
X155000302Y-126864327D01*
X155233691Y-126961000D01*
X155924250Y-126961000D01*
X156083000Y-126802250D01*
X156083000Y-125603000D01*
X156337000Y-125603000D01*
X156337000Y-126802250D01*
X156495750Y-126961000D01*
X157186309Y-126961000D01*
X157419698Y-126864327D01*
X157598327Y-126685699D01*
X157695000Y-126452310D01*
X157695000Y-125761750D01*
X157536250Y-125603000D01*
X156337000Y-125603000D01*
X156083000Y-125603000D01*
X154883750Y-125603000D01*
X154725000Y-125761750D01*
X140530515Y-125761750D01*
X141642957Y-124649309D01*
X141772640Y-124675104D01*
X141902323Y-124649308D01*
X142660721Y-125407707D01*
X142710317Y-125481933D01*
X142784543Y-125531529D01*
X143004379Y-125678419D01*
X143351250Y-125747416D01*
X143438806Y-125730000D01*
X151042445Y-125730000D01*
X151130000Y-125747416D01*
X151217555Y-125730000D01*
X151217556Y-125730000D01*
X151476870Y-125678419D01*
X151770933Y-125481933D01*
X151820531Y-125407704D01*
X153403236Y-123825000D01*
X155018017Y-123825000D01*
X155139375Y-124006625D01*
X155161033Y-124021096D01*
X155000302Y-124087673D01*
X154821673Y-124266301D01*
X154725000Y-124499690D01*
X154725000Y-125190250D01*
X154883750Y-125349000D01*
X156083000Y-125349000D01*
X156083000Y-125329000D01*
X156337000Y-125329000D01*
X156337000Y-125349000D01*
X157536250Y-125349000D01*
X157695000Y-125190250D01*
X157695000Y-124499690D01*
X157598327Y-124266301D01*
X157419698Y-124087673D01*
X157258967Y-124021096D01*
X157280625Y-124006625D01*
X157608839Y-123515418D01*
X157724092Y-122936000D01*
X157681477Y-122721758D01*
X159258000Y-121145236D01*
X159258000Y-127192369D01*
X157672370Y-128778000D01*
X88707631Y-128778000D01*
X88082163Y-128152532D01*
X90317073Y-128152532D01*
X90415736Y-128419387D01*
X91025461Y-128645908D01*
X91675460Y-128621856D01*
X92164264Y-128419387D01*
X92262927Y-128152532D01*
X96817073Y-128152532D01*
X96915736Y-128419387D01*
X97525461Y-128645908D01*
X98175460Y-128621856D01*
X98664264Y-128419387D01*
X98762927Y-128152532D01*
X97790000Y-127179605D01*
X96817073Y-128152532D01*
X92262927Y-128152532D01*
X91290000Y-127179605D01*
X90317073Y-128152532D01*
X88082163Y-128152532D01*
X87884000Y-127954370D01*
X87884000Y-126735461D01*
X89644092Y-126735461D01*
X89668144Y-127385460D01*
X89870613Y-127874264D01*
X90137468Y-127972927D01*
X91110395Y-127000000D01*
X91469605Y-127000000D01*
X92442532Y-127972927D01*
X92709387Y-127874264D01*
X92935908Y-127264539D01*
X92916331Y-126735461D01*
X96144092Y-126735461D01*
X96168144Y-127385460D01*
X96370613Y-127874264D01*
X96637468Y-127972927D01*
X97610395Y-127000000D01*
X97969605Y-127000000D01*
X98942532Y-127972927D01*
X99209387Y-127874264D01*
X99435908Y-127264539D01*
X99411856Y-126614540D01*
X99209387Y-126125736D01*
X98942532Y-126027073D01*
X97969605Y-127000000D01*
X97610395Y-127000000D01*
X96637468Y-126027073D01*
X96370613Y-126125736D01*
X96144092Y-126735461D01*
X92916331Y-126735461D01*
X92911856Y-126614540D01*
X92709387Y-126125736D01*
X92442532Y-126027073D01*
X91469605Y-127000000D01*
X91110395Y-127000000D01*
X90137468Y-126027073D01*
X89870613Y-126125736D01*
X89644092Y-126735461D01*
X87884000Y-126735461D01*
X87884000Y-125847468D01*
X90317073Y-125847468D01*
X91290000Y-126820395D01*
X92262927Y-125847468D01*
X96817073Y-125847468D01*
X97790000Y-126820395D01*
X98762927Y-125847468D01*
X98664264Y-125580613D01*
X98054539Y-125354092D01*
X97404540Y-125378144D01*
X96915736Y-125580613D01*
X96817073Y-125847468D01*
X92262927Y-125847468D01*
X92164264Y-125580613D01*
X91554539Y-125354092D01*
X90904540Y-125378144D01*
X90415736Y-125580613D01*
X90317073Y-125847468D01*
X87884000Y-125847468D01*
X87884000Y-117196890D01*
X88728524Y-117196890D01*
X88898355Y-117606924D01*
X89288642Y-118035183D01*
X89813108Y-118281486D01*
X90043000Y-118160819D01*
X90043000Y-116967000D01*
X90297000Y-116967000D01*
X90297000Y-118160819D01*
X90526892Y-118281486D01*
X91051358Y-118035183D01*
X91441645Y-117606924D01*
X91611476Y-117196890D01*
X91490155Y-116967000D01*
X90297000Y-116967000D01*
X90043000Y-116967000D01*
X88849845Y-116967000D01*
X88728524Y-117196890D01*
X87884000Y-117196890D01*
X87884000Y-114656890D01*
X88728524Y-114656890D01*
X88898355Y-115066924D01*
X89288642Y-115495183D01*
X89447954Y-115570000D01*
X89288642Y-115644817D01*
X88898355Y-116073076D01*
X88728524Y-116483110D01*
X88849845Y-116713000D01*
X90043000Y-116713000D01*
X90043000Y-114427000D01*
X90297000Y-114427000D01*
X90297000Y-116713000D01*
X91490155Y-116713000D01*
X91611476Y-116483110D01*
X91441645Y-116073076D01*
X91051358Y-115644817D01*
X90892046Y-115570000D01*
X91051358Y-115495183D01*
X91441645Y-115066924D01*
X91611476Y-114656890D01*
X91490155Y-114427000D01*
X90297000Y-114427000D01*
X90043000Y-114427000D01*
X88849845Y-114427000D01*
X88728524Y-114656890D01*
X87884000Y-114656890D01*
X87884000Y-112116890D01*
X88728524Y-112116890D01*
X88898355Y-112526924D01*
X89288642Y-112955183D01*
X89447954Y-113030000D01*
X89288642Y-113104817D01*
X88898355Y-113533076D01*
X88728524Y-113943110D01*
X88849845Y-114173000D01*
X90043000Y-114173000D01*
X90043000Y-111887000D01*
X90297000Y-111887000D01*
X90297000Y-114173000D01*
X91490155Y-114173000D01*
X91611476Y-113943110D01*
X91441645Y-113533076D01*
X91051358Y-113104817D01*
X90892046Y-113030000D01*
X91051358Y-112955183D01*
X91441645Y-112526924D01*
X91611476Y-112116890D01*
X91490155Y-111887000D01*
X90297000Y-111887000D01*
X90043000Y-111887000D01*
X88849845Y-111887000D01*
X88728524Y-112116890D01*
X87884000Y-112116890D01*
X87884000Y-109576890D01*
X88728524Y-109576890D01*
X88898355Y-109986924D01*
X89288642Y-110415183D01*
X89447954Y-110490000D01*
X89288642Y-110564817D01*
X88898355Y-110993076D01*
X88728524Y-111403110D01*
X88849845Y-111633000D01*
X90043000Y-111633000D01*
X90043000Y-109347000D01*
X90297000Y-109347000D01*
X90297000Y-111633000D01*
X91490155Y-111633000D01*
X91611476Y-111403110D01*
X91441645Y-110993076D01*
X91051358Y-110564817D01*
X90892046Y-110490000D01*
X91051358Y-110415183D01*
X91441645Y-109986924D01*
X91611476Y-109576890D01*
X91490155Y-109347000D01*
X90297000Y-109347000D01*
X90043000Y-109347000D01*
X88849845Y-109347000D01*
X88728524Y-109576890D01*
X87884000Y-109576890D01*
X87884000Y-107036890D01*
X88728524Y-107036890D01*
X88898355Y-107446924D01*
X89288642Y-107875183D01*
X89447954Y-107950000D01*
X89288642Y-108024817D01*
X88898355Y-108453076D01*
X88728524Y-108863110D01*
X88849845Y-109093000D01*
X90043000Y-109093000D01*
X90043000Y-106807000D01*
X90297000Y-106807000D01*
X90297000Y-109093000D01*
X91490155Y-109093000D01*
X91611476Y-108863110D01*
X91441645Y-108453076D01*
X91051358Y-108024817D01*
X90892046Y-107950000D01*
X91051358Y-107875183D01*
X91441645Y-107446924D01*
X91611476Y-107036890D01*
X91490155Y-106807000D01*
X90297000Y-106807000D01*
X90043000Y-106807000D01*
X88849845Y-106807000D01*
X88728524Y-107036890D01*
X87884000Y-107036890D01*
X87884000Y-104433005D01*
X87928213Y-104655279D01*
X87950993Y-104689371D01*
X88096630Y-104907333D01*
X88160251Y-104949843D01*
X89005697Y-105795290D01*
X88898355Y-105913076D01*
X88728524Y-106323110D01*
X88849845Y-106553000D01*
X90043000Y-106553000D01*
X90043000Y-106533000D01*
X90297000Y-106533000D01*
X90297000Y-106553000D01*
X91490155Y-106553000D01*
X91611476Y-106323110D01*
X91548888Y-106172000D01*
X92566955Y-106172000D01*
X92465908Y-106680000D01*
X92581161Y-107259418D01*
X92909375Y-107750625D01*
X93091000Y-107871983D01*
X93091001Y-108028017D01*
X92909375Y-108149375D01*
X92581161Y-108640582D01*
X92465908Y-109220000D01*
X92581161Y-109799418D01*
X92909375Y-110290625D01*
X93091000Y-110411983D01*
X93091001Y-110568017D01*
X92909375Y-110689375D01*
X92581161Y-111180582D01*
X92465908Y-111760000D01*
X92581161Y-112339418D01*
X92909375Y-112830625D01*
X93091001Y-112951983D01*
X93091000Y-113108017D01*
X92909375Y-113229375D01*
X92581161Y-113720582D01*
X92465908Y-114300000D01*
X92581161Y-114879418D01*
X92909375Y-115370625D01*
X93091001Y-115491983D01*
X93091000Y-115648017D01*
X92909375Y-115769375D01*
X92581161Y-116260582D01*
X92465908Y-116840000D01*
X92581161Y-117419418D01*
X92909375Y-117910625D01*
X93400582Y-118238839D01*
X93833744Y-118325000D01*
X94126256Y-118325000D01*
X94559418Y-118238839D01*
X95050625Y-117910625D01*
X95171983Y-117729000D01*
X99231765Y-117729000D01*
X103640389Y-122137625D01*
X103625000Y-122174778D01*
X103625000Y-122825222D01*
X103873914Y-123426153D01*
X104333847Y-123886086D01*
X104934778Y-124135000D01*
X105585222Y-124135000D01*
X106186153Y-123886086D01*
X106646086Y-123426153D01*
X106661475Y-123389000D01*
X110358525Y-123389000D01*
X110373914Y-123426153D01*
X110833847Y-123886086D01*
X111434778Y-124135000D01*
X112085222Y-124135000D01*
X112122375Y-124119611D01*
X112716764Y-124714000D01*
X101081631Y-124714000D01*
X99357005Y-122989375D01*
X99425000Y-122825222D01*
X99425000Y-122174778D01*
X99176086Y-121573847D01*
X98716153Y-121113914D01*
X98115222Y-120865000D01*
X97464778Y-120865000D01*
X96863847Y-121113914D01*
X96403914Y-121573847D01*
X96335920Y-121738000D01*
X92744080Y-121738000D01*
X92676086Y-121573847D01*
X92216153Y-121113914D01*
X91615222Y-120865000D01*
X90964778Y-120865000D01*
X90363847Y-121113914D01*
X89903914Y-121573847D01*
X89655000Y-122174778D01*
X89655000Y-122825222D01*
X89903914Y-123426153D01*
X90363847Y-123886086D01*
X90964778Y-124135000D01*
X91615222Y-124135000D01*
X92216153Y-123886086D01*
X92676086Y-123426153D01*
X92744080Y-123262000D01*
X96335920Y-123262000D01*
X96403914Y-123426153D01*
X96863847Y-123886086D01*
X97464778Y-124135000D01*
X98115222Y-124135000D01*
X98279375Y-124067005D01*
X100174118Y-125961749D01*
X100216629Y-126025371D01*
X100280251Y-126067882D01*
X100293703Y-126076870D01*
X100468683Y-126193788D01*
X100690952Y-126238000D01*
X100690953Y-126238000D01*
X100766000Y-126252928D01*
X100841047Y-126238000D01*
X103805920Y-126238000D01*
X103625000Y-126674778D01*
X103625000Y-127325222D01*
X103873914Y-127926153D01*
X104333847Y-128386086D01*
X104934778Y-128635000D01*
X105585222Y-128635000D01*
X106186153Y-128386086D01*
X106646086Y-127926153D01*
X106714080Y-127762000D01*
X110305920Y-127762000D01*
X110373914Y-127926153D01*
X110833847Y-128386086D01*
X111434778Y-128635000D01*
X112085222Y-128635000D01*
X112241749Y-128570164D01*
X112274250Y-128591881D01*
X112462680Y-128717786D01*
X112462681Y-128717786D01*
X112462682Y-128717787D01*
X112684951Y-128761999D01*
X112684955Y-128761999D01*
X112759998Y-128776926D01*
X112835041Y-128761999D01*
X119320958Y-128761999D01*
X119396001Y-128776926D01*
X119471044Y-128761999D01*
X119471049Y-128761999D01*
X119693318Y-128717787D01*
X119945372Y-128549370D01*
X119987884Y-128485746D01*
X121555952Y-126917679D01*
X121773744Y-126961000D01*
X122066256Y-126961000D01*
X122499418Y-126874839D01*
X122990625Y-126546625D01*
X123318839Y-126055418D01*
X123383568Y-125730000D01*
X125536887Y-125730000D01*
X125648260Y-126289909D01*
X125965423Y-126764577D01*
X126440091Y-127081740D01*
X126858667Y-127165000D01*
X127141333Y-127165000D01*
X127559909Y-127081740D01*
X128034577Y-126764577D01*
X128351740Y-126289909D01*
X128463113Y-125730000D01*
X128351740Y-125170091D01*
X128034577Y-124695423D01*
X127559909Y-124378260D01*
X127141333Y-124295000D01*
X126858667Y-124295000D01*
X126440091Y-124378260D01*
X125965423Y-124695423D01*
X125648260Y-125170091D01*
X125536887Y-125730000D01*
X123383568Y-125730000D01*
X123434092Y-125476000D01*
X123361679Y-125111952D01*
X125770960Y-122702671D01*
X125783466Y-122732862D01*
X126187138Y-123136534D01*
X126714561Y-123355000D01*
X127285439Y-123355000D01*
X127812862Y-123136534D01*
X128216534Y-122732862D01*
X128408655Y-122269039D01*
X133228096Y-122269039D01*
X133388959Y-122657423D01*
X133764866Y-123072389D01*
X134270959Y-123311914D01*
X134493000Y-123190629D01*
X134493000Y-122047000D01*
X134747000Y-122047000D01*
X134747000Y-123190629D01*
X134969041Y-123311914D01*
X135475134Y-123072389D01*
X135851041Y-122657423D01*
X136011904Y-122269039D01*
X135889915Y-122047000D01*
X134747000Y-122047000D01*
X134493000Y-122047000D01*
X133350085Y-122047000D01*
X133228096Y-122269039D01*
X128408655Y-122269039D01*
X128435000Y-122205439D01*
X128435000Y-121634561D01*
X128408656Y-121570961D01*
X133228096Y-121570961D01*
X133350085Y-121793000D01*
X134493000Y-121793000D01*
X134493000Y-120649371D01*
X134747000Y-120649371D01*
X134747000Y-121793000D01*
X135889915Y-121793000D01*
X136011904Y-121570961D01*
X135851041Y-121182577D01*
X135475134Y-120767611D01*
X134969041Y-120528086D01*
X134747000Y-120649371D01*
X134493000Y-120649371D01*
X134270959Y-120528086D01*
X133764866Y-120767611D01*
X133388959Y-121182577D01*
X133228096Y-121570961D01*
X128408656Y-121570961D01*
X128216534Y-121107138D01*
X127812862Y-120703466D01*
X127285439Y-120485000D01*
X126714561Y-120485000D01*
X126187138Y-120703466D01*
X125783466Y-121107138D01*
X125762398Y-121158000D01*
X125551042Y-121158000D01*
X125475999Y-121143073D01*
X125400956Y-121158000D01*
X125400952Y-121158000D01*
X125178683Y-121202212D01*
X125178682Y-121202213D01*
X125178681Y-121202213D01*
X125058330Y-121282629D01*
X124926629Y-121370629D01*
X124884118Y-121434251D01*
X123417440Y-122900929D01*
X123417440Y-122086000D01*
X123368157Y-121838235D01*
X123227809Y-121628191D01*
X123017765Y-121487843D01*
X122770000Y-121438560D01*
X122682000Y-121438560D01*
X122682000Y-114375047D01*
X122696928Y-114300000D01*
X122671666Y-114173000D01*
X122637788Y-114002683D01*
X122553448Y-113876459D01*
X122511882Y-113814251D01*
X122469371Y-113750629D01*
X122405749Y-113708118D01*
X119485128Y-110787498D01*
X119494300Y-110765354D01*
X119494300Y-110411930D01*
X120058116Y-110975746D01*
X120100629Y-111039371D01*
X120219903Y-111119067D01*
X120352681Y-111207787D01*
X120352682Y-111207787D01*
X120352683Y-111207788D01*
X120574952Y-111252000D01*
X120574956Y-111252000D01*
X120649999Y-111266927D01*
X120725042Y-111252000D01*
X124513293Y-111252000D01*
X124695423Y-111524577D01*
X125170091Y-111841740D01*
X125588667Y-111925000D01*
X125871333Y-111925000D01*
X126289909Y-111841740D01*
X126764577Y-111524577D01*
X127081740Y-111049909D01*
X127193113Y-110490000D01*
X127081740Y-109930091D01*
X126764577Y-109455423D01*
X126289909Y-109138260D01*
X125871333Y-109055000D01*
X125588667Y-109055000D01*
X125170091Y-109138260D01*
X124695423Y-109455423D01*
X124513293Y-109728000D01*
X120965630Y-109728000D01*
X119485128Y-108247498D01*
X119494300Y-108225354D01*
X119494300Y-107674646D01*
X119402282Y-107452495D01*
X119455042Y-107442000D01*
X124513293Y-107442000D01*
X124695423Y-107714577D01*
X125170091Y-108031740D01*
X125588667Y-108115000D01*
X125871333Y-108115000D01*
X126289909Y-108031740D01*
X126764577Y-107714577D01*
X127081740Y-107239909D01*
X127193113Y-106680000D01*
X127081740Y-106120091D01*
X126764577Y-105645423D01*
X126289909Y-105328260D01*
X125871333Y-105245000D01*
X125588667Y-105245000D01*
X125170091Y-105328260D01*
X124695423Y-105645423D01*
X124513293Y-105918000D01*
X119695631Y-105918000D01*
X119485128Y-105707497D01*
X119494300Y-105685354D01*
X119494300Y-105134646D01*
X119283553Y-104625857D01*
X118894143Y-104236447D01*
X118661299Y-104140000D01*
X118894143Y-104043553D01*
X119283553Y-103654143D01*
X119292725Y-103632000D01*
X124513293Y-103632000D01*
X124695423Y-103904577D01*
X125170091Y-104221740D01*
X125588667Y-104305000D01*
X125871333Y-104305000D01*
X126289909Y-104221740D01*
X126764577Y-103904577D01*
X127081740Y-103429909D01*
X127193113Y-102870000D01*
X127081740Y-102310091D01*
X126764577Y-101835423D01*
X126289909Y-101518260D01*
X125871333Y-101435000D01*
X125588667Y-101435000D01*
X125170091Y-101518260D01*
X124695423Y-101835423D01*
X124513293Y-102108000D01*
X119292725Y-102108000D01*
X119283553Y-102085857D01*
X118894143Y-101696447D01*
X118661299Y-101600000D01*
X118894143Y-101503553D01*
X119283553Y-101114143D01*
X119494300Y-100605354D01*
X119494300Y-100054646D01*
X119485128Y-100032503D01*
X119695631Y-99822000D01*
X124513293Y-99822000D01*
X124695423Y-100094577D01*
X125170091Y-100411740D01*
X125588667Y-100495000D01*
X125871333Y-100495000D01*
X126289909Y-100411740D01*
X126764577Y-100094577D01*
X127081740Y-99619909D01*
X127193113Y-99060000D01*
X127081740Y-98500091D01*
X126764577Y-98025423D01*
X126289909Y-97708260D01*
X125871333Y-97625000D01*
X125588667Y-97625000D01*
X125170091Y-97708260D01*
X124695423Y-98025423D01*
X124513293Y-98298000D01*
X123767014Y-98298000D01*
X123781884Y-98275746D01*
X125408473Y-96649157D01*
X125588667Y-96685000D01*
X125871333Y-96685000D01*
X126289909Y-96601740D01*
X126764577Y-96284577D01*
X127081740Y-95809909D01*
X127193113Y-95250000D01*
X127081740Y-94690091D01*
X126764577Y-94215423D01*
X126289909Y-93898260D01*
X125871333Y-93815000D01*
X125588667Y-93815000D01*
X125170091Y-93898260D01*
X124695423Y-94215423D01*
X124378260Y-94690091D01*
X124266887Y-95250000D01*
X124330843Y-95571527D01*
X122874370Y-97028000D01*
X119292725Y-97028000D01*
X119283553Y-97005857D01*
X118894143Y-96616447D01*
X118661299Y-96520000D01*
X118894143Y-96423553D01*
X119283553Y-96034143D01*
X119494300Y-95525354D01*
X119494300Y-95262701D01*
X122594256Y-95262701D01*
X122669299Y-95277628D01*
X122744342Y-95262701D01*
X122744347Y-95262701D01*
X122966616Y-95218489D01*
X123218670Y-95050072D01*
X123261182Y-94986448D01*
X125408474Y-92839157D01*
X125588667Y-92875000D01*
X125871333Y-92875000D01*
X126289909Y-92791740D01*
X126764577Y-92474577D01*
X127081740Y-91999909D01*
X127193113Y-91440000D01*
X127081740Y-90880091D01*
X126764577Y-90405423D01*
X126289909Y-90088260D01*
X125871333Y-90005000D01*
X125588667Y-90005000D01*
X125170091Y-90088260D01*
X124695423Y-90405423D01*
X124378260Y-90880091D01*
X124266887Y-91440000D01*
X124330843Y-91761526D01*
X122353669Y-93738701D01*
X119038995Y-93738701D01*
X119283553Y-93494143D01*
X119292725Y-93472000D01*
X120574957Y-93472000D01*
X120650000Y-93486927D01*
X120725043Y-93472000D01*
X120725048Y-93472000D01*
X120947317Y-93427788D01*
X121199371Y-93259371D01*
X121241883Y-93195747D01*
X125408474Y-89029157D01*
X125588667Y-89065000D01*
X125871333Y-89065000D01*
X126289909Y-88981740D01*
X126764577Y-88664577D01*
X127081740Y-88189909D01*
X127193113Y-87630000D01*
X127081740Y-87070091D01*
X126764577Y-86595423D01*
X126289909Y-86278260D01*
X125871333Y-86195000D01*
X125588667Y-86195000D01*
X125170091Y-86278260D01*
X124695423Y-86595423D01*
X124378260Y-87070091D01*
X124266887Y-87630000D01*
X124330843Y-87951526D01*
X120334370Y-91948000D01*
X119292725Y-91948000D01*
X119283553Y-91925857D01*
X118894143Y-91536447D01*
X118677243Y-91446604D01*
X118833501Y-91381880D01*
X118901405Y-91141010D01*
X118110000Y-90349605D01*
X117318595Y-91141010D01*
X117386499Y-91381880D01*
X117554603Y-91441698D01*
X117325857Y-91536447D01*
X116936447Y-91925857D01*
X116725700Y-92434646D01*
X116725700Y-92985354D01*
X116936447Y-93494143D01*
X117325857Y-93883553D01*
X117558701Y-93980000D01*
X117325857Y-94076447D01*
X116936447Y-94465857D01*
X116725700Y-94974646D01*
X116725700Y-95328069D01*
X113538000Y-92140370D01*
X113538000Y-91272666D01*
X113789223Y-91362965D01*
X114359454Y-91335778D01*
X114760005Y-91169864D01*
X114834139Y-90923745D01*
X114006000Y-90095605D01*
X113991858Y-90109748D01*
X113812253Y-89930143D01*
X113826395Y-89916000D01*
X114185605Y-89916000D01*
X115013745Y-90744139D01*
X115259864Y-90670005D01*
X115452965Y-90132777D01*
X115444983Y-89965339D01*
X116713497Y-89965339D01*
X116741479Y-90515336D01*
X116898120Y-90893501D01*
X117138990Y-90961405D01*
X117930395Y-90170000D01*
X118289605Y-90170000D01*
X119081010Y-90961405D01*
X119321880Y-90893501D01*
X119506503Y-90374661D01*
X119478521Y-89824664D01*
X119321880Y-89446499D01*
X119081010Y-89378595D01*
X118289605Y-90170000D01*
X117930395Y-90170000D01*
X117138990Y-89378595D01*
X116898120Y-89446499D01*
X116713497Y-89965339D01*
X115444983Y-89965339D01*
X115425778Y-89562546D01*
X115259864Y-89161995D01*
X115013745Y-89087861D01*
X114185605Y-89916000D01*
X113826395Y-89916000D01*
X113812253Y-89901858D01*
X113991858Y-89722252D01*
X114006000Y-89736395D01*
X114834139Y-88908255D01*
X114760005Y-88662136D01*
X114222777Y-88469035D01*
X113652546Y-88496222D01*
X113538000Y-88543669D01*
X113538000Y-85927042D01*
X113552927Y-85851999D01*
X113538000Y-85776956D01*
X113538000Y-85776952D01*
X113493788Y-85554683D01*
X113432522Y-85462991D01*
X113367882Y-85366251D01*
X113325371Y-85302629D01*
X113261749Y-85260118D01*
X109811883Y-81810253D01*
X109769371Y-81746629D01*
X109517317Y-81578212D01*
X109295048Y-81534000D01*
X109295043Y-81534000D01*
X109220000Y-81519073D01*
X109144957Y-81534000D01*
X108397711Y-81534000D01*
X108282280Y-81418569D01*
X108262327Y-81410304D01*
X108900631Y-80772000D01*
X116927275Y-80772000D01*
X116936447Y-80794143D01*
X116936447Y-80794143D01*
G37*
X116936447Y-80794143D02*
X117325857Y-81183553D01*
X117558701Y-81280000D01*
X117325857Y-81376447D01*
X116936447Y-81765857D01*
X116725700Y-82274646D01*
X116725700Y-82825354D01*
X116936447Y-83334143D01*
X117325857Y-83723553D01*
X117558701Y-83820000D01*
X117325857Y-83916447D01*
X116936447Y-84305857D01*
X116725700Y-84814646D01*
X116725700Y-85365354D01*
X116936447Y-85874143D01*
X117325857Y-86263553D01*
X117558701Y-86360000D01*
X117325857Y-86456447D01*
X116936447Y-86845857D01*
X116725700Y-87354646D01*
X116725700Y-87905354D01*
X116936447Y-88414143D01*
X117325857Y-88803553D01*
X117542757Y-88893396D01*
X117386499Y-88958120D01*
X117318595Y-89198990D01*
X118110000Y-89990395D01*
X118901405Y-89198990D01*
X118833501Y-88958120D01*
X118665397Y-88898302D01*
X118894143Y-88803553D01*
X119283553Y-88414143D01*
X119494300Y-87905354D01*
X119494300Y-87354646D01*
X119283553Y-86845857D01*
X118894143Y-86456447D01*
X118661299Y-86360000D01*
X118894143Y-86263553D01*
X119283553Y-85874143D01*
X119494300Y-85365354D01*
X119494300Y-84814646D01*
X119485128Y-84792502D01*
X120108591Y-84169039D01*
X124338096Y-84169039D01*
X124498959Y-84557423D01*
X124874866Y-84972389D01*
X125380959Y-85211914D01*
X125603000Y-85090629D01*
X125603000Y-83947000D01*
X125857000Y-83947000D01*
X125857000Y-85090629D01*
X126079041Y-85211914D01*
X126585134Y-84972389D01*
X126961041Y-84557423D01*
X127121904Y-84169039D01*
X126999915Y-83947000D01*
X125857000Y-83947000D01*
X125603000Y-83947000D01*
X124460085Y-83947000D01*
X124338096Y-84169039D01*
X120108591Y-84169039D01*
X121727631Y-82550000D01*
X125123367Y-82550000D01*
X124874866Y-82667611D01*
X124498959Y-83082577D01*
X124338096Y-83470961D01*
X124460085Y-83693000D01*
X125603000Y-83693000D01*
X125603000Y-83673000D01*
X125857000Y-83673000D01*
X125857000Y-83693000D01*
X126999915Y-83693000D01*
X127121904Y-83470961D01*
X126961041Y-83082577D01*
X126585134Y-82667611D01*
X126336633Y-82550000D01*
X132666216Y-82550000D01*
X132537138Y-82603466D01*
X132133466Y-83007138D01*
X131915000Y-83534561D01*
X131915000Y-84105439D01*
X132133466Y-84632862D01*
X132537138Y-85036534D01*
X132588000Y-85057602D01*
X132588001Y-86392398D01*
X132537138Y-86413466D01*
X132133466Y-86817138D01*
X131915000Y-87344561D01*
X131915000Y-87915439D01*
X132133466Y-88442862D01*
X132537138Y-88846534D01*
X133064561Y-89065000D01*
X133635439Y-89065000D01*
X134162862Y-88846534D01*
X134566534Y-88442862D01*
X134587602Y-88392000D01*
X135943293Y-88392000D01*
X136125423Y-88664577D01*
X136600091Y-88981740D01*
X137018667Y-89065000D01*
X137301333Y-89065000D01*
X137719909Y-88981740D01*
X138194577Y-88664577D01*
X138511740Y-88189909D01*
X138623113Y-87630000D01*
X138511740Y-87070091D01*
X138194577Y-86595423D01*
X137719909Y-86278260D01*
X137301333Y-86195000D01*
X137018667Y-86195000D01*
X136600091Y-86278260D01*
X136125423Y-86595423D01*
X135943293Y-86868000D01*
X134587602Y-86868000D01*
X134566534Y-86817138D01*
X134162862Y-86413466D01*
X134112000Y-86392398D01*
X134112000Y-85057602D01*
X134162862Y-85036534D01*
X134566534Y-84632862D01*
X134785000Y-84105439D01*
X134785000Y-83534561D01*
X134566534Y-83007138D01*
X134162862Y-82603466D01*
X134033784Y-82550000D01*
X141416370Y-82550000D01*
X145061369Y-86195000D01*
X144494561Y-86195000D01*
X143967138Y-86413466D01*
X143563466Y-86817138D01*
X143345000Y-87344561D01*
X143345000Y-87915439D01*
X143563466Y-88442862D01*
X143967138Y-88846534D01*
X144018000Y-88867602D01*
X144018001Y-90870370D01*
X143301884Y-90154254D01*
X143259372Y-90090630D01*
X143007318Y-89922213D01*
X142785049Y-89878001D01*
X142785044Y-89878001D01*
X142710001Y-89863074D01*
X142634958Y-89878001D01*
X134225041Y-89878001D01*
X134149998Y-89863074D01*
X134074955Y-89878001D01*
X134074951Y-89878001D01*
X133852682Y-89922213D01*
X133852681Y-89922214D01*
X133852680Y-89922214D01*
X133693061Y-90028868D01*
X133635439Y-90005000D01*
X133064561Y-90005000D01*
X132537138Y-90223466D01*
X132133466Y-90627138D01*
X131915000Y-91154561D01*
X131915000Y-91725439D01*
X132133466Y-92252862D01*
X132537138Y-92656534D01*
X132746935Y-92743435D01*
X131086251Y-94404119D01*
X131022630Y-94446629D01*
X130980119Y-94510251D01*
X130980118Y-94510252D01*
X130854213Y-94698683D01*
X130795073Y-94996000D01*
X130810001Y-95071048D01*
X130810000Y-101016957D01*
X130795073Y-101092000D01*
X130810000Y-101167043D01*
X130810000Y-101167047D01*
X130854212Y-101389316D01*
X131022629Y-101641371D01*
X131086253Y-101683883D01*
X131936068Y-102533698D01*
X131915000Y-102584561D01*
X131915000Y-103155439D01*
X132133466Y-103682862D01*
X132537138Y-104086534D01*
X133064561Y-104305000D01*
X133635439Y-104305000D01*
X134162862Y-104086534D01*
X134566534Y-103682862D01*
X134785000Y-103155439D01*
X134785000Y-102584561D01*
X134566534Y-102057138D01*
X134162862Y-101653466D01*
X133635439Y-101435000D01*
X133064561Y-101435000D01*
X133013698Y-101456068D01*
X132334000Y-100776370D01*
X132334000Y-100073396D01*
X132537138Y-100276534D01*
X133064561Y-100495000D01*
X133635439Y-100495000D01*
X133686302Y-100473932D01*
X136240740Y-103028371D01*
X136125423Y-103105423D01*
X135808260Y-103580091D01*
X135696887Y-104140000D01*
X135808260Y-104699909D01*
X136125423Y-105174577D01*
X136398000Y-105356707D01*
X136398001Y-106712398D01*
X136347138Y-106733466D01*
X135943466Y-107137138D01*
X135725000Y-107664561D01*
X135725000Y-108235439D01*
X135943466Y-108762862D01*
X136347138Y-109166534D01*
X136874561Y-109385000D01*
X137445439Y-109385000D01*
X137972862Y-109166534D01*
X138376534Y-108762862D01*
X138595000Y-108235439D01*
X138595000Y-107664561D01*
X138376534Y-107137138D01*
X137972862Y-106733466D01*
X137922000Y-106712398D01*
X137922000Y-105356707D01*
X138194577Y-105174577D01*
X138511740Y-104699909D01*
X138623113Y-104140000D01*
X138511740Y-103580091D01*
X138194577Y-103105423D01*
X137925820Y-102925845D01*
X137936928Y-102870000D01*
X137903089Y-102699882D01*
X137877788Y-102572683D01*
X137709371Y-102320629D01*
X137645749Y-102278118D01*
X137132631Y-101765000D01*
X137445439Y-101765000D01*
X137972862Y-101546534D01*
X138376534Y-101142862D01*
X138595000Y-100615439D01*
X138595000Y-100044561D01*
X138573932Y-99993698D01*
X143317631Y-95250000D01*
X144096216Y-95250000D01*
X143967138Y-95303466D01*
X143563466Y-95707138D01*
X143345000Y-96234561D01*
X143345000Y-96805439D01*
X143563466Y-97332862D01*
X143967138Y-97736534D01*
X144018000Y-97757602D01*
X144018001Y-99113293D01*
X143745423Y-99295423D01*
X143561716Y-99570360D01*
X143351313Y-99612212D01*
X143099259Y-99780629D01*
X143056748Y-99844251D01*
X142545685Y-100355315D01*
X142450683Y-100374212D01*
X142450682Y-100374213D01*
X142450681Y-100374213D01*
X142428991Y-100388706D01*
X142198629Y-100542629D01*
X142156116Y-100606254D01*
X141754254Y-101008116D01*
X141690629Y-101050629D01*
X141522212Y-101302684D01*
X141478000Y-101524953D01*
X141478000Y-101524957D01*
X141463073Y-101600000D01*
X141478000Y-101675043D01*
X141478001Y-105856368D01*
X137860370Y-109474000D01*
X136090261Y-109474000D01*
X134337828Y-107721568D01*
X134566534Y-107492862D01*
X134785000Y-106965439D01*
X134785000Y-106394561D01*
X134566534Y-105867138D01*
X134162862Y-105463466D01*
X133635439Y-105245000D01*
X133064561Y-105245000D01*
X132537138Y-105463466D01*
X132133466Y-105867138D01*
X131915000Y-106394561D01*
X131915000Y-106965439D01*
X132133466Y-107492862D01*
X132537138Y-107896534D01*
X132594761Y-107920402D01*
X132632213Y-108108687D01*
X132724843Y-108247317D01*
X132800630Y-108360741D01*
X132864251Y-108403251D01*
X133516000Y-109055000D01*
X133064561Y-109055000D01*
X132537138Y-109273466D01*
X132133466Y-109677138D01*
X131915000Y-110204561D01*
X131915000Y-110775439D01*
X132133466Y-111302862D01*
X132537138Y-111706534D01*
X133064561Y-111925000D01*
X133635439Y-111925000D01*
X133693061Y-111901132D01*
X133852680Y-112007786D01*
X133852681Y-112007786D01*
X133852682Y-112007787D01*
X134074951Y-112051999D01*
X134074955Y-112051999D01*
X134149998Y-112066926D01*
X134225041Y-112051999D01*
X144666958Y-112051999D01*
X144742001Y-112066926D01*
X144817044Y-112051999D01*
X144817049Y-112051999D01*
X145039318Y-112007787D01*
X145291372Y-111839370D01*
X145333884Y-111775746D01*
X147043750Y-110065881D01*
X147107371Y-110023371D01*
X147149882Y-109959749D01*
X147275787Y-109771319D01*
X147275787Y-109771318D01*
X147275788Y-109771317D01*
X147320000Y-109549048D01*
X147320000Y-109549044D01*
X147334927Y-109474001D01*
X147320000Y-109398958D01*
X147320000Y-105993047D01*
X147334928Y-105918000D01*
X147315582Y-105820741D01*
X147275788Y-105620683D01*
X147107371Y-105368629D01*
X147043749Y-105326118D01*
X146193932Y-104476302D01*
X146215000Y-104425439D01*
X146215000Y-103854561D01*
X145996534Y-103327138D01*
X145592862Y-102923466D01*
X145463784Y-102870000D01*
X145720957Y-102870000D01*
X145796000Y-102884927D01*
X145871043Y-102870000D01*
X145871048Y-102870000D01*
X146093317Y-102825788D01*
X146345371Y-102657371D01*
X146387884Y-102593746D01*
X146789747Y-102191883D01*
X146853371Y-102149371D01*
X147021788Y-101897317D01*
X147066000Y-101675048D01*
X147066000Y-101675044D01*
X147080927Y-101600001D01*
X147066000Y-101524958D01*
X147066000Y-95071042D01*
X147080927Y-94995999D01*
X147066000Y-94920956D01*
X147066000Y-94920952D01*
X147021788Y-94698683D01*
X147021190Y-94697787D01*
X146910556Y-94532213D01*
X146853371Y-94446629D01*
X146789746Y-94404116D01*
X146387884Y-94002254D01*
X146345371Y-93938629D01*
X146093317Y-93770212D01*
X145871048Y-93726000D01*
X145871043Y-93726000D01*
X145832158Y-93718265D01*
X146131740Y-93269909D01*
X146243113Y-92710000D01*
X146131740Y-92150091D01*
X145814577Y-91675423D01*
X145542000Y-91493293D01*
X145542000Y-88975047D01*
X145586212Y-89197316D01*
X145754629Y-89449371D01*
X145818253Y-89491883D01*
X154348118Y-98021749D01*
X154390629Y-98085371D01*
X154454251Y-98127882D01*
X154642681Y-98253787D01*
X154642682Y-98253787D01*
X154642683Y-98253788D01*
X154864952Y-98298000D01*
X154864956Y-98298000D01*
X154939999Y-98312927D01*
X154942765Y-98312377D01*
X155139375Y-98606625D01*
X155437761Y-98806000D01*
X155139375Y-99005375D01*
X154811161Y-99496582D01*
X154695908Y-100076000D01*
X154811161Y-100655418D01*
X155139375Y-101146625D01*
X155437761Y-101346000D01*
X155139375Y-101545375D01*
X154811161Y-102036582D01*
X154695908Y-102616000D01*
X154811161Y-103195418D01*
X155139375Y-103686625D01*
X155437761Y-103886000D01*
X155139375Y-104085375D01*
X154811161Y-104576582D01*
X154695908Y-105156000D01*
X154811161Y-105735418D01*
X155139375Y-106226625D01*
X155437761Y-106426000D01*
X155139375Y-106625375D01*
X154811161Y-107116582D01*
X154695908Y-107696000D01*
X154811161Y-108275418D01*
X155139375Y-108766625D01*
X155437761Y-108966000D01*
X155139375Y-109165375D01*
X154811161Y-109656582D01*
X154695908Y-110236000D01*
X154811161Y-110815418D01*
X155139375Y-111306625D01*
X155437761Y-111506000D01*
X155139375Y-111705375D01*
X154811161Y-112196582D01*
X154695908Y-112776000D01*
X154811161Y-113355418D01*
X155139375Y-113846625D01*
X155437761Y-114046000D01*
X155139375Y-114245375D01*
X154811161Y-114736582D01*
X154695908Y-115316000D01*
X154811161Y-115895418D01*
X155139375Y-116386625D01*
X155437761Y-116586000D01*
X155139375Y-116785375D01*
X154811161Y-117276582D01*
X154695908Y-117856000D01*
X154811161Y-118435418D01*
X155139375Y-118926625D01*
X155437761Y-119126000D01*
X155139375Y-119325375D01*
X155018017Y-119507000D01*
X145568595Y-119507000D01*
X145481040Y-119489584D01*
X145393485Y-119507000D01*
X145393484Y-119507000D01*
X145134170Y-119558581D01*
X144840107Y-119755067D01*
X144790511Y-119829293D01*
X143705294Y-120914511D01*
X143631068Y-120964107D01*
X143581472Y-121038333D01*
X143581471Y-121038334D01*
X143434582Y-121258170D01*
X143365584Y-121605040D01*
X143383001Y-121692599D01*
X143383001Y-121791211D01*
X143273061Y-121864670D01*
X143022320Y-122239930D01*
X142771580Y-121864670D01*
X142313262Y-121558432D01*
X141772640Y-121450896D01*
X141232019Y-121558432D01*
X140773701Y-121864670D01*
X140467462Y-122322988D01*
X140387070Y-122727147D01*
X140387070Y-123390724D01*
X138936795Y-124841000D01*
X135760396Y-124841000D01*
X135432862Y-124513466D01*
X134905439Y-124295000D01*
X134334561Y-124295000D01*
X133807138Y-124513466D01*
X133403466Y-124917138D01*
X133185000Y-125444561D01*
X133185000Y-126015439D01*
X133403466Y-126542862D01*
X133807138Y-126946534D01*
X134334561Y-127165000D01*
X134905439Y-127165000D01*
X135432862Y-126946534D01*
X135760396Y-126619000D01*
X139217475Y-126619000D01*
X139305030Y-126636416D01*
X139392585Y-126619000D01*
X139392586Y-126619000D01*
X139651900Y-126567419D01*
X139945963Y-126370933D01*
X139995561Y-126296704D01*
X140530515Y-125761750D01*
X154725000Y-125761750D01*
X154725000Y-126452310D01*
X154821673Y-126685699D01*
X155000302Y-126864327D01*
X155233691Y-126961000D01*
X155924250Y-126961000D01*
X156083000Y-126802250D01*
X156083000Y-125603000D01*
X156337000Y-125603000D01*
X156337000Y-126802250D01*
X156495750Y-126961000D01*
X157186309Y-126961000D01*
X157419698Y-126864327D01*
X157598327Y-126685699D01*
X157695000Y-126452310D01*
X157695000Y-125761750D01*
X157536250Y-125603000D01*
X156337000Y-125603000D01*
X156083000Y-125603000D01*
X154883750Y-125603000D01*
X154725000Y-125761750D01*
X140530515Y-125761750D01*
X141642957Y-124649309D01*
X141772640Y-124675104D01*
X141902323Y-124649308D01*
X142660721Y-125407707D01*
X142710317Y-125481933D01*
X142784543Y-125531529D01*
X143004379Y-125678419D01*
X143351250Y-125747416D01*
X143438806Y-125730000D01*
X151042445Y-125730000D01*
X151130000Y-125747416D01*
X151217555Y-125730000D01*
X151217556Y-125730000D01*
X151476870Y-125678419D01*
X151770933Y-125481933D01*
X151820531Y-125407704D01*
X153403236Y-123825000D01*
X155018017Y-123825000D01*
X155139375Y-124006625D01*
X155161033Y-124021096D01*
X155000302Y-124087673D01*
X154821673Y-124266301D01*
X154725000Y-124499690D01*
X154725000Y-125190250D01*
X154883750Y-125349000D01*
X156083000Y-125349000D01*
X156083000Y-125329000D01*
X156337000Y-125329000D01*
X156337000Y-125349000D01*
X157536250Y-125349000D01*
X157695000Y-125190250D01*
X157695000Y-124499690D01*
X157598327Y-124266301D01*
X157419698Y-124087673D01*
X157258967Y-124021096D01*
X157280625Y-124006625D01*
X157608839Y-123515418D01*
X157724092Y-122936000D01*
X157681477Y-122721758D01*
X159258000Y-121145236D01*
X159258000Y-127192369D01*
X157672370Y-128778000D01*
X88707631Y-128778000D01*
X88082163Y-128152532D01*
X90317073Y-128152532D01*
X90415736Y-128419387D01*
X91025461Y-128645908D01*
X91675460Y-128621856D01*
X92164264Y-128419387D01*
X92262927Y-128152532D01*
X96817073Y-128152532D01*
X96915736Y-128419387D01*
X97525461Y-128645908D01*
X98175460Y-128621856D01*
X98664264Y-128419387D01*
X98762927Y-128152532D01*
X97790000Y-127179605D01*
X96817073Y-128152532D01*
X92262927Y-128152532D01*
X91290000Y-127179605D01*
X90317073Y-128152532D01*
X88082163Y-128152532D01*
X87884000Y-127954370D01*
X87884000Y-126735461D01*
X89644092Y-126735461D01*
X89668144Y-127385460D01*
X89870613Y-127874264D01*
X90137468Y-127972927D01*
X91110395Y-127000000D01*
X91469605Y-127000000D01*
X92442532Y-127972927D01*
X92709387Y-127874264D01*
X92935908Y-127264539D01*
X92916331Y-126735461D01*
X96144092Y-126735461D01*
X96168144Y-127385460D01*
X96370613Y-127874264D01*
X96637468Y-127972927D01*
X97610395Y-127000000D01*
X97969605Y-127000000D01*
X98942532Y-127972927D01*
X99209387Y-127874264D01*
X99435908Y-127264539D01*
X99411856Y-126614540D01*
X99209387Y-126125736D01*
X98942532Y-126027073D01*
X97969605Y-127000000D01*
X97610395Y-127000000D01*
X96637468Y-126027073D01*
X96370613Y-126125736D01*
X96144092Y-126735461D01*
X92916331Y-126735461D01*
X92911856Y-126614540D01*
X92709387Y-126125736D01*
X92442532Y-126027073D01*
X91469605Y-127000000D01*
X91110395Y-127000000D01*
X90137468Y-126027073D01*
X89870613Y-126125736D01*
X89644092Y-126735461D01*
X87884000Y-126735461D01*
X87884000Y-125847468D01*
X90317073Y-125847468D01*
X91290000Y-126820395D01*
X92262927Y-125847468D01*
X96817073Y-125847468D01*
X97790000Y-126820395D01*
X98762927Y-125847468D01*
X98664264Y-125580613D01*
X98054539Y-125354092D01*
X97404540Y-125378144D01*
X96915736Y-125580613D01*
X96817073Y-125847468D01*
X92262927Y-125847468D01*
X92164264Y-125580613D01*
X91554539Y-125354092D01*
X90904540Y-125378144D01*
X90415736Y-125580613D01*
X90317073Y-125847468D01*
X87884000Y-125847468D01*
X87884000Y-117196890D01*
X88728524Y-117196890D01*
X88898355Y-117606924D01*
X89288642Y-118035183D01*
X89813108Y-118281486D01*
X90043000Y-118160819D01*
X90043000Y-116967000D01*
X90297000Y-116967000D01*
X90297000Y-118160819D01*
X90526892Y-118281486D01*
X91051358Y-118035183D01*
X91441645Y-117606924D01*
X91611476Y-117196890D01*
X91490155Y-116967000D01*
X90297000Y-116967000D01*
X90043000Y-116967000D01*
X88849845Y-116967000D01*
X88728524Y-117196890D01*
X87884000Y-117196890D01*
X87884000Y-114656890D01*
X88728524Y-114656890D01*
X88898355Y-115066924D01*
X89288642Y-115495183D01*
X89447954Y-115570000D01*
X89288642Y-115644817D01*
X88898355Y-116073076D01*
X88728524Y-116483110D01*
X88849845Y-116713000D01*
X90043000Y-116713000D01*
X90043000Y-114427000D01*
X90297000Y-114427000D01*
X90297000Y-116713000D01*
X91490155Y-116713000D01*
X91611476Y-116483110D01*
X91441645Y-116073076D01*
X91051358Y-115644817D01*
X90892046Y-115570000D01*
X91051358Y-115495183D01*
X91441645Y-115066924D01*
X91611476Y-114656890D01*
X91490155Y-114427000D01*
X90297000Y-114427000D01*
X90043000Y-114427000D01*
X88849845Y-114427000D01*
X88728524Y-114656890D01*
X87884000Y-114656890D01*
X87884000Y-112116890D01*
X88728524Y-112116890D01*
X88898355Y-112526924D01*
X89288642Y-112955183D01*
X89447954Y-113030000D01*
X89288642Y-113104817D01*
X88898355Y-113533076D01*
X88728524Y-113943110D01*
X88849845Y-114173000D01*
X90043000Y-114173000D01*
X90043000Y-111887000D01*
X90297000Y-111887000D01*
X90297000Y-114173000D01*
X91490155Y-114173000D01*
X91611476Y-113943110D01*
X91441645Y-113533076D01*
X91051358Y-113104817D01*
X90892046Y-113030000D01*
X91051358Y-112955183D01*
X91441645Y-112526924D01*
X91611476Y-112116890D01*
X91490155Y-111887000D01*
X90297000Y-111887000D01*
X90043000Y-111887000D01*
X88849845Y-111887000D01*
X88728524Y-112116890D01*
X87884000Y-112116890D01*
X87884000Y-109576890D01*
X88728524Y-109576890D01*
X88898355Y-109986924D01*
X89288642Y-110415183D01*
X89447954Y-110490000D01*
X89288642Y-110564817D01*
X88898355Y-110993076D01*
X88728524Y-111403110D01*
X88849845Y-111633000D01*
X90043000Y-111633000D01*
X90043000Y-109347000D01*
X90297000Y-109347000D01*
X90297000Y-111633000D01*
X91490155Y-111633000D01*
X91611476Y-111403110D01*
X91441645Y-110993076D01*
X91051358Y-110564817D01*
X90892046Y-110490000D01*
X91051358Y-110415183D01*
X91441645Y-109986924D01*
X91611476Y-109576890D01*
X91490155Y-109347000D01*
X90297000Y-109347000D01*
X90043000Y-109347000D01*
X88849845Y-109347000D01*
X88728524Y-109576890D01*
X87884000Y-109576890D01*
X87884000Y-107036890D01*
X88728524Y-107036890D01*
X88898355Y-107446924D01*
X89288642Y-107875183D01*
X89447954Y-107950000D01*
X89288642Y-108024817D01*
X88898355Y-108453076D01*
X88728524Y-108863110D01*
X88849845Y-109093000D01*
X90043000Y-109093000D01*
X90043000Y-106807000D01*
X90297000Y-106807000D01*
X90297000Y-109093000D01*
X91490155Y-109093000D01*
X91611476Y-108863110D01*
X91441645Y-108453076D01*
X91051358Y-108024817D01*
X90892046Y-107950000D01*
X91051358Y-107875183D01*
X91441645Y-107446924D01*
X91611476Y-107036890D01*
X91490155Y-106807000D01*
X90297000Y-106807000D01*
X90043000Y-106807000D01*
X88849845Y-106807000D01*
X88728524Y-107036890D01*
X87884000Y-107036890D01*
X87884000Y-104433005D01*
X87928213Y-104655279D01*
X87950993Y-104689371D01*
X88096630Y-104907333D01*
X88160251Y-104949843D01*
X89005697Y-105795290D01*
X88898355Y-105913076D01*
X88728524Y-106323110D01*
X88849845Y-106553000D01*
X90043000Y-106553000D01*
X90043000Y-106533000D01*
X90297000Y-106533000D01*
X90297000Y-106553000D01*
X91490155Y-106553000D01*
X91611476Y-106323110D01*
X91548888Y-106172000D01*
X92566955Y-106172000D01*
X92465908Y-106680000D01*
X92581161Y-107259418D01*
X92909375Y-107750625D01*
X93091000Y-107871983D01*
X93091001Y-108028017D01*
X92909375Y-108149375D01*
X92581161Y-108640582D01*
X92465908Y-109220000D01*
X92581161Y-109799418D01*
X92909375Y-110290625D01*
X93091000Y-110411983D01*
X93091001Y-110568017D01*
X92909375Y-110689375D01*
X92581161Y-111180582D01*
X92465908Y-111760000D01*
X92581161Y-112339418D01*
X92909375Y-112830625D01*
X93091001Y-112951983D01*
X93091000Y-113108017D01*
X92909375Y-113229375D01*
X92581161Y-113720582D01*
X92465908Y-114300000D01*
X92581161Y-114879418D01*
X92909375Y-115370625D01*
X93091001Y-115491983D01*
X93091000Y-115648017D01*
X92909375Y-115769375D01*
X92581161Y-116260582D01*
X92465908Y-116840000D01*
X92581161Y-117419418D01*
X92909375Y-117910625D01*
X93400582Y-118238839D01*
X93833744Y-118325000D01*
X94126256Y-118325000D01*
X94559418Y-118238839D01*
X95050625Y-117910625D01*
X95171983Y-117729000D01*
X99231765Y-117729000D01*
X103640389Y-122137625D01*
X103625000Y-122174778D01*
X103625000Y-122825222D01*
X103873914Y-123426153D01*
X104333847Y-123886086D01*
X104934778Y-124135000D01*
X105585222Y-124135000D01*
X106186153Y-123886086D01*
X106646086Y-123426153D01*
X106661475Y-123389000D01*
X110358525Y-123389000D01*
X110373914Y-123426153D01*
X110833847Y-123886086D01*
X111434778Y-124135000D01*
X112085222Y-124135000D01*
X112122375Y-124119611D01*
X112716764Y-124714000D01*
X101081631Y-124714000D01*
X99357005Y-122989375D01*
X99425000Y-122825222D01*
X99425000Y-122174778D01*
X99176086Y-121573847D01*
X98716153Y-121113914D01*
X98115222Y-120865000D01*
X97464778Y-120865000D01*
X96863847Y-121113914D01*
X96403914Y-121573847D01*
X96335920Y-121738000D01*
X92744080Y-121738000D01*
X92676086Y-121573847D01*
X92216153Y-121113914D01*
X91615222Y-120865000D01*
X90964778Y-120865000D01*
X90363847Y-121113914D01*
X89903914Y-121573847D01*
X89655000Y-122174778D01*
X89655000Y-122825222D01*
X89903914Y-123426153D01*
X90363847Y-123886086D01*
X90964778Y-124135000D01*
X91615222Y-124135000D01*
X92216153Y-123886086D01*
X92676086Y-123426153D01*
X92744080Y-123262000D01*
X96335920Y-123262000D01*
X96403914Y-123426153D01*
X96863847Y-123886086D01*
X97464778Y-124135000D01*
X98115222Y-124135000D01*
X98279375Y-124067005D01*
X100174118Y-125961749D01*
X100216629Y-126025371D01*
X100280251Y-126067882D01*
X100293703Y-126076870D01*
X100468683Y-126193788D01*
X100690952Y-126238000D01*
X100690953Y-126238000D01*
X100766000Y-126252928D01*
X100841047Y-126238000D01*
X103805920Y-126238000D01*
X103625000Y-126674778D01*
X103625000Y-127325222D01*
X103873914Y-127926153D01*
X104333847Y-128386086D01*
X104934778Y-128635000D01*
X105585222Y-128635000D01*
X106186153Y-128386086D01*
X106646086Y-127926153D01*
X106714080Y-127762000D01*
X110305920Y-127762000D01*
X110373914Y-127926153D01*
X110833847Y-128386086D01*
X111434778Y-128635000D01*
X112085222Y-128635000D01*
X112241749Y-128570164D01*
X112274250Y-128591881D01*
X112462680Y-128717786D01*
X112462681Y-128717786D01*
X112462682Y-128717787D01*
X112684951Y-128761999D01*
X112684955Y-128761999D01*
X112759998Y-128776926D01*
X112835041Y-128761999D01*
X119320958Y-128761999D01*
X119396001Y-128776926D01*
X119471044Y-128761999D01*
X119471049Y-128761999D01*
X119693318Y-128717787D01*
X119945372Y-128549370D01*
X119987884Y-128485746D01*
X121555952Y-126917679D01*
X121773744Y-126961000D01*
X122066256Y-126961000D01*
X122499418Y-126874839D01*
X122990625Y-126546625D01*
X123318839Y-126055418D01*
X123383568Y-125730000D01*
X125536887Y-125730000D01*
X125648260Y-126289909D01*
X125965423Y-126764577D01*
X126440091Y-127081740D01*
X126858667Y-127165000D01*
X127141333Y-127165000D01*
X127559909Y-127081740D01*
X128034577Y-126764577D01*
X128351740Y-126289909D01*
X128463113Y-125730000D01*
X128351740Y-125170091D01*
X128034577Y-124695423D01*
X127559909Y-124378260D01*
X127141333Y-124295000D01*
X126858667Y-124295000D01*
X126440091Y-124378260D01*
X125965423Y-124695423D01*
X125648260Y-125170091D01*
X125536887Y-125730000D01*
X123383568Y-125730000D01*
X123434092Y-125476000D01*
X123361679Y-125111952D01*
X125770960Y-122702671D01*
X125783466Y-122732862D01*
X126187138Y-123136534D01*
X126714561Y-123355000D01*
X127285439Y-123355000D01*
X127812862Y-123136534D01*
X128216534Y-122732862D01*
X128408655Y-122269039D01*
X133228096Y-122269039D01*
X133388959Y-122657423D01*
X133764866Y-123072389D01*
X134270959Y-123311914D01*
X134493000Y-123190629D01*
X134493000Y-122047000D01*
X134747000Y-122047000D01*
X134747000Y-123190629D01*
X134969041Y-123311914D01*
X135475134Y-123072389D01*
X135851041Y-122657423D01*
X136011904Y-122269039D01*
X135889915Y-122047000D01*
X134747000Y-122047000D01*
X134493000Y-122047000D01*
X133350085Y-122047000D01*
X133228096Y-122269039D01*
X128408655Y-122269039D01*
X128435000Y-122205439D01*
X128435000Y-121634561D01*
X128408656Y-121570961D01*
X133228096Y-121570961D01*
X133350085Y-121793000D01*
X134493000Y-121793000D01*
X134493000Y-120649371D01*
X134747000Y-120649371D01*
X134747000Y-121793000D01*
X135889915Y-121793000D01*
X136011904Y-121570961D01*
X135851041Y-121182577D01*
X135475134Y-120767611D01*
X134969041Y-120528086D01*
X134747000Y-120649371D01*
X134493000Y-120649371D01*
X134270959Y-120528086D01*
X133764866Y-120767611D01*
X133388959Y-121182577D01*
X133228096Y-121570961D01*
X128408656Y-121570961D01*
X128216534Y-121107138D01*
X127812862Y-120703466D01*
X127285439Y-120485000D01*
X126714561Y-120485000D01*
X126187138Y-120703466D01*
X125783466Y-121107138D01*
X125762398Y-121158000D01*
X125551042Y-121158000D01*
X125475999Y-121143073D01*
X125400956Y-121158000D01*
X125400952Y-121158000D01*
X125178683Y-121202212D01*
X125178682Y-121202213D01*
X125178681Y-121202213D01*
X125058330Y-121282629D01*
X124926629Y-121370629D01*
X124884118Y-121434251D01*
X123417440Y-122900929D01*
X123417440Y-122086000D01*
X123368157Y-121838235D01*
X123227809Y-121628191D01*
X123017765Y-121487843D01*
X122770000Y-121438560D01*
X122682000Y-121438560D01*
X122682000Y-114375047D01*
X122696928Y-114300000D01*
X122671666Y-114173000D01*
X122637788Y-114002683D01*
X122553448Y-113876459D01*
X122511882Y-113814251D01*
X122469371Y-113750629D01*
X122405749Y-113708118D01*
X119485128Y-110787498D01*
X119494300Y-110765354D01*
X119494300Y-110411930D01*
X120058116Y-110975746D01*
X120100629Y-111039371D01*
X120219903Y-111119067D01*
X120352681Y-111207787D01*
X120352682Y-111207787D01*
X120352683Y-111207788D01*
X120574952Y-111252000D01*
X120574956Y-111252000D01*
X120649999Y-111266927D01*
X120725042Y-111252000D01*
X124513293Y-111252000D01*
X124695423Y-111524577D01*
X125170091Y-111841740D01*
X125588667Y-111925000D01*
X125871333Y-111925000D01*
X126289909Y-111841740D01*
X126764577Y-111524577D01*
X127081740Y-111049909D01*
X127193113Y-110490000D01*
X127081740Y-109930091D01*
X126764577Y-109455423D01*
X126289909Y-109138260D01*
X125871333Y-109055000D01*
X125588667Y-109055000D01*
X125170091Y-109138260D01*
X124695423Y-109455423D01*
X124513293Y-109728000D01*
X120965630Y-109728000D01*
X119485128Y-108247498D01*
X119494300Y-108225354D01*
X119494300Y-107674646D01*
X119402282Y-107452495D01*
X119455042Y-107442000D01*
X124513293Y-107442000D01*
X124695423Y-107714577D01*
X125170091Y-108031740D01*
X125588667Y-108115000D01*
X125871333Y-108115000D01*
X126289909Y-108031740D01*
X126764577Y-107714577D01*
X127081740Y-107239909D01*
X127193113Y-106680000D01*
X127081740Y-106120091D01*
X126764577Y-105645423D01*
X126289909Y-105328260D01*
X125871333Y-105245000D01*
X125588667Y-105245000D01*
X125170091Y-105328260D01*
X124695423Y-105645423D01*
X124513293Y-105918000D01*
X119695631Y-105918000D01*
X119485128Y-105707497D01*
X119494300Y-105685354D01*
X119494300Y-105134646D01*
X119283553Y-104625857D01*
X118894143Y-104236447D01*
X118661299Y-104140000D01*
X118894143Y-104043553D01*
X119283553Y-103654143D01*
X119292725Y-103632000D01*
X124513293Y-103632000D01*
X124695423Y-103904577D01*
X125170091Y-104221740D01*
X125588667Y-104305000D01*
X125871333Y-104305000D01*
X126289909Y-104221740D01*
X126764577Y-103904577D01*
X127081740Y-103429909D01*
X127193113Y-102870000D01*
X127081740Y-102310091D01*
X126764577Y-101835423D01*
X126289909Y-101518260D01*
X125871333Y-101435000D01*
X125588667Y-101435000D01*
X125170091Y-101518260D01*
X124695423Y-101835423D01*
X124513293Y-102108000D01*
X119292725Y-102108000D01*
X119283553Y-102085857D01*
X118894143Y-101696447D01*
X118661299Y-101600000D01*
X118894143Y-101503553D01*
X119283553Y-101114143D01*
X119494300Y-100605354D01*
X119494300Y-100054646D01*
X119485128Y-100032503D01*
X119695631Y-99822000D01*
X124513293Y-99822000D01*
X124695423Y-100094577D01*
X125170091Y-100411740D01*
X125588667Y-100495000D01*
X125871333Y-100495000D01*
X126289909Y-100411740D01*
X126764577Y-100094577D01*
X127081740Y-99619909D01*
X127193113Y-99060000D01*
X127081740Y-98500091D01*
X126764577Y-98025423D01*
X126289909Y-97708260D01*
X125871333Y-97625000D01*
X125588667Y-97625000D01*
X125170091Y-97708260D01*
X124695423Y-98025423D01*
X124513293Y-98298000D01*
X123767014Y-98298000D01*
X123781884Y-98275746D01*
X125408473Y-96649157D01*
X125588667Y-96685000D01*
X125871333Y-96685000D01*
X126289909Y-96601740D01*
X126764577Y-96284577D01*
X127081740Y-95809909D01*
X127193113Y-95250000D01*
X127081740Y-94690091D01*
X126764577Y-94215423D01*
X126289909Y-93898260D01*
X125871333Y-93815000D01*
X125588667Y-93815000D01*
X125170091Y-93898260D01*
X124695423Y-94215423D01*
X124378260Y-94690091D01*
X124266887Y-95250000D01*
X124330843Y-95571527D01*
X122874370Y-97028000D01*
X119292725Y-97028000D01*
X119283553Y-97005857D01*
X118894143Y-96616447D01*
X118661299Y-96520000D01*
X118894143Y-96423553D01*
X119283553Y-96034143D01*
X119494300Y-95525354D01*
X119494300Y-95262701D01*
X122594256Y-95262701D01*
X122669299Y-95277628D01*
X122744342Y-95262701D01*
X122744347Y-95262701D01*
X122966616Y-95218489D01*
X123218670Y-95050072D01*
X123261182Y-94986448D01*
X125408474Y-92839157D01*
X125588667Y-92875000D01*
X125871333Y-92875000D01*
X126289909Y-92791740D01*
X126764577Y-92474577D01*
X127081740Y-91999909D01*
X127193113Y-91440000D01*
X127081740Y-90880091D01*
X126764577Y-90405423D01*
X126289909Y-90088260D01*
X125871333Y-90005000D01*
X125588667Y-90005000D01*
X125170091Y-90088260D01*
X124695423Y-90405423D01*
X124378260Y-90880091D01*
X124266887Y-91440000D01*
X124330843Y-91761526D01*
X122353669Y-93738701D01*
X119038995Y-93738701D01*
X119283553Y-93494143D01*
X119292725Y-93472000D01*
X120574957Y-93472000D01*
X120650000Y-93486927D01*
X120725043Y-93472000D01*
X120725048Y-93472000D01*
X120947317Y-93427788D01*
X121199371Y-93259371D01*
X121241883Y-93195747D01*
X125408474Y-89029157D01*
X125588667Y-89065000D01*
X125871333Y-89065000D01*
X126289909Y-88981740D01*
X126764577Y-88664577D01*
X127081740Y-88189909D01*
X127193113Y-87630000D01*
X127081740Y-87070091D01*
X126764577Y-86595423D01*
X126289909Y-86278260D01*
X125871333Y-86195000D01*
X125588667Y-86195000D01*
X125170091Y-86278260D01*
X124695423Y-86595423D01*
X124378260Y-87070091D01*
X124266887Y-87630000D01*
X124330843Y-87951526D01*
X120334370Y-91948000D01*
X119292725Y-91948000D01*
X119283553Y-91925857D01*
X118894143Y-91536447D01*
X118677243Y-91446604D01*
X118833501Y-91381880D01*
X118901405Y-91141010D01*
X118110000Y-90349605D01*
X117318595Y-91141010D01*
X117386499Y-91381880D01*
X117554603Y-91441698D01*
X117325857Y-91536447D01*
X116936447Y-91925857D01*
X116725700Y-92434646D01*
X116725700Y-92985354D01*
X116936447Y-93494143D01*
X117325857Y-93883553D01*
X117558701Y-93980000D01*
X117325857Y-94076447D01*
X116936447Y-94465857D01*
X116725700Y-94974646D01*
X116725700Y-95328069D01*
X113538000Y-92140370D01*
X113538000Y-91272666D01*
X113789223Y-91362965D01*
X114359454Y-91335778D01*
X114760005Y-91169864D01*
X114834139Y-90923745D01*
X114006000Y-90095605D01*
X113991858Y-90109748D01*
X113812253Y-89930143D01*
X113826395Y-89916000D01*
X114185605Y-89916000D01*
X115013745Y-90744139D01*
X115259864Y-90670005D01*
X115452965Y-90132777D01*
X115444983Y-89965339D01*
X116713497Y-89965339D01*
X116741479Y-90515336D01*
X116898120Y-90893501D01*
X117138990Y-90961405D01*
X117930395Y-90170000D01*
X118289605Y-90170000D01*
X119081010Y-90961405D01*
X119321880Y-90893501D01*
X119506503Y-90374661D01*
X119478521Y-89824664D01*
X119321880Y-89446499D01*
X119081010Y-89378595D01*
X118289605Y-90170000D01*
X117930395Y-90170000D01*
X117138990Y-89378595D01*
X116898120Y-89446499D01*
X116713497Y-89965339D01*
X115444983Y-89965339D01*
X115425778Y-89562546D01*
X115259864Y-89161995D01*
X115013745Y-89087861D01*
X114185605Y-89916000D01*
X113826395Y-89916000D01*
X113812253Y-89901858D01*
X113991858Y-89722252D01*
X114006000Y-89736395D01*
X114834139Y-88908255D01*
X114760005Y-88662136D01*
X114222777Y-88469035D01*
X113652546Y-88496222D01*
X113538000Y-88543669D01*
X113538000Y-85927042D01*
X113552927Y-85851999D01*
X113538000Y-85776956D01*
X113538000Y-85776952D01*
X113493788Y-85554683D01*
X113432522Y-85462991D01*
X113367882Y-85366251D01*
X113325371Y-85302629D01*
X113261749Y-85260118D01*
X109811883Y-81810253D01*
X109769371Y-81746629D01*
X109517317Y-81578212D01*
X109295048Y-81534000D01*
X109295043Y-81534000D01*
X109220000Y-81519073D01*
X109144957Y-81534000D01*
X108397711Y-81534000D01*
X108282280Y-81418569D01*
X108262327Y-81410304D01*
X108900631Y-80772000D01*
X116927275Y-80772000D01*
X116936447Y-80794143D01*
G36*
X95018251Y-107779881D02*
X100754117Y-113515748D01*
X100796629Y-113579371D01*
X101048683Y-113747788D01*
X101270952Y-113792000D01*
X101270953Y-113792000D01*
X101346000Y-113806928D01*
X101421047Y-113792000D01*
X101687275Y-113792000D01*
X101696447Y-113814143D01*
X102085857Y-114203553D01*
X102302757Y-114293396D01*
X102146499Y-114358120D01*
X102078595Y-114598990D01*
X102870000Y-115390395D01*
X103661405Y-114598990D01*
X103593501Y-114358120D01*
X103425397Y-114298302D01*
X103654143Y-114203553D01*
X104043553Y-113814143D01*
X104254300Y-113305354D01*
X104254300Y-112754646D01*
X104043553Y-112245857D01*
X103654143Y-111856447D01*
X103421299Y-111760000D01*
X103654143Y-111663553D01*
X104043553Y-111274143D01*
X104254300Y-110765354D01*
X104254300Y-110214646D01*
X104043553Y-109705857D01*
X103654143Y-109316447D01*
X103421299Y-109220000D01*
X103588934Y-109150564D01*
X116055998Y-121617629D01*
X116040191Y-121628191D01*
X115899843Y-121838235D01*
X115850560Y-122086000D01*
X115850560Y-123786000D01*
X115899843Y-124033765D01*
X116040191Y-124243809D01*
X116250235Y-124384157D01*
X116295619Y-124393184D01*
X116277375Y-124405375D01*
X116071158Y-124714000D01*
X115589000Y-124714000D01*
X115589000Y-124508126D01*
X115431431Y-124127720D01*
X115140280Y-123836569D01*
X114759874Y-123679000D01*
X114348126Y-123679000D01*
X114240723Y-123723488D01*
X113379611Y-122862375D01*
X113395000Y-122825222D01*
X113395000Y-122174778D01*
X113146086Y-121573847D01*
X112686153Y-121113914D01*
X112085222Y-120865000D01*
X111434778Y-120865000D01*
X110833847Y-121113914D01*
X110373914Y-121573847D01*
X110358525Y-121611000D01*
X106661475Y-121611000D01*
X106646086Y-121573847D01*
X106186153Y-121113914D01*
X105585222Y-120865000D01*
X104934778Y-120865000D01*
X104897625Y-120880389D01*
X100558246Y-116541010D01*
X102078595Y-116541010D01*
X102146499Y-116781880D01*
X102665339Y-116966503D01*
X103215336Y-116938521D01*
X103593501Y-116781880D01*
X103661405Y-116541010D01*
X102870000Y-115749605D01*
X102078595Y-116541010D01*
X100558246Y-116541010D01*
X100290531Y-116273296D01*
X100240933Y-116199067D01*
X99946870Y-116002581D01*
X99687556Y-115951000D01*
X99687555Y-115951000D01*
X99600000Y-115933584D01*
X99512445Y-115951000D01*
X95171983Y-115951000D01*
X95050625Y-115769375D01*
X94869000Y-115648017D01*
X94869000Y-115491983D01*
X95050625Y-115370625D01*
X95054156Y-115365339D01*
X101473497Y-115365339D01*
X101501479Y-115915336D01*
X101658120Y-116293501D01*
X101898990Y-116361405D01*
X102690395Y-115570000D01*
X103049605Y-115570000D01*
X103841010Y-116361405D01*
X104081880Y-116293501D01*
X104266503Y-115774661D01*
X104238521Y-115224664D01*
X104081880Y-114846499D01*
X103841010Y-114778595D01*
X103049605Y-115570000D01*
X102690395Y-115570000D01*
X101898990Y-114778595D01*
X101658120Y-114846499D01*
X101473497Y-115365339D01*
X95054156Y-115365339D01*
X95378839Y-114879418D01*
X95494092Y-114300000D01*
X95378839Y-113720582D01*
X95050625Y-113229375D01*
X94869000Y-113108017D01*
X94869000Y-112951983D01*
X95050625Y-112830625D01*
X95378839Y-112339418D01*
X95494092Y-111760000D01*
X95378839Y-111180582D01*
X95050625Y-110689375D01*
X94869000Y-110568017D01*
X94869000Y-110411983D01*
X95050625Y-110290625D01*
X95378839Y-109799418D01*
X95494092Y-109220000D01*
X95378839Y-108640582D01*
X95050625Y-108149375D01*
X94869000Y-108028017D01*
X94869000Y-107871983D01*
X95012546Y-107776069D01*
X95018251Y-107779881D01*
X95018251Y-107779881D01*
G37*
X95018251Y-107779881D02*
X100754117Y-113515748D01*
X100796629Y-113579371D01*
X101048683Y-113747788D01*
X101270952Y-113792000D01*
X101270953Y-113792000D01*
X101346000Y-113806928D01*
X101421047Y-113792000D01*
X101687275Y-113792000D01*
X101696447Y-113814143D01*
X102085857Y-114203553D01*
X102302757Y-114293396D01*
X102146499Y-114358120D01*
X102078595Y-114598990D01*
X102870000Y-115390395D01*
X103661405Y-114598990D01*
X103593501Y-114358120D01*
X103425397Y-114298302D01*
X103654143Y-114203553D01*
X104043553Y-113814143D01*
X104254300Y-113305354D01*
X104254300Y-112754646D01*
X104043553Y-112245857D01*
X103654143Y-111856447D01*
X103421299Y-111760000D01*
X103654143Y-111663553D01*
X104043553Y-111274143D01*
X104254300Y-110765354D01*
X104254300Y-110214646D01*
X104043553Y-109705857D01*
X103654143Y-109316447D01*
X103421299Y-109220000D01*
X103588934Y-109150564D01*
X116055998Y-121617629D01*
X116040191Y-121628191D01*
X115899843Y-121838235D01*
X115850560Y-122086000D01*
X115850560Y-123786000D01*
X115899843Y-124033765D01*
X116040191Y-124243809D01*
X116250235Y-124384157D01*
X116295619Y-124393184D01*
X116277375Y-124405375D01*
X116071158Y-124714000D01*
X115589000Y-124714000D01*
X115589000Y-124508126D01*
X115431431Y-124127720D01*
X115140280Y-123836569D01*
X114759874Y-123679000D01*
X114348126Y-123679000D01*
X114240723Y-123723488D01*
X113379611Y-122862375D01*
X113395000Y-122825222D01*
X113395000Y-122174778D01*
X113146086Y-121573847D01*
X112686153Y-121113914D01*
X112085222Y-120865000D01*
X111434778Y-120865000D01*
X110833847Y-121113914D01*
X110373914Y-121573847D01*
X110358525Y-121611000D01*
X106661475Y-121611000D01*
X106646086Y-121573847D01*
X106186153Y-121113914D01*
X105585222Y-120865000D01*
X104934778Y-120865000D01*
X104897625Y-120880389D01*
X100558246Y-116541010D01*
X102078595Y-116541010D01*
X102146499Y-116781880D01*
X102665339Y-116966503D01*
X103215336Y-116938521D01*
X103593501Y-116781880D01*
X103661405Y-116541010D01*
X102870000Y-115749605D01*
X102078595Y-116541010D01*
X100558246Y-116541010D01*
X100290531Y-116273296D01*
X100240933Y-116199067D01*
X99946870Y-116002581D01*
X99687556Y-115951000D01*
X99687555Y-115951000D01*
X99600000Y-115933584D01*
X99512445Y-115951000D01*
X95171983Y-115951000D01*
X95050625Y-115769375D01*
X94869000Y-115648017D01*
X94869000Y-115491983D01*
X95050625Y-115370625D01*
X95054156Y-115365339D01*
X101473497Y-115365339D01*
X101501479Y-115915336D01*
X101658120Y-116293501D01*
X101898990Y-116361405D01*
X102690395Y-115570000D01*
X103049605Y-115570000D01*
X103841010Y-116361405D01*
X104081880Y-116293501D01*
X104266503Y-115774661D01*
X104238521Y-115224664D01*
X104081880Y-114846499D01*
X103841010Y-114778595D01*
X103049605Y-115570000D01*
X102690395Y-115570000D01*
X101898990Y-114778595D01*
X101658120Y-114846499D01*
X101473497Y-115365339D01*
X95054156Y-115365339D01*
X95378839Y-114879418D01*
X95494092Y-114300000D01*
X95378839Y-113720582D01*
X95050625Y-113229375D01*
X94869000Y-113108017D01*
X94869000Y-112951983D01*
X95050625Y-112830625D01*
X95378839Y-112339418D01*
X95494092Y-111760000D01*
X95378839Y-111180582D01*
X95050625Y-110689375D01*
X94869000Y-110568017D01*
X94869000Y-110411983D01*
X95050625Y-110290625D01*
X95378839Y-109799418D01*
X95494092Y-109220000D01*
X95378839Y-108640582D01*
X95050625Y-108149375D01*
X94869000Y-108028017D01*
X94869000Y-107871983D01*
X95012546Y-107776069D01*
X95018251Y-107779881D01*
G36*
X155139375Y-121466625D02*
X155437761Y-121666000D01*
X155139375Y-121865375D01*
X155018017Y-122047000D01*
X153122555Y-122047000D01*
X153035000Y-122029584D01*
X152947445Y-122047000D01*
X152947444Y-122047000D01*
X152688130Y-122098581D01*
X152394067Y-122295067D01*
X152344471Y-122369293D01*
X150761765Y-123952000D01*
X147972056Y-123952000D01*
X147993397Y-123926355D01*
X148154463Y-123408160D01*
X148001488Y-123190000D01*
X146898360Y-123190000D01*
X146898360Y-123210000D01*
X146644360Y-123210000D01*
X146644360Y-123190000D01*
X146624360Y-123190000D01*
X146624360Y-122936000D01*
X146644360Y-122936000D01*
X146644360Y-121643381D01*
X146898360Y-121643381D01*
X146898360Y-122936000D01*
X148001488Y-122936000D01*
X148154463Y-122717840D01*
X147993397Y-122199645D01*
X147646287Y-121782533D01*
X147165977Y-121530005D01*
X147112635Y-121520727D01*
X146898360Y-121643381D01*
X146644360Y-121643381D01*
X146430085Y-121520727D01*
X146376743Y-121530005D01*
X145896433Y-121782533D01*
X145549323Y-122199645D01*
X145532001Y-122255376D01*
X145270940Y-121864670D01*
X145270140Y-121864135D01*
X145849276Y-121285000D01*
X155018017Y-121285000D01*
X155139375Y-121466625D01*
X155139375Y-121466625D01*
G37*
X155139375Y-121466625D02*
X155437761Y-121666000D01*
X155139375Y-121865375D01*
X155018017Y-122047000D01*
X153122555Y-122047000D01*
X153035000Y-122029584D01*
X152947445Y-122047000D01*
X152947444Y-122047000D01*
X152688130Y-122098581D01*
X152394067Y-122295067D01*
X152344471Y-122369293D01*
X150761765Y-123952000D01*
X147972056Y-123952000D01*
X147993397Y-123926355D01*
X148154463Y-123408160D01*
X148001488Y-123190000D01*
X146898360Y-123190000D01*
X146898360Y-123210000D01*
X146644360Y-123210000D01*
X146644360Y-123190000D01*
X146624360Y-123190000D01*
X146624360Y-122936000D01*
X146644360Y-122936000D01*
X146644360Y-121643381D01*
X146898360Y-121643381D01*
X146898360Y-122936000D01*
X148001488Y-122936000D01*
X148154463Y-122717840D01*
X147993397Y-122199645D01*
X147646287Y-121782533D01*
X147165977Y-121530005D01*
X147112635Y-121520727D01*
X146898360Y-121643381D01*
X146644360Y-121643381D01*
X146430085Y-121520727D01*
X146376743Y-121530005D01*
X145896433Y-121782533D01*
X145549323Y-122199645D01*
X145532001Y-122255376D01*
X145270940Y-121864670D01*
X145270140Y-121864135D01*
X145849276Y-121285000D01*
X155018017Y-121285000D01*
X155139375Y-121466625D01*
G36*
X106153000Y-97233874D02*
X106310569Y-97614280D01*
X106601720Y-97905431D01*
X106954196Y-98051431D01*
X109291470Y-100388706D01*
X109341067Y-100462933D01*
X109635130Y-100659419D01*
X109894444Y-100711000D01*
X109894445Y-100711000D01*
X109982000Y-100728416D01*
X110069555Y-100711000D01*
X113423765Y-100711000D01*
X115443000Y-102730236D01*
X115443001Y-106084440D01*
X115443000Y-106084445D01*
X115443001Y-110439648D01*
X115297000Y-110792126D01*
X115297000Y-111203874D01*
X115454569Y-111584280D01*
X115745720Y-111875431D01*
X116126126Y-112033000D01*
X116537874Y-112033000D01*
X116918280Y-111875431D01*
X117209431Y-111584280D01*
X117220313Y-111558009D01*
X117325857Y-111663553D01*
X117558701Y-111760000D01*
X117325857Y-111856447D01*
X116936447Y-112245857D01*
X116927275Y-112268000D01*
X110043631Y-112268000D01*
X108287884Y-110512254D01*
X108287882Y-110512251D01*
X107927252Y-110151621D01*
X108343454Y-110131778D01*
X108744005Y-109965864D01*
X108818139Y-109719745D01*
X107990000Y-108891605D01*
X107975858Y-108905748D01*
X107796252Y-108726142D01*
X107810395Y-108712000D01*
X106982255Y-107883861D01*
X106736136Y-107957995D01*
X106543035Y-108495223D01*
X106556662Y-108781031D01*
X106172000Y-108396370D01*
X106172000Y-107704255D01*
X107161861Y-107704255D01*
X107990000Y-108532395D01*
X108818139Y-107704255D01*
X108744005Y-107458136D01*
X108206777Y-107265035D01*
X107636546Y-107292222D01*
X107235995Y-107458136D01*
X107161861Y-107704255D01*
X106172000Y-107704255D01*
X106172000Y-102945042D01*
X106186927Y-102869999D01*
X106172000Y-102794956D01*
X106172000Y-102794952D01*
X106127788Y-102572683D01*
X106015959Y-102405318D01*
X106001882Y-102384251D01*
X105959371Y-102320629D01*
X105895749Y-102278118D01*
X104731883Y-101114253D01*
X104717014Y-101092000D01*
X107814370Y-101092000D01*
X108808189Y-102085820D01*
X108705000Y-102334941D01*
X108705000Y-103045059D01*
X108976750Y-103701121D01*
X109478879Y-104203250D01*
X109728001Y-104306440D01*
X109728000Y-107474398D01*
X109677138Y-107495466D01*
X109273466Y-107899138D01*
X109246475Y-107964299D01*
X109243864Y-107957995D01*
X108997745Y-107883861D01*
X108169605Y-108712000D01*
X108997745Y-109540139D01*
X109243864Y-109466005D01*
X109246290Y-109459254D01*
X109273466Y-109524862D01*
X109677138Y-109928534D01*
X110204561Y-110147000D01*
X110775439Y-110147000D01*
X111302862Y-109928534D01*
X111706534Y-109524862D01*
X111925000Y-108997439D01*
X111925000Y-108426561D01*
X111706534Y-107899138D01*
X111302862Y-107495466D01*
X111252000Y-107474398D01*
X111252000Y-104306439D01*
X111501121Y-104203250D01*
X112003250Y-103701121D01*
X112275000Y-103045059D01*
X112275000Y-102334941D01*
X112003250Y-101678879D01*
X111501121Y-101176750D01*
X110845059Y-100905000D01*
X110134941Y-100905000D01*
X109885820Y-101008189D01*
X108721883Y-99844253D01*
X108679371Y-99780629D01*
X108427317Y-99612212D01*
X108205048Y-99568000D01*
X108205043Y-99568000D01*
X108130000Y-99553073D01*
X108054957Y-99568000D01*
X104052725Y-99568000D01*
X104043553Y-99545857D01*
X103914126Y-99416430D01*
X106153000Y-97177557D01*
X106153000Y-97233874D01*
X106153000Y-97233874D01*
G37*
X106153000Y-97233874D02*
X106310569Y-97614280D01*
X106601720Y-97905431D01*
X106954196Y-98051431D01*
X109291470Y-100388706D01*
X109341067Y-100462933D01*
X109635130Y-100659419D01*
X109894444Y-100711000D01*
X109894445Y-100711000D01*
X109982000Y-100728416D01*
X110069555Y-100711000D01*
X113423765Y-100711000D01*
X115443000Y-102730236D01*
X115443001Y-106084440D01*
X115443000Y-106084445D01*
X115443001Y-110439648D01*
X115297000Y-110792126D01*
X115297000Y-111203874D01*
X115454569Y-111584280D01*
X115745720Y-111875431D01*
X116126126Y-112033000D01*
X116537874Y-112033000D01*
X116918280Y-111875431D01*
X117209431Y-111584280D01*
X117220313Y-111558009D01*
X117325857Y-111663553D01*
X117558701Y-111760000D01*
X117325857Y-111856447D01*
X116936447Y-112245857D01*
X116927275Y-112268000D01*
X110043631Y-112268000D01*
X108287884Y-110512254D01*
X108287882Y-110512251D01*
X107927252Y-110151621D01*
X108343454Y-110131778D01*
X108744005Y-109965864D01*
X108818139Y-109719745D01*
X107990000Y-108891605D01*
X107975858Y-108905748D01*
X107796252Y-108726142D01*
X107810395Y-108712000D01*
X106982255Y-107883861D01*
X106736136Y-107957995D01*
X106543035Y-108495223D01*
X106556662Y-108781031D01*
X106172000Y-108396370D01*
X106172000Y-107704255D01*
X107161861Y-107704255D01*
X107990000Y-108532395D01*
X108818139Y-107704255D01*
X108744005Y-107458136D01*
X108206777Y-107265035D01*
X107636546Y-107292222D01*
X107235995Y-107458136D01*
X107161861Y-107704255D01*
X106172000Y-107704255D01*
X106172000Y-102945042D01*
X106186927Y-102869999D01*
X106172000Y-102794956D01*
X106172000Y-102794952D01*
X106127788Y-102572683D01*
X106015959Y-102405318D01*
X106001882Y-102384251D01*
X105959371Y-102320629D01*
X105895749Y-102278118D01*
X104731883Y-101114253D01*
X104717014Y-101092000D01*
X107814370Y-101092000D01*
X108808189Y-102085820D01*
X108705000Y-102334941D01*
X108705000Y-103045059D01*
X108976750Y-103701121D01*
X109478879Y-104203250D01*
X109728001Y-104306440D01*
X109728000Y-107474398D01*
X109677138Y-107495466D01*
X109273466Y-107899138D01*
X109246475Y-107964299D01*
X109243864Y-107957995D01*
X108997745Y-107883861D01*
X108169605Y-108712000D01*
X108997745Y-109540139D01*
X109243864Y-109466005D01*
X109246290Y-109459254D01*
X109273466Y-109524862D01*
X109677138Y-109928534D01*
X110204561Y-110147000D01*
X110775439Y-110147000D01*
X111302862Y-109928534D01*
X111706534Y-109524862D01*
X111925000Y-108997439D01*
X111925000Y-108426561D01*
X111706534Y-107899138D01*
X111302862Y-107495466D01*
X111252000Y-107474398D01*
X111252000Y-104306439D01*
X111501121Y-104203250D01*
X112003250Y-103701121D01*
X112275000Y-103045059D01*
X112275000Y-102334941D01*
X112003250Y-101678879D01*
X111501121Y-101176750D01*
X110845059Y-100905000D01*
X110134941Y-100905000D01*
X109885820Y-101008189D01*
X108721883Y-99844253D01*
X108679371Y-99780629D01*
X108427317Y-99612212D01*
X108205048Y-99568000D01*
X108205043Y-99568000D01*
X108130000Y-99553073D01*
X108054957Y-99568000D01*
X104052725Y-99568000D01*
X104043553Y-99545857D01*
X103914126Y-99416430D01*
X106153000Y-97177557D01*
X106153000Y-97233874D01*
G36*
X103063748Y-95235858D02*
X103049605Y-95250000D01*
X103063748Y-95264143D01*
X102884143Y-95443748D01*
X102870000Y-95429605D01*
X102855858Y-95443748D01*
X102676253Y-95264143D01*
X102690395Y-95250000D01*
X102676253Y-95235858D01*
X102855858Y-95056253D01*
X102870000Y-95070395D01*
X102884143Y-95056253D01*
X103063748Y-95235858D01*
X103063748Y-95235858D01*
G37*
X103063748Y-95235858D02*
X103049605Y-95250000D01*
X103063748Y-95264143D01*
X102884143Y-95443748D01*
X102870000Y-95429605D01*
X102855858Y-95443748D01*
X102676253Y-95264143D01*
X102690395Y-95250000D01*
X102676253Y-95235858D01*
X102855858Y-95056253D01*
X102870000Y-95070395D01*
X102884143Y-95056253D01*
X103063748Y-95235858D01*
G36*
X129626360Y-56134000D02*
X129646360Y-56134000D01*
X129646360Y-56388000D01*
X129626360Y-56388000D01*
X129626360Y-57680619D01*
X129840635Y-57803273D01*
X129893977Y-57793995D01*
X130374287Y-57541467D01*
X130721397Y-57124355D01*
X130882463Y-56606160D01*
X130729489Y-56388002D01*
X130822767Y-56388002D01*
X133929470Y-59494706D01*
X133979067Y-59568933D01*
X134273130Y-59765419D01*
X134532444Y-59817000D01*
X134532448Y-59817000D01*
X134619999Y-59834415D01*
X134707550Y-59817000D01*
X139125289Y-59817000D01*
X139076569Y-59865720D01*
X138919000Y-60246126D01*
X138919000Y-60657874D01*
X139065001Y-61010352D01*
X139065000Y-62687650D01*
X138919000Y-63040126D01*
X138919000Y-63451874D01*
X139076569Y-63832280D01*
X139367720Y-64123431D01*
X139748126Y-64281000D01*
X140159874Y-64281000D01*
X140540280Y-64123431D01*
X140831431Y-63832280D01*
X140989000Y-63451874D01*
X140989000Y-63040126D01*
X140843000Y-62687650D01*
X140843000Y-61713745D01*
X141451861Y-61713745D01*
X141525995Y-61959864D01*
X142063223Y-62152965D01*
X142633454Y-62125778D01*
X143034005Y-61959864D01*
X143108139Y-61713745D01*
X142280000Y-60885605D01*
X141451861Y-61713745D01*
X140843000Y-61713745D01*
X140843000Y-61010350D01*
X140856345Y-60978133D01*
X140860222Y-61059454D01*
X141026136Y-61460005D01*
X141272255Y-61534139D01*
X142100395Y-60706000D01*
X142086252Y-60691858D01*
X142265858Y-60512252D01*
X142280000Y-60526395D01*
X142294142Y-60512252D01*
X142473748Y-60691858D01*
X142459605Y-60706000D01*
X143287745Y-61534139D01*
X143533864Y-61460005D01*
X143536290Y-61453254D01*
X143563466Y-61518862D01*
X143874976Y-61830372D01*
X143873584Y-61837370D01*
X143930875Y-62125387D01*
X143942582Y-62184240D01*
X144139068Y-62478303D01*
X144213294Y-62527899D01*
X146768100Y-65082706D01*
X146817697Y-65156933D01*
X147111760Y-65353419D01*
X147371074Y-65405000D01*
X147371075Y-65405000D01*
X147458630Y-65422416D01*
X147546185Y-65405000D01*
X150253765Y-65405000D01*
X155575000Y-70726236D01*
X155575001Y-71960017D01*
X155393375Y-72081375D01*
X155065161Y-72572582D01*
X154949908Y-73152000D01*
X155065161Y-73731418D01*
X155393375Y-74222625D01*
X155691761Y-74422000D01*
X155393375Y-74621375D01*
X155065161Y-75112582D01*
X154949908Y-75692000D01*
X155065161Y-76271418D01*
X155393375Y-76762625D01*
X155411619Y-76774816D01*
X155366235Y-76783843D01*
X155156191Y-76924191D01*
X155015843Y-77134235D01*
X154966560Y-77382000D01*
X154966560Y-79082000D01*
X155015843Y-79329765D01*
X155156191Y-79539809D01*
X155366235Y-79680157D01*
X155614000Y-79729440D01*
X157314000Y-79729440D01*
X157561765Y-79680157D01*
X157771809Y-79539809D01*
X157912157Y-79329765D01*
X157961440Y-79082000D01*
X157961440Y-77684676D01*
X158115001Y-77838237D01*
X158115000Y-87955845D01*
X157247562Y-88823283D01*
X156961522Y-88632157D01*
X157091358Y-88571183D01*
X157481645Y-88142924D01*
X157651476Y-87732890D01*
X157530155Y-87503000D01*
X156337000Y-87503000D01*
X156337000Y-87523000D01*
X156083000Y-87523000D01*
X156083000Y-87503000D01*
X154889845Y-87503000D01*
X154768524Y-87732890D01*
X154938355Y-88142924D01*
X155328642Y-88571183D01*
X155458478Y-88632157D01*
X155139375Y-88845375D01*
X154811161Y-89336582D01*
X154695908Y-89916000D01*
X154811161Y-90495418D01*
X155139375Y-90986625D01*
X155437761Y-91186000D01*
X155139375Y-91385375D01*
X154811161Y-91876582D01*
X154768873Y-92089177D01*
X149698806Y-87019110D01*
X154768524Y-87019110D01*
X154889845Y-87249000D01*
X156083000Y-87249000D01*
X156083000Y-86055181D01*
X156337000Y-86055181D01*
X156337000Y-87249000D01*
X157530155Y-87249000D01*
X157651476Y-87019110D01*
X157481645Y-86609076D01*
X157091358Y-86180817D01*
X156566892Y-85934514D01*
X156337000Y-86055181D01*
X156083000Y-86055181D01*
X155853108Y-85934514D01*
X155328642Y-86180817D01*
X154938355Y-86609076D01*
X154768524Y-87019110D01*
X149698806Y-87019110D01*
X146277446Y-83597750D01*
X148883000Y-83597750D01*
X148883000Y-84288309D01*
X148979673Y-84521698D01*
X149158301Y-84700327D01*
X149391690Y-84797000D01*
X150082250Y-84797000D01*
X150241000Y-84638250D01*
X150241000Y-83439000D01*
X149041750Y-83439000D01*
X148883000Y-83597750D01*
X146277446Y-83597750D01*
X145015387Y-82335691D01*
X148883000Y-82335691D01*
X148883000Y-83026250D01*
X149041750Y-83185000D01*
X150241000Y-83185000D01*
X150241000Y-81985750D01*
X150495000Y-81985750D01*
X150495000Y-83185000D01*
X150515000Y-83185000D01*
X150515000Y-83439000D01*
X150495000Y-83439000D01*
X150495000Y-84638250D01*
X150653750Y-84797000D01*
X151344310Y-84797000D01*
X151577699Y-84700327D01*
X151756327Y-84521698D01*
X151822904Y-84360967D01*
X151837375Y-84382625D01*
X152328582Y-84710839D01*
X152761744Y-84797000D01*
X153054256Y-84797000D01*
X153487418Y-84710839D01*
X153978625Y-84382625D01*
X154306839Y-83891418D01*
X154422092Y-83312000D01*
X154306839Y-82732582D01*
X153978625Y-82241375D01*
X153487418Y-81913161D01*
X153054256Y-81827000D01*
X152761744Y-81827000D01*
X152328582Y-81913161D01*
X151837375Y-82241375D01*
X151822904Y-82263033D01*
X151756327Y-82102302D01*
X151577699Y-81923673D01*
X151344310Y-81827000D01*
X150653750Y-81827000D01*
X150495000Y-81985750D01*
X150241000Y-81985750D01*
X150082250Y-81827000D01*
X149391690Y-81827000D01*
X149158301Y-81923673D01*
X148979673Y-82102302D01*
X148883000Y-82335691D01*
X145015387Y-82335691D01*
X143593884Y-80914188D01*
X143593882Y-80914185D01*
X142457949Y-79778253D01*
X142415437Y-79714629D01*
X142163383Y-79546212D01*
X141941114Y-79502000D01*
X141941109Y-79502000D01*
X141866066Y-79487073D01*
X141791023Y-79502000D01*
X121741042Y-79502000D01*
X121665999Y-79487073D01*
X121590956Y-79502000D01*
X121590952Y-79502000D01*
X121368683Y-79546212D01*
X121368682Y-79546213D01*
X121368681Y-79546213D01*
X121306698Y-79587629D01*
X121116629Y-79714629D01*
X121074118Y-79778251D01*
X120142000Y-80710369D01*
X120142000Y-74080000D01*
X125502560Y-74080000D01*
X125502560Y-75780000D01*
X125551843Y-76027765D01*
X125692191Y-76237809D01*
X125902235Y-76378157D01*
X126150000Y-76427440D01*
X127850000Y-76427440D01*
X128097765Y-76378157D01*
X128307809Y-76237809D01*
X128448157Y-76027765D01*
X128457184Y-75982381D01*
X128469375Y-76000625D01*
X128960582Y-76328839D01*
X129393744Y-76415000D01*
X129686256Y-76415000D01*
X130119418Y-76328839D01*
X130610625Y-76000625D01*
X130816842Y-75692000D01*
X133382398Y-75692000D01*
X133403466Y-75742862D01*
X133807138Y-76146534D01*
X134334561Y-76365000D01*
X134905439Y-76365000D01*
X135432862Y-76146534D01*
X135836534Y-75742862D01*
X136055000Y-75215439D01*
X136055000Y-74930000D01*
X140776887Y-74930000D01*
X140888260Y-75489909D01*
X141205423Y-75964577D01*
X141680091Y-76281740D01*
X142098667Y-76365000D01*
X142381333Y-76365000D01*
X142561527Y-76329157D01*
X143426118Y-77193749D01*
X143468629Y-77257371D01*
X143720683Y-77425788D01*
X143942952Y-77470000D01*
X143942953Y-77470000D01*
X144018000Y-77484928D01*
X144093047Y-77470000D01*
X146990159Y-77470000D01*
X147034690Y-77577507D01*
X147466493Y-78009310D01*
X148030670Y-78243000D01*
X148641330Y-78243000D01*
X149205507Y-78009310D01*
X149381861Y-77832956D01*
X149437673Y-77967699D01*
X149616302Y-78146327D01*
X149849691Y-78243000D01*
X150590250Y-78243000D01*
X150749000Y-78084250D01*
X150749000Y-76835000D01*
X151003000Y-76835000D01*
X151003000Y-78084250D01*
X151161750Y-78243000D01*
X151902309Y-78243000D01*
X152135698Y-78146327D01*
X152314327Y-77967699D01*
X152411000Y-77734310D01*
X152411000Y-76993750D01*
X152252250Y-76835000D01*
X151003000Y-76835000D01*
X150749000Y-76835000D01*
X150729000Y-76835000D01*
X150729000Y-76581000D01*
X150749000Y-76581000D01*
X150749000Y-75331750D01*
X151003000Y-75331750D01*
X151003000Y-76581000D01*
X152252250Y-76581000D01*
X152411000Y-76422250D01*
X152411000Y-75681690D01*
X152314327Y-75448301D01*
X152135698Y-75269673D01*
X151902309Y-75173000D01*
X151161750Y-75173000D01*
X151003000Y-75331750D01*
X150749000Y-75331750D01*
X150590250Y-75173000D01*
X149849691Y-75173000D01*
X149616302Y-75269673D01*
X149437673Y-75448301D01*
X149381861Y-75583044D01*
X149205507Y-75406690D01*
X148641330Y-75173000D01*
X148030670Y-75173000D01*
X147466493Y-75406690D01*
X147034690Y-75838493D01*
X146990159Y-75946000D01*
X144333631Y-75946000D01*
X143639157Y-75251527D01*
X143703113Y-74930000D01*
X143591740Y-74370091D01*
X143274577Y-73895423D01*
X142799909Y-73578260D01*
X142381333Y-73495000D01*
X142098667Y-73495000D01*
X141680091Y-73578260D01*
X141205423Y-73895423D01*
X140888260Y-74370091D01*
X140776887Y-74930000D01*
X136055000Y-74930000D01*
X136055000Y-74644561D01*
X135836534Y-74117138D01*
X135432862Y-73713466D01*
X134905439Y-73495000D01*
X134334561Y-73495000D01*
X133807138Y-73713466D01*
X133403466Y-74117138D01*
X133382398Y-74168000D01*
X130816842Y-74168000D01*
X130610625Y-73859375D01*
X130119418Y-73531161D01*
X129686256Y-73445000D01*
X129393744Y-73445000D01*
X128960582Y-73531161D01*
X128469375Y-73859375D01*
X128457184Y-73877619D01*
X128448157Y-73832235D01*
X128307809Y-73622191D01*
X128097765Y-73481843D01*
X127850000Y-73432560D01*
X126150000Y-73432560D01*
X125902235Y-73481843D01*
X125692191Y-73622191D01*
X125551843Y-73832235D01*
X125502560Y-74080000D01*
X120142000Y-74080000D01*
X120142000Y-71957047D01*
X120156928Y-71882000D01*
X120120610Y-71699418D01*
X120097788Y-71584683D01*
X119929371Y-71332629D01*
X119865749Y-71290118D01*
X119209883Y-70634253D01*
X119193477Y-70609699D01*
X119321880Y-70573501D01*
X119506503Y-70054661D01*
X119478521Y-69504664D01*
X119321880Y-69126499D01*
X119081010Y-69058595D01*
X118289605Y-69850000D01*
X118303748Y-69864143D01*
X118124143Y-70043748D01*
X118110000Y-70029605D01*
X118095858Y-70043748D01*
X117916253Y-69864143D01*
X117930395Y-69850000D01*
X117138990Y-69058595D01*
X116898120Y-69126499D01*
X116713497Y-69645339D01*
X116741479Y-70195336D01*
X116808857Y-70358000D01*
X111192976Y-70358000D01*
X111117933Y-70343073D01*
X111042890Y-70358000D01*
X111042885Y-70358000D01*
X110820616Y-70402212D01*
X110568562Y-70570629D01*
X110526051Y-70634251D01*
X104169758Y-76990544D01*
X104043553Y-76685857D01*
X103654143Y-76296447D01*
X103421299Y-76200000D01*
X103654143Y-76103553D01*
X104043553Y-75714143D01*
X104254300Y-75205354D01*
X104254300Y-74654646D01*
X104043553Y-74145857D01*
X103654143Y-73756447D01*
X103421299Y-73660000D01*
X103654143Y-73563553D01*
X104043553Y-73174143D01*
X104052725Y-73152000D01*
X106604957Y-73152000D01*
X106680000Y-73166927D01*
X106755043Y-73152000D01*
X106755048Y-73152000D01*
X106977317Y-73107788D01*
X107229371Y-72939371D01*
X107271883Y-72875747D01*
X112753750Y-67393881D01*
X112817371Y-67351371D01*
X112859882Y-67287749D01*
X112985787Y-67099319D01*
X112985787Y-67099318D01*
X112985788Y-67099317D01*
X113030000Y-66877048D01*
X113030000Y-66877044D01*
X113044927Y-66802001D01*
X113030000Y-66726958D01*
X113030000Y-65217711D01*
X113145431Y-65102280D01*
X113303000Y-64721874D01*
X113303000Y-64310126D01*
X113145431Y-63929720D01*
X112854280Y-63638569D01*
X112473874Y-63481000D01*
X112062126Y-63481000D01*
X111681720Y-63638569D01*
X111390569Y-63929720D01*
X111233000Y-64310126D01*
X111233000Y-64721874D01*
X111390569Y-65102280D01*
X111506001Y-65217712D01*
X111506000Y-66486369D01*
X106364370Y-71628000D01*
X104052725Y-71628000D01*
X104043553Y-71605857D01*
X103654143Y-71216447D01*
X103421299Y-71120000D01*
X103654143Y-71023553D01*
X104043553Y-70634143D01*
X104254300Y-70125354D01*
X104254300Y-69574646D01*
X104245128Y-69552502D01*
X109534960Y-64262671D01*
X109649720Y-64377431D01*
X110030126Y-64535000D01*
X110441874Y-64535000D01*
X110822280Y-64377431D01*
X111113431Y-64086280D01*
X111271000Y-63705874D01*
X111271000Y-63294126D01*
X111113431Y-62913720D01*
X110822280Y-62622569D01*
X110441874Y-62465000D01*
X110030126Y-62465000D01*
X109649720Y-62622569D01*
X109534289Y-62738000D01*
X109295042Y-62738000D01*
X109219999Y-62723073D01*
X109144956Y-62738000D01*
X109144952Y-62738000D01*
X108922683Y-62782212D01*
X108670629Y-62950629D01*
X108628118Y-63014251D01*
X104266740Y-67375630D01*
X104266740Y-66560700D01*
X104217457Y-66312935D01*
X104077109Y-66102891D01*
X103867065Y-65962543D01*
X103759000Y-65941048D01*
X103759000Y-57237550D01*
X103776415Y-57149999D01*
X103759000Y-57062448D01*
X103759000Y-57062444D01*
X103707419Y-56803130D01*
X103514897Y-56515000D01*
X104532152Y-56515000D01*
X104629423Y-56660577D01*
X105104091Y-56977740D01*
X105522667Y-57061000D01*
X105805333Y-57061000D01*
X106223909Y-56977740D01*
X106698577Y-56660577D01*
X106795848Y-56515000D01*
X108197000Y-56515000D01*
X108197000Y-56531222D01*
X108445914Y-57132153D01*
X108734783Y-57421022D01*
X108579067Y-57525067D01*
X108529471Y-57599293D01*
X107129294Y-58999471D01*
X107055068Y-59049067D01*
X106858581Y-59343130D01*
X106816742Y-59553468D01*
X106789584Y-59690000D01*
X106796521Y-59724873D01*
X105097294Y-61424101D01*
X105023068Y-61473697D01*
X104973472Y-61547923D01*
X104973471Y-61547924D01*
X104826582Y-61767760D01*
X104757584Y-62114630D01*
X104758976Y-62121628D01*
X104447466Y-62433138D01*
X104229000Y-62960561D01*
X104229000Y-63531439D01*
X104447466Y-64058862D01*
X104851138Y-64462534D01*
X105378561Y-64681000D01*
X105949439Y-64681000D01*
X106476862Y-64462534D01*
X106880534Y-64058862D01*
X107099000Y-63531439D01*
X107099000Y-62960561D01*
X106880534Y-62433138D01*
X106741631Y-62294235D01*
X107177334Y-61858532D01*
X108859073Y-61858532D01*
X108957736Y-62125387D01*
X109567461Y-62351908D01*
X110217460Y-62327856D01*
X110706264Y-62125387D01*
X110804927Y-61858532D01*
X109832000Y-60885605D01*
X108859073Y-61858532D01*
X107177334Y-61858532D01*
X108200662Y-60835204D01*
X108210144Y-61091460D01*
X108412613Y-61580264D01*
X108679468Y-61678927D01*
X109652395Y-60706000D01*
X110011605Y-60706000D01*
X110984532Y-61678927D01*
X111251387Y-61580264D01*
X111477908Y-60970539D01*
X111458331Y-60441461D01*
X114686092Y-60441461D01*
X114710144Y-61091460D01*
X114912613Y-61580264D01*
X115179468Y-61678927D01*
X116152395Y-60706000D01*
X115179468Y-59733073D01*
X114912613Y-59831736D01*
X114686092Y-60441461D01*
X111458331Y-60441461D01*
X111453856Y-60320540D01*
X111251387Y-59831736D01*
X110984532Y-59733073D01*
X110011605Y-60706000D01*
X109652395Y-60706000D01*
X109638253Y-60691858D01*
X109817858Y-60512253D01*
X109832000Y-60526395D01*
X110804927Y-59553468D01*
X110706264Y-59286613D01*
X110096539Y-59060092D01*
X109563417Y-59079819D01*
X109588236Y-59055000D01*
X116725765Y-59055000D01*
X116810255Y-59139490D01*
X116596539Y-59060092D01*
X115946540Y-59084144D01*
X115457736Y-59286613D01*
X115359073Y-59553468D01*
X116332000Y-60526395D01*
X116346143Y-60512253D01*
X116525748Y-60691858D01*
X116511605Y-60706000D01*
X116525748Y-60720143D01*
X116346143Y-60899748D01*
X116332000Y-60885605D01*
X115359073Y-61858532D01*
X115457736Y-62125387D01*
X116067461Y-62351908D01*
X116717460Y-62327856D01*
X117206264Y-62125387D01*
X117221001Y-62085529D01*
X117221000Y-66241304D01*
X116936447Y-66525857D01*
X116725700Y-67034646D01*
X116725700Y-67585354D01*
X116936447Y-68094143D01*
X117325857Y-68483553D01*
X117542757Y-68573396D01*
X117386499Y-68638120D01*
X117318595Y-68878990D01*
X118110000Y-69670395D01*
X118901405Y-68878990D01*
X118833501Y-68638120D01*
X118665397Y-68578302D01*
X118894143Y-68483553D01*
X119178696Y-68199000D01*
X120816445Y-68199000D01*
X120904000Y-68216416D01*
X120991555Y-68199000D01*
X120991556Y-68199000D01*
X121250870Y-68147419D01*
X121544933Y-67950933D01*
X121594531Y-67876704D01*
X125067347Y-64403889D01*
X125141573Y-64354293D01*
X125338059Y-64060230D01*
X125389640Y-63800916D01*
X125389640Y-63800915D01*
X125407056Y-63713361D01*
X125389640Y-63625806D01*
X125389640Y-57532789D01*
X125499579Y-57459330D01*
X125750320Y-57084070D01*
X126001060Y-57459329D01*
X126111001Y-57532789D01*
X126111000Y-68360317D01*
X125902235Y-68401843D01*
X125692191Y-68542191D01*
X125551843Y-68752235D01*
X125502560Y-69000000D01*
X125502560Y-70700000D01*
X125551843Y-70947765D01*
X125692191Y-71157809D01*
X125902235Y-71298157D01*
X126150000Y-71347440D01*
X127850000Y-71347440D01*
X128097765Y-71298157D01*
X128307809Y-71157809D01*
X128448157Y-70947765D01*
X128457184Y-70902381D01*
X128469375Y-70920625D01*
X128960582Y-71248839D01*
X129393744Y-71335000D01*
X129686256Y-71335000D01*
X130119418Y-71248839D01*
X130610625Y-70920625D01*
X130810000Y-70622239D01*
X131009375Y-70920625D01*
X131500582Y-71248839D01*
X131933744Y-71335000D01*
X132226256Y-71335000D01*
X132659418Y-71248839D01*
X133150625Y-70920625D01*
X133372618Y-70588389D01*
X133403466Y-70662862D01*
X133807138Y-71066534D01*
X134334561Y-71285000D01*
X134905439Y-71285000D01*
X135432862Y-71066534D01*
X135836534Y-70662862D01*
X136055000Y-70135439D01*
X136055000Y-69850000D01*
X140776887Y-69850000D01*
X140888260Y-70409909D01*
X141205423Y-70884577D01*
X141680091Y-71201740D01*
X142098667Y-71285000D01*
X142381333Y-71285000D01*
X142799909Y-71201740D01*
X143274577Y-70884577D01*
X143371848Y-70739000D01*
X147308183Y-70739000D01*
X147720493Y-71151310D01*
X148284670Y-71385000D01*
X148895330Y-71385000D01*
X149459507Y-71151310D01*
X149635861Y-70974956D01*
X149691673Y-71109699D01*
X149870302Y-71288327D01*
X150103691Y-71385000D01*
X150844250Y-71385000D01*
X151003000Y-71226250D01*
X151003000Y-69977000D01*
X151257000Y-69977000D01*
X151257000Y-71226250D01*
X151415750Y-71385000D01*
X152156309Y-71385000D01*
X152389698Y-71288327D01*
X152568327Y-71109699D01*
X152665000Y-70876310D01*
X152665000Y-70135750D01*
X152506250Y-69977000D01*
X151257000Y-69977000D01*
X151003000Y-69977000D01*
X150983000Y-69977000D01*
X150983000Y-69723000D01*
X151003000Y-69723000D01*
X151003000Y-68473750D01*
X151257000Y-68473750D01*
X151257000Y-69723000D01*
X152506250Y-69723000D01*
X152665000Y-69564250D01*
X152665000Y-68823690D01*
X152568327Y-68590301D01*
X152389698Y-68411673D01*
X152156309Y-68315000D01*
X151415750Y-68315000D01*
X151257000Y-68473750D01*
X151003000Y-68473750D01*
X150844250Y-68315000D01*
X150103691Y-68315000D01*
X149870302Y-68411673D01*
X149691673Y-68590301D01*
X149635861Y-68725044D01*
X149459507Y-68548690D01*
X148895330Y-68315000D01*
X148284670Y-68315000D01*
X147720493Y-68548690D01*
X147308183Y-68961000D01*
X143371848Y-68961000D01*
X143274577Y-68815423D01*
X142799909Y-68498260D01*
X142381333Y-68415000D01*
X142098667Y-68415000D01*
X141680091Y-68498260D01*
X141205423Y-68815423D01*
X140888260Y-69290091D01*
X140776887Y-69850000D01*
X136055000Y-69850000D01*
X136055000Y-69564561D01*
X135836534Y-69037138D01*
X135432862Y-68633466D01*
X134905439Y-68415000D01*
X134334561Y-68415000D01*
X133807138Y-68633466D01*
X133403466Y-69037138D01*
X133372618Y-69111611D01*
X133150625Y-68779375D01*
X132659418Y-68451161D01*
X132226256Y-68365000D01*
X131933744Y-68365000D01*
X131500582Y-68451161D01*
X131009375Y-68779375D01*
X130810000Y-69077761D01*
X130610625Y-68779375D01*
X130119418Y-68451161D01*
X129686256Y-68365000D01*
X129393744Y-68365000D01*
X128960582Y-68451161D01*
X128469375Y-68779375D01*
X128457184Y-68797619D01*
X128448157Y-68752235D01*
X128307809Y-68542191D01*
X128097765Y-68401843D01*
X127889000Y-68360318D01*
X127889000Y-57532789D01*
X127998939Y-57459330D01*
X128260001Y-57068624D01*
X128277323Y-57124355D01*
X128624433Y-57541467D01*
X129104743Y-57793995D01*
X129158085Y-57803273D01*
X129372360Y-57680619D01*
X129372360Y-56388000D01*
X129352360Y-56388000D01*
X129352360Y-56134000D01*
X129372360Y-56134000D01*
X129372360Y-56114000D01*
X129626360Y-56114000D01*
X129626360Y-56134000D01*
X129626360Y-56134000D01*
G37*
X129626360Y-56134000D02*
X129646360Y-56134000D01*
X129646360Y-56388000D01*
X129626360Y-56388000D01*
X129626360Y-57680619D01*
X129840635Y-57803273D01*
X129893977Y-57793995D01*
X130374287Y-57541467D01*
X130721397Y-57124355D01*
X130882463Y-56606160D01*
X130729489Y-56388002D01*
X130822767Y-56388002D01*
X133929470Y-59494706D01*
X133979067Y-59568933D01*
X134273130Y-59765419D01*
X134532444Y-59817000D01*
X134532448Y-59817000D01*
X134619999Y-59834415D01*
X134707550Y-59817000D01*
X139125289Y-59817000D01*
X139076569Y-59865720D01*
X138919000Y-60246126D01*
X138919000Y-60657874D01*
X139065001Y-61010352D01*
X139065000Y-62687650D01*
X138919000Y-63040126D01*
X138919000Y-63451874D01*
X139076569Y-63832280D01*
X139367720Y-64123431D01*
X139748126Y-64281000D01*
X140159874Y-64281000D01*
X140540280Y-64123431D01*
X140831431Y-63832280D01*
X140989000Y-63451874D01*
X140989000Y-63040126D01*
X140843000Y-62687650D01*
X140843000Y-61713745D01*
X141451861Y-61713745D01*
X141525995Y-61959864D01*
X142063223Y-62152965D01*
X142633454Y-62125778D01*
X143034005Y-61959864D01*
X143108139Y-61713745D01*
X142280000Y-60885605D01*
X141451861Y-61713745D01*
X140843000Y-61713745D01*
X140843000Y-61010350D01*
X140856345Y-60978133D01*
X140860222Y-61059454D01*
X141026136Y-61460005D01*
X141272255Y-61534139D01*
X142100395Y-60706000D01*
X142086252Y-60691858D01*
X142265858Y-60512252D01*
X142280000Y-60526395D01*
X142294142Y-60512252D01*
X142473748Y-60691858D01*
X142459605Y-60706000D01*
X143287745Y-61534139D01*
X143533864Y-61460005D01*
X143536290Y-61453254D01*
X143563466Y-61518862D01*
X143874976Y-61830372D01*
X143873584Y-61837370D01*
X143930875Y-62125387D01*
X143942582Y-62184240D01*
X144139068Y-62478303D01*
X144213294Y-62527899D01*
X146768100Y-65082706D01*
X146817697Y-65156933D01*
X147111760Y-65353419D01*
X147371074Y-65405000D01*
X147371075Y-65405000D01*
X147458630Y-65422416D01*
X147546185Y-65405000D01*
X150253765Y-65405000D01*
X155575000Y-70726236D01*
X155575001Y-71960017D01*
X155393375Y-72081375D01*
X155065161Y-72572582D01*
X154949908Y-73152000D01*
X155065161Y-73731418D01*
X155393375Y-74222625D01*
X155691761Y-74422000D01*
X155393375Y-74621375D01*
X155065161Y-75112582D01*
X154949908Y-75692000D01*
X155065161Y-76271418D01*
X155393375Y-76762625D01*
X155411619Y-76774816D01*
X155366235Y-76783843D01*
X155156191Y-76924191D01*
X155015843Y-77134235D01*
X154966560Y-77382000D01*
X154966560Y-79082000D01*
X155015843Y-79329765D01*
X155156191Y-79539809D01*
X155366235Y-79680157D01*
X155614000Y-79729440D01*
X157314000Y-79729440D01*
X157561765Y-79680157D01*
X157771809Y-79539809D01*
X157912157Y-79329765D01*
X157961440Y-79082000D01*
X157961440Y-77684676D01*
X158115001Y-77838237D01*
X158115000Y-87955845D01*
X157247562Y-88823283D01*
X156961522Y-88632157D01*
X157091358Y-88571183D01*
X157481645Y-88142924D01*
X157651476Y-87732890D01*
X157530155Y-87503000D01*
X156337000Y-87503000D01*
X156337000Y-87523000D01*
X156083000Y-87523000D01*
X156083000Y-87503000D01*
X154889845Y-87503000D01*
X154768524Y-87732890D01*
X154938355Y-88142924D01*
X155328642Y-88571183D01*
X155458478Y-88632157D01*
X155139375Y-88845375D01*
X154811161Y-89336582D01*
X154695908Y-89916000D01*
X154811161Y-90495418D01*
X155139375Y-90986625D01*
X155437761Y-91186000D01*
X155139375Y-91385375D01*
X154811161Y-91876582D01*
X154768873Y-92089177D01*
X149698806Y-87019110D01*
X154768524Y-87019110D01*
X154889845Y-87249000D01*
X156083000Y-87249000D01*
X156083000Y-86055181D01*
X156337000Y-86055181D01*
X156337000Y-87249000D01*
X157530155Y-87249000D01*
X157651476Y-87019110D01*
X157481645Y-86609076D01*
X157091358Y-86180817D01*
X156566892Y-85934514D01*
X156337000Y-86055181D01*
X156083000Y-86055181D01*
X155853108Y-85934514D01*
X155328642Y-86180817D01*
X154938355Y-86609076D01*
X154768524Y-87019110D01*
X149698806Y-87019110D01*
X146277446Y-83597750D01*
X148883000Y-83597750D01*
X148883000Y-84288309D01*
X148979673Y-84521698D01*
X149158301Y-84700327D01*
X149391690Y-84797000D01*
X150082250Y-84797000D01*
X150241000Y-84638250D01*
X150241000Y-83439000D01*
X149041750Y-83439000D01*
X148883000Y-83597750D01*
X146277446Y-83597750D01*
X145015387Y-82335691D01*
X148883000Y-82335691D01*
X148883000Y-83026250D01*
X149041750Y-83185000D01*
X150241000Y-83185000D01*
X150241000Y-81985750D01*
X150495000Y-81985750D01*
X150495000Y-83185000D01*
X150515000Y-83185000D01*
X150515000Y-83439000D01*
X150495000Y-83439000D01*
X150495000Y-84638250D01*
X150653750Y-84797000D01*
X151344310Y-84797000D01*
X151577699Y-84700327D01*
X151756327Y-84521698D01*
X151822904Y-84360967D01*
X151837375Y-84382625D01*
X152328582Y-84710839D01*
X152761744Y-84797000D01*
X153054256Y-84797000D01*
X153487418Y-84710839D01*
X153978625Y-84382625D01*
X154306839Y-83891418D01*
X154422092Y-83312000D01*
X154306839Y-82732582D01*
X153978625Y-82241375D01*
X153487418Y-81913161D01*
X153054256Y-81827000D01*
X152761744Y-81827000D01*
X152328582Y-81913161D01*
X151837375Y-82241375D01*
X151822904Y-82263033D01*
X151756327Y-82102302D01*
X151577699Y-81923673D01*
X151344310Y-81827000D01*
X150653750Y-81827000D01*
X150495000Y-81985750D01*
X150241000Y-81985750D01*
X150082250Y-81827000D01*
X149391690Y-81827000D01*
X149158301Y-81923673D01*
X148979673Y-82102302D01*
X148883000Y-82335691D01*
X145015387Y-82335691D01*
X143593884Y-80914188D01*
X143593882Y-80914185D01*
X142457949Y-79778253D01*
X142415437Y-79714629D01*
X142163383Y-79546212D01*
X141941114Y-79502000D01*
X141941109Y-79502000D01*
X141866066Y-79487073D01*
X141791023Y-79502000D01*
X121741042Y-79502000D01*
X121665999Y-79487073D01*
X121590956Y-79502000D01*
X121590952Y-79502000D01*
X121368683Y-79546212D01*
X121368682Y-79546213D01*
X121368681Y-79546213D01*
X121306698Y-79587629D01*
X121116629Y-79714629D01*
X121074118Y-79778251D01*
X120142000Y-80710369D01*
X120142000Y-74080000D01*
X125502560Y-74080000D01*
X125502560Y-75780000D01*
X125551843Y-76027765D01*
X125692191Y-76237809D01*
X125902235Y-76378157D01*
X126150000Y-76427440D01*
X127850000Y-76427440D01*
X128097765Y-76378157D01*
X128307809Y-76237809D01*
X128448157Y-76027765D01*
X128457184Y-75982381D01*
X128469375Y-76000625D01*
X128960582Y-76328839D01*
X129393744Y-76415000D01*
X129686256Y-76415000D01*
X130119418Y-76328839D01*
X130610625Y-76000625D01*
X130816842Y-75692000D01*
X133382398Y-75692000D01*
X133403466Y-75742862D01*
X133807138Y-76146534D01*
X134334561Y-76365000D01*
X134905439Y-76365000D01*
X135432862Y-76146534D01*
X135836534Y-75742862D01*
X136055000Y-75215439D01*
X136055000Y-74930000D01*
X140776887Y-74930000D01*
X140888260Y-75489909D01*
X141205423Y-75964577D01*
X141680091Y-76281740D01*
X142098667Y-76365000D01*
X142381333Y-76365000D01*
X142561527Y-76329157D01*
X143426118Y-77193749D01*
X143468629Y-77257371D01*
X143720683Y-77425788D01*
X143942952Y-77470000D01*
X143942953Y-77470000D01*
X144018000Y-77484928D01*
X144093047Y-77470000D01*
X146990159Y-77470000D01*
X147034690Y-77577507D01*
X147466493Y-78009310D01*
X148030670Y-78243000D01*
X148641330Y-78243000D01*
X149205507Y-78009310D01*
X149381861Y-77832956D01*
X149437673Y-77967699D01*
X149616302Y-78146327D01*
X149849691Y-78243000D01*
X150590250Y-78243000D01*
X150749000Y-78084250D01*
X150749000Y-76835000D01*
X151003000Y-76835000D01*
X151003000Y-78084250D01*
X151161750Y-78243000D01*
X151902309Y-78243000D01*
X152135698Y-78146327D01*
X152314327Y-77967699D01*
X152411000Y-77734310D01*
X152411000Y-76993750D01*
X152252250Y-76835000D01*
X151003000Y-76835000D01*
X150749000Y-76835000D01*
X150729000Y-76835000D01*
X150729000Y-76581000D01*
X150749000Y-76581000D01*
X150749000Y-75331750D01*
X151003000Y-75331750D01*
X151003000Y-76581000D01*
X152252250Y-76581000D01*
X152411000Y-76422250D01*
X152411000Y-75681690D01*
X152314327Y-75448301D01*
X152135698Y-75269673D01*
X151902309Y-75173000D01*
X151161750Y-75173000D01*
X151003000Y-75331750D01*
X150749000Y-75331750D01*
X150590250Y-75173000D01*
X149849691Y-75173000D01*
X149616302Y-75269673D01*
X149437673Y-75448301D01*
X149381861Y-75583044D01*
X149205507Y-75406690D01*
X148641330Y-75173000D01*
X148030670Y-75173000D01*
X147466493Y-75406690D01*
X147034690Y-75838493D01*
X146990159Y-75946000D01*
X144333631Y-75946000D01*
X143639157Y-75251527D01*
X143703113Y-74930000D01*
X143591740Y-74370091D01*
X143274577Y-73895423D01*
X142799909Y-73578260D01*
X142381333Y-73495000D01*
X142098667Y-73495000D01*
X141680091Y-73578260D01*
X141205423Y-73895423D01*
X140888260Y-74370091D01*
X140776887Y-74930000D01*
X136055000Y-74930000D01*
X136055000Y-74644561D01*
X135836534Y-74117138D01*
X135432862Y-73713466D01*
X134905439Y-73495000D01*
X134334561Y-73495000D01*
X133807138Y-73713466D01*
X133403466Y-74117138D01*
X133382398Y-74168000D01*
X130816842Y-74168000D01*
X130610625Y-73859375D01*
X130119418Y-73531161D01*
X129686256Y-73445000D01*
X129393744Y-73445000D01*
X128960582Y-73531161D01*
X128469375Y-73859375D01*
X128457184Y-73877619D01*
X128448157Y-73832235D01*
X128307809Y-73622191D01*
X128097765Y-73481843D01*
X127850000Y-73432560D01*
X126150000Y-73432560D01*
X125902235Y-73481843D01*
X125692191Y-73622191D01*
X125551843Y-73832235D01*
X125502560Y-74080000D01*
X120142000Y-74080000D01*
X120142000Y-71957047D01*
X120156928Y-71882000D01*
X120120610Y-71699418D01*
X120097788Y-71584683D01*
X119929371Y-71332629D01*
X119865749Y-71290118D01*
X119209883Y-70634253D01*
X119193477Y-70609699D01*
X119321880Y-70573501D01*
X119506503Y-70054661D01*
X119478521Y-69504664D01*
X119321880Y-69126499D01*
X119081010Y-69058595D01*
X118289605Y-69850000D01*
X118303748Y-69864143D01*
X118124143Y-70043748D01*
X118110000Y-70029605D01*
X118095858Y-70043748D01*
X117916253Y-69864143D01*
X117930395Y-69850000D01*
X117138990Y-69058595D01*
X116898120Y-69126499D01*
X116713497Y-69645339D01*
X116741479Y-70195336D01*
X116808857Y-70358000D01*
X111192976Y-70358000D01*
X111117933Y-70343073D01*
X111042890Y-70358000D01*
X111042885Y-70358000D01*
X110820616Y-70402212D01*
X110568562Y-70570629D01*
X110526051Y-70634251D01*
X104169758Y-76990544D01*
X104043553Y-76685857D01*
X103654143Y-76296447D01*
X103421299Y-76200000D01*
X103654143Y-76103553D01*
X104043553Y-75714143D01*
X104254300Y-75205354D01*
X104254300Y-74654646D01*
X104043553Y-74145857D01*
X103654143Y-73756447D01*
X103421299Y-73660000D01*
X103654143Y-73563553D01*
X104043553Y-73174143D01*
X104052725Y-73152000D01*
X106604957Y-73152000D01*
X106680000Y-73166927D01*
X106755043Y-73152000D01*
X106755048Y-73152000D01*
X106977317Y-73107788D01*
X107229371Y-72939371D01*
X107271883Y-72875747D01*
X112753750Y-67393881D01*
X112817371Y-67351371D01*
X112859882Y-67287749D01*
X112985787Y-67099319D01*
X112985787Y-67099318D01*
X112985788Y-67099317D01*
X113030000Y-66877048D01*
X113030000Y-66877044D01*
X113044927Y-66802001D01*
X113030000Y-66726958D01*
X113030000Y-65217711D01*
X113145431Y-65102280D01*
X113303000Y-64721874D01*
X113303000Y-64310126D01*
X113145431Y-63929720D01*
X112854280Y-63638569D01*
X112473874Y-63481000D01*
X112062126Y-63481000D01*
X111681720Y-63638569D01*
X111390569Y-63929720D01*
X111233000Y-64310126D01*
X111233000Y-64721874D01*
X111390569Y-65102280D01*
X111506001Y-65217712D01*
X111506000Y-66486369D01*
X106364370Y-71628000D01*
X104052725Y-71628000D01*
X104043553Y-71605857D01*
X103654143Y-71216447D01*
X103421299Y-71120000D01*
X103654143Y-71023553D01*
X104043553Y-70634143D01*
X104254300Y-70125354D01*
X104254300Y-69574646D01*
X104245128Y-69552502D01*
X109534960Y-64262671D01*
X109649720Y-64377431D01*
X110030126Y-64535000D01*
X110441874Y-64535000D01*
X110822280Y-64377431D01*
X111113431Y-64086280D01*
X111271000Y-63705874D01*
X111271000Y-63294126D01*
X111113431Y-62913720D01*
X110822280Y-62622569D01*
X110441874Y-62465000D01*
X110030126Y-62465000D01*
X109649720Y-62622569D01*
X109534289Y-62738000D01*
X109295042Y-62738000D01*
X109219999Y-62723073D01*
X109144956Y-62738000D01*
X109144952Y-62738000D01*
X108922683Y-62782212D01*
X108670629Y-62950629D01*
X108628118Y-63014251D01*
X104266740Y-67375630D01*
X104266740Y-66560700D01*
X104217457Y-66312935D01*
X104077109Y-66102891D01*
X103867065Y-65962543D01*
X103759000Y-65941048D01*
X103759000Y-57237550D01*
X103776415Y-57149999D01*
X103759000Y-57062448D01*
X103759000Y-57062444D01*
X103707419Y-56803130D01*
X103514897Y-56515000D01*
X104532152Y-56515000D01*
X104629423Y-56660577D01*
X105104091Y-56977740D01*
X105522667Y-57061000D01*
X105805333Y-57061000D01*
X106223909Y-56977740D01*
X106698577Y-56660577D01*
X106795848Y-56515000D01*
X108197000Y-56515000D01*
X108197000Y-56531222D01*
X108445914Y-57132153D01*
X108734783Y-57421022D01*
X108579067Y-57525067D01*
X108529471Y-57599293D01*
X107129294Y-58999471D01*
X107055068Y-59049067D01*
X106858581Y-59343130D01*
X106816742Y-59553468D01*
X106789584Y-59690000D01*
X106796521Y-59724873D01*
X105097294Y-61424101D01*
X105023068Y-61473697D01*
X104973472Y-61547923D01*
X104973471Y-61547924D01*
X104826582Y-61767760D01*
X104757584Y-62114630D01*
X104758976Y-62121628D01*
X104447466Y-62433138D01*
X104229000Y-62960561D01*
X104229000Y-63531439D01*
X104447466Y-64058862D01*
X104851138Y-64462534D01*
X105378561Y-64681000D01*
X105949439Y-64681000D01*
X106476862Y-64462534D01*
X106880534Y-64058862D01*
X107099000Y-63531439D01*
X107099000Y-62960561D01*
X106880534Y-62433138D01*
X106741631Y-62294235D01*
X107177334Y-61858532D01*
X108859073Y-61858532D01*
X108957736Y-62125387D01*
X109567461Y-62351908D01*
X110217460Y-62327856D01*
X110706264Y-62125387D01*
X110804927Y-61858532D01*
X109832000Y-60885605D01*
X108859073Y-61858532D01*
X107177334Y-61858532D01*
X108200662Y-60835204D01*
X108210144Y-61091460D01*
X108412613Y-61580264D01*
X108679468Y-61678927D01*
X109652395Y-60706000D01*
X110011605Y-60706000D01*
X110984532Y-61678927D01*
X111251387Y-61580264D01*
X111477908Y-60970539D01*
X111458331Y-60441461D01*
X114686092Y-60441461D01*
X114710144Y-61091460D01*
X114912613Y-61580264D01*
X115179468Y-61678927D01*
X116152395Y-60706000D01*
X115179468Y-59733073D01*
X114912613Y-59831736D01*
X114686092Y-60441461D01*
X111458331Y-60441461D01*
X111453856Y-60320540D01*
X111251387Y-59831736D01*
X110984532Y-59733073D01*
X110011605Y-60706000D01*
X109652395Y-60706000D01*
X109638253Y-60691858D01*
X109817858Y-60512253D01*
X109832000Y-60526395D01*
X110804927Y-59553468D01*
X110706264Y-59286613D01*
X110096539Y-59060092D01*
X109563417Y-59079819D01*
X109588236Y-59055000D01*
X116725765Y-59055000D01*
X116810255Y-59139490D01*
X116596539Y-59060092D01*
X115946540Y-59084144D01*
X115457736Y-59286613D01*
X115359073Y-59553468D01*
X116332000Y-60526395D01*
X116346143Y-60512253D01*
X116525748Y-60691858D01*
X116511605Y-60706000D01*
X116525748Y-60720143D01*
X116346143Y-60899748D01*
X116332000Y-60885605D01*
X115359073Y-61858532D01*
X115457736Y-62125387D01*
X116067461Y-62351908D01*
X116717460Y-62327856D01*
X117206264Y-62125387D01*
X117221001Y-62085529D01*
X117221000Y-66241304D01*
X116936447Y-66525857D01*
X116725700Y-67034646D01*
X116725700Y-67585354D01*
X116936447Y-68094143D01*
X117325857Y-68483553D01*
X117542757Y-68573396D01*
X117386499Y-68638120D01*
X117318595Y-68878990D01*
X118110000Y-69670395D01*
X118901405Y-68878990D01*
X118833501Y-68638120D01*
X118665397Y-68578302D01*
X118894143Y-68483553D01*
X119178696Y-68199000D01*
X120816445Y-68199000D01*
X120904000Y-68216416D01*
X120991555Y-68199000D01*
X120991556Y-68199000D01*
X121250870Y-68147419D01*
X121544933Y-67950933D01*
X121594531Y-67876704D01*
X125067347Y-64403889D01*
X125141573Y-64354293D01*
X125338059Y-64060230D01*
X125389640Y-63800916D01*
X125389640Y-63800915D01*
X125407056Y-63713361D01*
X125389640Y-63625806D01*
X125389640Y-57532789D01*
X125499579Y-57459330D01*
X125750320Y-57084070D01*
X126001060Y-57459329D01*
X126111001Y-57532789D01*
X126111000Y-68360317D01*
X125902235Y-68401843D01*
X125692191Y-68542191D01*
X125551843Y-68752235D01*
X125502560Y-69000000D01*
X125502560Y-70700000D01*
X125551843Y-70947765D01*
X125692191Y-71157809D01*
X125902235Y-71298157D01*
X126150000Y-71347440D01*
X127850000Y-71347440D01*
X128097765Y-71298157D01*
X128307809Y-71157809D01*
X128448157Y-70947765D01*
X128457184Y-70902381D01*
X128469375Y-70920625D01*
X128960582Y-71248839D01*
X129393744Y-71335000D01*
X129686256Y-71335000D01*
X130119418Y-71248839D01*
X130610625Y-70920625D01*
X130810000Y-70622239D01*
X131009375Y-70920625D01*
X131500582Y-71248839D01*
X131933744Y-71335000D01*
X132226256Y-71335000D01*
X132659418Y-71248839D01*
X133150625Y-70920625D01*
X133372618Y-70588389D01*
X133403466Y-70662862D01*
X133807138Y-71066534D01*
X134334561Y-71285000D01*
X134905439Y-71285000D01*
X135432862Y-71066534D01*
X135836534Y-70662862D01*
X136055000Y-70135439D01*
X136055000Y-69850000D01*
X140776887Y-69850000D01*
X140888260Y-70409909D01*
X141205423Y-70884577D01*
X141680091Y-71201740D01*
X142098667Y-71285000D01*
X142381333Y-71285000D01*
X142799909Y-71201740D01*
X143274577Y-70884577D01*
X143371848Y-70739000D01*
X147308183Y-70739000D01*
X147720493Y-71151310D01*
X148284670Y-71385000D01*
X148895330Y-71385000D01*
X149459507Y-71151310D01*
X149635861Y-70974956D01*
X149691673Y-71109699D01*
X149870302Y-71288327D01*
X150103691Y-71385000D01*
X150844250Y-71385000D01*
X151003000Y-71226250D01*
X151003000Y-69977000D01*
X151257000Y-69977000D01*
X151257000Y-71226250D01*
X151415750Y-71385000D01*
X152156309Y-71385000D01*
X152389698Y-71288327D01*
X152568327Y-71109699D01*
X152665000Y-70876310D01*
X152665000Y-70135750D01*
X152506250Y-69977000D01*
X151257000Y-69977000D01*
X151003000Y-69977000D01*
X150983000Y-69977000D01*
X150983000Y-69723000D01*
X151003000Y-69723000D01*
X151003000Y-68473750D01*
X151257000Y-68473750D01*
X151257000Y-69723000D01*
X152506250Y-69723000D01*
X152665000Y-69564250D01*
X152665000Y-68823690D01*
X152568327Y-68590301D01*
X152389698Y-68411673D01*
X152156309Y-68315000D01*
X151415750Y-68315000D01*
X151257000Y-68473750D01*
X151003000Y-68473750D01*
X150844250Y-68315000D01*
X150103691Y-68315000D01*
X149870302Y-68411673D01*
X149691673Y-68590301D01*
X149635861Y-68725044D01*
X149459507Y-68548690D01*
X148895330Y-68315000D01*
X148284670Y-68315000D01*
X147720493Y-68548690D01*
X147308183Y-68961000D01*
X143371848Y-68961000D01*
X143274577Y-68815423D01*
X142799909Y-68498260D01*
X142381333Y-68415000D01*
X142098667Y-68415000D01*
X141680091Y-68498260D01*
X141205423Y-68815423D01*
X140888260Y-69290091D01*
X140776887Y-69850000D01*
X136055000Y-69850000D01*
X136055000Y-69564561D01*
X135836534Y-69037138D01*
X135432862Y-68633466D01*
X134905439Y-68415000D01*
X134334561Y-68415000D01*
X133807138Y-68633466D01*
X133403466Y-69037138D01*
X133372618Y-69111611D01*
X133150625Y-68779375D01*
X132659418Y-68451161D01*
X132226256Y-68365000D01*
X131933744Y-68365000D01*
X131500582Y-68451161D01*
X131009375Y-68779375D01*
X130810000Y-69077761D01*
X130610625Y-68779375D01*
X130119418Y-68451161D01*
X129686256Y-68365000D01*
X129393744Y-68365000D01*
X128960582Y-68451161D01*
X128469375Y-68779375D01*
X128457184Y-68797619D01*
X128448157Y-68752235D01*
X128307809Y-68542191D01*
X128097765Y-68401843D01*
X127889000Y-68360318D01*
X127889000Y-57532789D01*
X127998939Y-57459330D01*
X128260001Y-57068624D01*
X128277323Y-57124355D01*
X128624433Y-57541467D01*
X129104743Y-57793995D01*
X129158085Y-57803273D01*
X129372360Y-57680619D01*
X129372360Y-56388000D01*
X129352360Y-56388000D01*
X129352360Y-56134000D01*
X129372360Y-56134000D01*
X129372360Y-56114000D01*
X129626360Y-56114000D01*
X129626360Y-56134000D01*
G36*
X123933936Y-54513829D02*
X123859707Y-54563427D01*
X123663221Y-54857491D01*
X123640910Y-54969653D01*
X123501701Y-55062670D01*
X123195462Y-55520988D01*
X123115070Y-55925147D01*
X123115070Y-56596852D01*
X123195462Y-57001011D01*
X123501700Y-57459329D01*
X123611641Y-57532789D01*
X123611641Y-57910804D01*
X123611640Y-63345124D01*
X120535765Y-66421000D01*
X119178696Y-66421000D01*
X118999000Y-66241304D01*
X118999000Y-59269555D01*
X119016416Y-59182000D01*
X118989974Y-59049067D01*
X118947419Y-58835130D01*
X118750933Y-58541067D01*
X118676706Y-58491471D01*
X117784531Y-57599296D01*
X117734933Y-57525067D01*
X117489299Y-57360940D01*
X117718086Y-57132153D01*
X117967000Y-56531222D01*
X117967000Y-55880778D01*
X117718086Y-55279847D01*
X117258153Y-54819914D01*
X116657222Y-54571000D01*
X116006778Y-54571000D01*
X115405847Y-54819914D01*
X114945914Y-55279847D01*
X114930525Y-55317000D01*
X111233475Y-55317000D01*
X111218086Y-55279847D01*
X110758153Y-54819914D01*
X110157222Y-54571000D01*
X109506778Y-54571000D01*
X109106019Y-54737000D01*
X106795848Y-54737000D01*
X106698577Y-54591423D01*
X106223909Y-54274260D01*
X105805333Y-54191000D01*
X105522667Y-54191000D01*
X105104091Y-54274260D01*
X104629423Y-54591423D01*
X104532152Y-54737000D01*
X102562308Y-54737000D01*
X102179418Y-54481161D01*
X101746256Y-54395000D01*
X101453744Y-54395000D01*
X101020582Y-54481161D01*
X100529375Y-54809375D01*
X100330000Y-55107761D01*
X100130625Y-54809375D01*
X99639418Y-54481161D01*
X99206256Y-54395000D01*
X98913744Y-54395000D01*
X98480582Y-54481161D01*
X97989375Y-54809375D01*
X97776157Y-55128478D01*
X97715183Y-54998642D01*
X97286924Y-54608355D01*
X96876890Y-54438524D01*
X96647000Y-54559845D01*
X96647000Y-55753000D01*
X96667000Y-55753000D01*
X96667000Y-56007000D01*
X96647000Y-56007000D01*
X96647000Y-57200155D01*
X96876890Y-57321476D01*
X97286924Y-57151645D01*
X97715183Y-56761358D01*
X97776157Y-56631522D01*
X97989375Y-56950625D01*
X98480582Y-57278839D01*
X98913744Y-57365000D01*
X99206256Y-57365000D01*
X99639418Y-57278839D01*
X100130625Y-56950625D01*
X100330000Y-56652239D01*
X100529375Y-56950625D01*
X101020582Y-57278839D01*
X101453744Y-57365000D01*
X101746256Y-57365000D01*
X101814241Y-57351477D01*
X101981001Y-57518237D01*
X101981000Y-65941048D01*
X101872935Y-65962543D01*
X101662891Y-66102891D01*
X101522543Y-66312935D01*
X101473260Y-66560700D01*
X101473260Y-67375630D01*
X100159883Y-66062253D01*
X100117371Y-65998629D01*
X99865317Y-65830212D01*
X99643048Y-65786000D01*
X99643043Y-65786000D01*
X99568000Y-65771073D01*
X99492957Y-65786000D01*
X91173042Y-65786000D01*
X91097999Y-65771073D01*
X91022956Y-65786000D01*
X91022952Y-65786000D01*
X90800683Y-65830212D01*
X90800682Y-65830213D01*
X90800681Y-65830213D01*
X90657775Y-65925700D01*
X90548629Y-65998629D01*
X90506118Y-66062251D01*
X89684251Y-66884119D01*
X89620630Y-66926629D01*
X89578119Y-66990251D01*
X89578118Y-66990252D01*
X89516440Y-67082560D01*
X89320000Y-67082560D01*
X89154000Y-67115579D01*
X89154000Y-58139630D01*
X90121629Y-57172002D01*
X90132191Y-57187809D01*
X90342235Y-57328157D01*
X90590000Y-57377440D01*
X92290000Y-57377440D01*
X92537765Y-57328157D01*
X92747809Y-57187809D01*
X92888157Y-56977765D01*
X92897184Y-56932381D01*
X92909375Y-56950625D01*
X93400582Y-57278839D01*
X93833744Y-57365000D01*
X94126256Y-57365000D01*
X94559418Y-57278839D01*
X95050625Y-56950625D01*
X95263843Y-56631522D01*
X95324817Y-56761358D01*
X95753076Y-57151645D01*
X96163110Y-57321476D01*
X96393000Y-57200155D01*
X96393000Y-56007000D01*
X96373000Y-56007000D01*
X96373000Y-55753000D01*
X96393000Y-55753000D01*
X96393000Y-54559845D01*
X96163110Y-54438524D01*
X95753076Y-54608355D01*
X95324817Y-54998642D01*
X95263843Y-55128478D01*
X95050625Y-54809375D01*
X94742000Y-54603158D01*
X94742000Y-54431043D01*
X94756927Y-54356000D01*
X94742000Y-54280957D01*
X94742000Y-54280952D01*
X94697788Y-54058683D01*
X94596240Y-53906706D01*
X94571882Y-53870251D01*
X94529371Y-53806629D01*
X94465750Y-53764119D01*
X93555883Y-52854253D01*
X93522973Y-52805000D01*
X125642764Y-52805000D01*
X123933936Y-54513829D01*
X123933936Y-54513829D01*
G37*
X123933936Y-54513829D02*
X123859707Y-54563427D01*
X123663221Y-54857491D01*
X123640910Y-54969653D01*
X123501701Y-55062670D01*
X123195462Y-55520988D01*
X123115070Y-55925147D01*
X123115070Y-56596852D01*
X123195462Y-57001011D01*
X123501700Y-57459329D01*
X123611641Y-57532789D01*
X123611641Y-57910804D01*
X123611640Y-63345124D01*
X120535765Y-66421000D01*
X119178696Y-66421000D01*
X118999000Y-66241304D01*
X118999000Y-59269555D01*
X119016416Y-59182000D01*
X118989974Y-59049067D01*
X118947419Y-58835130D01*
X118750933Y-58541067D01*
X118676706Y-58491471D01*
X117784531Y-57599296D01*
X117734933Y-57525067D01*
X117489299Y-57360940D01*
X117718086Y-57132153D01*
X117967000Y-56531222D01*
X117967000Y-55880778D01*
X117718086Y-55279847D01*
X117258153Y-54819914D01*
X116657222Y-54571000D01*
X116006778Y-54571000D01*
X115405847Y-54819914D01*
X114945914Y-55279847D01*
X114930525Y-55317000D01*
X111233475Y-55317000D01*
X111218086Y-55279847D01*
X110758153Y-54819914D01*
X110157222Y-54571000D01*
X109506778Y-54571000D01*
X109106019Y-54737000D01*
X106795848Y-54737000D01*
X106698577Y-54591423D01*
X106223909Y-54274260D01*
X105805333Y-54191000D01*
X105522667Y-54191000D01*
X105104091Y-54274260D01*
X104629423Y-54591423D01*
X104532152Y-54737000D01*
X102562308Y-54737000D01*
X102179418Y-54481161D01*
X101746256Y-54395000D01*
X101453744Y-54395000D01*
X101020582Y-54481161D01*
X100529375Y-54809375D01*
X100330000Y-55107761D01*
X100130625Y-54809375D01*
X99639418Y-54481161D01*
X99206256Y-54395000D01*
X98913744Y-54395000D01*
X98480582Y-54481161D01*
X97989375Y-54809375D01*
X97776157Y-55128478D01*
X97715183Y-54998642D01*
X97286924Y-54608355D01*
X96876890Y-54438524D01*
X96647000Y-54559845D01*
X96647000Y-55753000D01*
X96667000Y-55753000D01*
X96667000Y-56007000D01*
X96647000Y-56007000D01*
X96647000Y-57200155D01*
X96876890Y-57321476D01*
X97286924Y-57151645D01*
X97715183Y-56761358D01*
X97776157Y-56631522D01*
X97989375Y-56950625D01*
X98480582Y-57278839D01*
X98913744Y-57365000D01*
X99206256Y-57365000D01*
X99639418Y-57278839D01*
X100130625Y-56950625D01*
X100330000Y-56652239D01*
X100529375Y-56950625D01*
X101020582Y-57278839D01*
X101453744Y-57365000D01*
X101746256Y-57365000D01*
X101814241Y-57351477D01*
X101981001Y-57518237D01*
X101981000Y-65941048D01*
X101872935Y-65962543D01*
X101662891Y-66102891D01*
X101522543Y-66312935D01*
X101473260Y-66560700D01*
X101473260Y-67375630D01*
X100159883Y-66062253D01*
X100117371Y-65998629D01*
X99865317Y-65830212D01*
X99643048Y-65786000D01*
X99643043Y-65786000D01*
X99568000Y-65771073D01*
X99492957Y-65786000D01*
X91173042Y-65786000D01*
X91097999Y-65771073D01*
X91022956Y-65786000D01*
X91022952Y-65786000D01*
X90800683Y-65830212D01*
X90800682Y-65830213D01*
X90800681Y-65830213D01*
X90657775Y-65925700D01*
X90548629Y-65998629D01*
X90506118Y-66062251D01*
X89684251Y-66884119D01*
X89620630Y-66926629D01*
X89578119Y-66990251D01*
X89578118Y-66990252D01*
X89516440Y-67082560D01*
X89320000Y-67082560D01*
X89154000Y-67115579D01*
X89154000Y-58139630D01*
X90121629Y-57172002D01*
X90132191Y-57187809D01*
X90342235Y-57328157D01*
X90590000Y-57377440D01*
X92290000Y-57377440D01*
X92537765Y-57328157D01*
X92747809Y-57187809D01*
X92888157Y-56977765D01*
X92897184Y-56932381D01*
X92909375Y-56950625D01*
X93400582Y-57278839D01*
X93833744Y-57365000D01*
X94126256Y-57365000D01*
X94559418Y-57278839D01*
X95050625Y-56950625D01*
X95263843Y-56631522D01*
X95324817Y-56761358D01*
X95753076Y-57151645D01*
X96163110Y-57321476D01*
X96393000Y-57200155D01*
X96393000Y-56007000D01*
X96373000Y-56007000D01*
X96373000Y-55753000D01*
X96393000Y-55753000D01*
X96393000Y-54559845D01*
X96163110Y-54438524D01*
X95753076Y-54608355D01*
X95324817Y-54998642D01*
X95263843Y-55128478D01*
X95050625Y-54809375D01*
X94742000Y-54603158D01*
X94742000Y-54431043D01*
X94756927Y-54356000D01*
X94742000Y-54280957D01*
X94742000Y-54280952D01*
X94697788Y-54058683D01*
X94596240Y-53906706D01*
X94571882Y-53870251D01*
X94529371Y-53806629D01*
X94465750Y-53764119D01*
X93555883Y-52854253D01*
X93522973Y-52805000D01*
X125642764Y-52805000D01*
X123933936Y-54513829D01*
G04 #@! TD*
M02*
